<?xml version="1.0" standalone="no"?>
<!DOCTYPE svg PUBLIC "-//W3C//DTD SVG 1.1//EN" "http://www.w3.org/Graphics/SVG/1.1/DTD/svg11.dtd" >
<svg>
<metadata>
Created by FontForge 20120731 at Sun Sep 28 01:42:17 2014
 By World Wide Web Server
Copyright (c) 1981, 1990 Linotype AG
</metadata>
<defs>
<font id="SnellRoundhand-Bold" horiz-adv-x="481" >
  <font-face 
    font-family="Snell Roundhand"
    font-weight="700"
    font-style="italic"
    font-stretch="normal"
    units-per-em="1000"
    panose-1="2 0 8 3 9 0 0 9 0 4"
    ascent="800"
    descent="-200"
    x-height="356"
    cap-height="705"
    bbox="-926 -483 3003 1046"
    underline-thickness="50"
    underline-position="-75"
    slope="-40"
    unicode-range="U+0009-FB02"
  />
<missing-glyph horiz-adv-x="500" 
d="M442 8v496h-384v-496h384zM50 512h400v-512h-400v512z" />
    <glyph glyph-name=".notdef" horiz-adv-x="500" 
d="M442 8v496h-384v-496h384zM50 512h400v-512h-400v512z" />
    <glyph glyph-name=".null" horiz-adv-x="0" 
 />
    <glyph glyph-name=".null" horiz-adv-x="0" 
 />
    <glyph glyph-name="nonmarkingreturn" unicode="&#xd;" horiz-adv-x="500" 
 />
    <glyph glyph-name="space" unicode="&#x9;" horiz-adv-x="268" 
 />
    <glyph glyph-name="space" unicode="&#xa0;" horiz-adv-x="268" 
 />
    <glyph glyph-name="space" unicode=" " horiz-adv-x="268" 
 />
    <glyph glyph-name="exclam" unicode="!" horiz-adv-x="370" 
d="M163 120q21 34 41.5 71t37.5 72t31 67t22 56q28 83 50.5 118.5t51.5 35.5q18 0 31.5 -13t13.5 -33q0 -17 -8.5 -34.5t-25.5 -39.5t-42.5 -50.5t-59.5 -67.5t-69.5 -85t-66.5 -100zM118 100q23 0 39.5 -16.5t16.5 -39.5t-16.5 -39.5t-39.5 -16.5t-39.5 16.5t-16.5 39.5
t16.5 39.5t39.5 16.5z" />
    <glyph glyph-name="quotedbl" unicode="&#x22;" horiz-adv-x="333" 
d="M318 616q-24 -29 -40 -44.5t-30 -30.5t-29 -35.5t-36 -57.5l-13 8q21 37 31.5 59.5t17 42t12.5 41t18 57.5q3 9 9.5 18.5t15 16t19 8t22.5 -4.5t16.5 -16t3.5 -21.5t-5.5 -22t-11.5 -18.5zM477 616q-24 -29 -40 -44.5t-30.5 -30.5t-29.5 -35.5t-36 -57.5l-12 8
q21 37 31.5 59.5t16.5 42t12 41t18 57.5q3 9 9.5 18.5t15.5 16t19.5 8t21.5 -4.5q12 -6 16.5 -16t4 -21.5t-5.5 -22t-11 -18.5z" />
    <glyph glyph-name="numbersign" unicode="#" horiz-adv-x="537" 
d="M230 13l-81 -13l128 192h-99l-119 -179l-86 -13l128 192h-109l9 14h108l92 140h-109l9 14h108l108 164l83 8l-114 -172h99l108 164l78 8l-114 -172h122l-9 -14h-121l-92 -140h122l-9 -14h-121zM377 346h-99l-92 -140h99z" />
    <glyph glyph-name="dollar" unicode="$" horiz-adv-x="537" 
d="M295 284q-24 28 -43.5 62t-19.5 72q0 34 16 62.5t42 48.5t59.5 31.5t68.5 11.5q16 0 29.5 -2.5t23.5 -4.5l40 66l16 -8l-38 -63q15 -6 31.5 -15.5t30 -23t22.5 -30t9 -36.5q0 -46 -28 -64t-74 -15q11 22 19.5 47t8.5 46q0 24 -6 42t-23 33l-122 -195q27 -36 49.5 -71
t22.5 -80q0 -42 -16.5 -74.5t-45.5 -55t-68.5 -34.5t-86.5 -12q-17 0 -30 1.5t-24 4.5l-42 -69l-15 9l40 65q-46 18 -76 51.5t-30 83.5q0 17 5.5 34.5t15.5 31.5t25.5 22.5t34.5 8.5q24 0 39 -12t15 -34q0 -23 -16 -34.5t-34 -11.5q-8 0 -15.5 2.5t-12.5 5.5q-9 -13 -9 -40
q0 -28 19.5 -54.5t47.5 -38.5zM167 41q10 -4 23.5 -5.5t26.5 -1.5q28 0 52 9.5t42 27.5t28 42.5t10 54.5q0 29 -11.5 54t-30.5 47zM463 552q-8 4 -18.5 6t-24.5 2q-23 0 -42.5 -9t-34 -25t-23 -37.5t-8.5 -46.5q0 -21 9 -42t23 -36z" />
    <glyph glyph-name="percent" unicode="%" horiz-adv-x="796" 
d="M438 92q0 43 20.5 81t53.5 66.5t73.5 45t80.5 16.5q20 0 39 -6t34 -17t24 -28t9 -39q0 -46 -20.5 -86.5t-54 -71t-75 -48t-83.5 -17.5q-43 0 -72 25.5t-29 78.5zM671 289q-32 0 -63 -26.5t-55.5 -64.5t-39.5 -80t-15 -73q0 -18 8.5 -31.5t32.5 -13.5q32 0 63 26.5
t55.5 64.5t39.5 80t15 73q0 18 -8.5 31.5t-32.5 13.5zM295 562q-32 0 -63 -26.5t-55.5 -64.5t-39.5 -80t-15 -73q0 -18 8.5 -31.5t32.5 -13.5q32 0 63 26.5t55.5 64.5t39.5 80t15 73q0 18 -8.5 31.5t-32.5 13.5zM160 -16l395 512l-2 2q-20 -20 -44 -29t-45 -9
q-26 0 -41.5 10.5t-26.5 27.5l-2 -2q2 -2 2 -12q0 -46 -20.5 -86.5t-54 -71t-75 -48t-83.5 -17.5q-43 0 -72 25.5t-29 78.5q0 43 20.5 81t53.5 66.5t73.5 45t80.5 16.5q43 0 64.5 -16t36 -35t29 -35t42.5 -16q39 0 63.5 17.5t41.5 38.5t30 38.5t28 17.5q11 0 15.5 -6
t4.5 -13q0 -6 -6 -16t-14.5 -21t-17.5 -21.5l-15 -17.5l-425 -510z" />
    <glyph glyph-name="ampersand" unicode="&#x26;" horiz-adv-x="667" 
d="M100 162q0 -27 8 -52.5t23.5 -45t38 -31t50.5 -11.5q25 0 47.5 6t48.5 24q-53 41 -80 104.5t-27 135.5v17q-45 -17 -77 -56.5t-32 -90.5zM437 496q0 17 -8.5 27.5t-26.5 10.5q-20 0 -40 -16t-36.5 -43t-26.5 -61.5t-10 -70.5q26 7 52.5 20t47.5 32.5t34.5 45t13.5 55.5z
M821 149q-49 -80 -124.5 -122.5t-172.5 -42.5q-54 0 -106 14t-94 48q-36 -24 -77 -41t-86 -17q-28 0 -54.5 8.5t-46.5 25t-32 40.5t-12 54q0 41 18 73t46 57t62.5 43t68.5 30q4 38 21.5 79.5t46 75.5t66.5 56t84 22q36 0 58 -16t22 -45q0 -36 -24.5 -61t-59 -43t-72.5 -30
t-64 -23q2 -32 8 -64.5t17.5 -63.5t27.5 -58t37 -48q42 39 75.5 79.5t64 74t61 55t66.5 21.5q28 0 42.5 -15t14.5 -35q0 -19 -12 -33.5t-35 -14.5q-20 0 -31.5 12.5t-11.5 27.5q0 10 3 17t8 15q-4 2 -10 2q-20 0 -46 -21.5t-55 -53.5t-61.5 -69t-66.5 -68q37 -40 88 -63
t107 -23q77 0 133.5 40.5t98.5 103.5z" />
    <glyph glyph-name="quotesingle" unicode="'" horiz-adv-x="222" 
d="M315 616q-24 -29 -40 -44.5t-30 -30.5t-29 -35.5t-36 -57.5l-13 8q21 37 31.5 59.5t17 42t12.5 41t18 57.5q3 9 9.5 18.5t15 16t19 8t22.5 -4.5t16.5 -16t3.5 -21.5t-5.5 -22t-11.5 -18.5z" />
    <glyph glyph-name="parenleft" unicode="(" horiz-adv-x="389" 
d="M719 715q-87 -42 -167.5 -105.5t-149.5 -142.5t-126 -172t-97 -194.5t-62 -209t-22 -215.5h-10q-5 50 -8.5 97t-3.5 95q0 152 50 284t137 240t204.5 191.5t252.5 138.5z" />
    <glyph glyph-name="parenright" unicode=")" horiz-adv-x="389" 
d="M-330 -317q87 42 167.5 105.5t149.5 142.5t126 172t97 194.5t62 209t22 215.5h10q5 -50 8.5 -97t3.5 -95q0 -152 -50 -284t-137 -240t-204.5 -191.5t-252.5 -138.5z" />
    <glyph glyph-name="asterisk" unicode="*" horiz-adv-x="333" 
d="M330 590q5 -10 13 -23.5t16.5 -28.5t14.5 -30t6 -27q0 -16 -10.5 -24.5t-18.5 -8.5q-14 0 -21.5 8t-11 24.5t-4 42.5t-0.5 63l-2 2q-5 -10 -14.5 -27t-22 -33.5t-26.5 -29t-28 -12.5q-11 0 -20 7t-9 22q0 12 13 24.5t31 23t35.5 18.5t26.5 13v2q-71 0 -102.5 6.5
t-31.5 32.5q0 11 8.5 20t20.5 9q9 0 24 -5.5t31 -13.5t30.5 -16.5t21.5 -14.5l2 2q-6 11 -14 26t-15 30.5t-12 31.5t-5 29q0 12 9 19.5t20 7.5q28 0 32.5 -33t4.5 -107h2q4 8 13.5 24.5t22 33t26 29.5t24.5 13q14 0 23 -9t9 -24q0 -11 -14 -23.5t-33 -24t-37 -20t-27 -11.5
v-2q68 -1 104.5 -5.5t36.5 -31.5q0 -14 -9 -22.5t-23 -8.5q-12 0 -27 6t-30 14.5t-28.5 17.5t-22.5 16z" />
    <glyph glyph-name="plus" unicode="+" horiz-adv-x="600" 
d="M363 336l84 8l-109 -165h142l-9 -14h-141l-101 -152l-87 -13l110 165h-143l9 14h142z" />
    <glyph glyph-name="comma" unicode="," horiz-adv-x="278" 
d="M-90 -130q30 0 60.5 8.5t56 25t43.5 40.5t25 56q-7 -4 -14 -5q-5 -1 -16 -1q-19 0 -30 13.5t-11 30.5q0 26 17 39t38 13q29 0 48 -16t19 -46q0 -39 -22.5 -70t-57.5 -52.5t-76.5 -33t-79.5 -12.5v10z" />
    <glyph glyph-name="hyphen" unicode="-" horiz-adv-x="370" 
d="M256 144h-236l43 64h235z" />
    <glyph glyph-name="hyphen" unicode="&#xad;" horiz-adv-x="370" 
d="M256 144h-236l43 64h235z" />
    <glyph glyph-name="period" unicode="." horiz-adv-x="278" 
d="M24 50q0 23 16.5 39.5t39.5 16.5t39.5 -16.5t16.5 -39.5t-16.5 -39.5t-39.5 -16.5t-39.5 16.5t-16.5 39.5z" />
    <glyph glyph-name="slash" unicode="/" horiz-adv-x="278" 
d="M-11 -16l331 738h51l-331 -738h-51z" />
    <glyph glyph-name="zero" unicode="0" horiz-adv-x="537" 
d="M552 396q0 -44 -18 -91.5t-48.5 -93t-71.5 -86t-86.5 -71t-93 -48.5t-92.5 -18q-65 0 -99.5 40t-34.5 103q0 47 18 96t48.5 94.5t71.5 85.5t86.5 69.5t93.5 46.5t92 17q65 0 99.5 -40.5t34.5 -103.5zM456 394q0 22 -3 45t-12 41.5t-24 30t-39 11.5q-37 -1 -71.5 -20
t-65 -49.5t-56 -69.5t-43.5 -81t-28 -84t-10 -78q0 -22 4.5 -45t15 -41.5t28.5 -30t44 -11.5q36 0 69.5 19.5t62.5 51t52.5 72t40.5 83t26 83.5t9 73z" />
    <glyph glyph-name="one" unicode="1" horiz-adv-x="426" 
d="M52 346q115 26 219 76.5t197 117.5l7 -6q-40 -64 -82.5 -130.5t-84 -132.5t-81.5 -131t-75 -126l95 5l-4 -7q-103 -9 -207 -12l279 431l-2 2q-60 -31 -125 -55t-133 -41z" />
    <glyph glyph-name="two" unicode="2" horiz-adv-x="537" 
d="M479 178q-19 -34 -40.5 -68t-49 -61t-62 -44t-78.5 -17q-30 0 -58.5 10.5t-55.5 23.5q-28 12 -53.5 22.5t-51.5 10.5q-22 0 -34.5 -10.5t-20.5 -22.5q-9 -13 -16.5 -23.5t-21.5 -10.5q-5 0 -7.5 3.5t-2.5 8.5q0 11 23.5 28.5t59.5 38.5t79.5 43t84 41t71.5 34t43 21
q27 14 51.5 33.5t43.5 43.5t30 53t11 63q0 27 -9 50t-24.5 39t-35.5 25t-43 9t-42.5 -9t-33 -24t-21 -34t-7.5 -39q0 -32 15.5 -54.5t48.5 -22.5q22 0 40 13q-22 -71 -91 -71q-35 0 -59 22.5t-24 67.5q0 28 14 58t42 54.5t68.5 40.5t93.5 16q30 0 59 -8.5t52.5 -25.5t38 -43
t14.5 -62q0 -45 -20 -79.5t-52 -61t-73 -46t-83.5 -35.5t-83 -30t-71.5 -29l-46 -22t-43 -22l2 -2q42 16 88 16q28 0 53.5 -6t49 -13t45 -13t42.5 -6q26 0 47.5 13t40 33t33 43t25.5 42z" />
    <glyph glyph-name="three" unicode="3" horiz-adv-x="537" 
d="M210 278q39 2 84 8t83 22.5t63.5 46.5t25.5 80q0 38 -24.5 62.5t-62.5 24.5q-37 0 -60 -25.5t-23 -61.5q0 -23 15 -38t35 -15q13 0 22 4t15 9q-10 -29 -33.5 -46t-53.5 -17q-34 0 -52 21.5t-18 53.5q0 21 11 44.5t34.5 43t58.5 32.5t83 13q27 0 52.5 -5.5t45.5 -18
t32.5 -32t12.5 -47.5q0 -44 -25 -72t-62 -45t-78.5 -25.5t-74.5 -14.5v-2q25 0 50.5 -4.5t46 -16t33.5 -31t13 -49.5q0 -55 -28.5 -91.5t-70 -58t-88.5 -30.5t-85 -9q-42 0 -79 7.5t-64 24t-42.5 42.5t-15.5 62q0 43 28.5 72t71.5 29q27 0 47.5 -12t39.5 -30l-4 -7
q-6 2 -13.5 3.5t-16.5 1.5q-35 0 -52 -25.5t-17 -56.5q0 -47 34.5 -73t82.5 -26q40 0 72.5 15.5t55.5 41t35.5 58t12.5 65.5q0 50 -29.5 70t-78.5 20q-14 0 -25.5 -1.5t-22.5 -3.5z" />
    <glyph glyph-name="four" unicode="4" horiz-adv-x="537" 
d="M152 0l124 186h-284l508 432h53l-520 -412v-2h253l189 308l111 13q-55 -78 -105.5 -159t-102.5 -162h119l-8 -18h-121q-26 -45 -53.5 -89t-52.5 -91z" />
    <glyph glyph-name="five" unicode="5" horiz-adv-x="537" 
d="M195 176q-12 5 -21.5 7t-22.5 2q-18 0 -30.5 -7.5t-20.5 -19.5t-12 -27t-4 -31q0 -24 9.5 -43t25.5 -31.5t36.5 -19t42.5 -6.5q40 0 71 19t52.5 49t33 67t11.5 73q0 48 -25 74t-70 27q-30 0 -62 -13t-58 -31l-8 7l228 268q26 -20 53.5 -31t60.5 -11q26 0 51 7.5t46 22.5
l4 -6q-34 -33 -76.5 -60.5t-92.5 -27.5q-24 0 -48 6.5t-44 20.5l-139 -161l2 -2q32 17 62.5 23t65.5 6q32 0 58.5 -9t46 -25.5t30.5 -39.5t11 -50q0 -53 -24.5 -93t-63 -67t-86.5 -41t-95 -14q-32 0 -66 6.5t-62.5 22.5t-46.5 42t-18 65q0 48 31 75.5t78 27.5q26 0 49 -14
t40 -31z" />
    <glyph glyph-name="six" unicode="6" horiz-adv-x="537" 
d="M201 321q30 38 67 64.5t92 26.5q59 0 89 -35t30 -87q0 -55 -25.5 -109t-66.5 -97t-93.5 -69.5t-105.5 -26.5q-66 0 -98 39.5t-32 104.5q0 66 24.5 133t67.5 129.5t100 117.5t122.5 96t135.5 64.5t138 23.5q33 0 62 -6t50 -18t33.5 -31t12.5 -45q0 -33 -20 -51.5
t-50 -26.5q2 14 3 26.5t1 26.5q0 29 -10 50t-27 35t-38.5 21t-44.5 7q-40 0 -81.5 -18t-82.5 -48t-79.5 -68.5t-71.5 -78.5t-59.5 -78.5t-44.5 -69.5zM395 300q0 17 -3.5 33.5t-11.5 30t-21 22t-33 8.5q-27 0 -60 -23.5t-62 -64t-48.5 -95.5t-19.5 -117q0 -42 15.5 -68
t54.5 -26q28 0 53 16t46 42t37.5 58.5t28.5 66t18 64.5t6 53z" />
    <glyph glyph-name="seven" unicode="7" horiz-adv-x="537" 
d="M241 570l-42 -79l4 -1q14 12 27 21.5t28 15.5q27 13 64 13q22 0 44 -6.5t44 -14.5t43.5 -14.5t42.5 -6.5q28 0 52 12t44 30l7 -5q-123 -160 -241.5 -320.5t-228.5 -329.5l-126 -9l549 614l-4 2q-34 -23 -62.5 -37.5t-70.5 -14.5q-23 0 -47.5 6.5t-48.5 14.5t-45 14.5
t-38 6.5q-34 0 -48.5 -14.5t-22 -32t-13 -32t-21.5 -14.5q-5 0 -10 4t-5 10q0 15 19.5 30.5t39.5 33.5q5 4 12 16.5t15.5 28.5t16.5 32.5t15 28.5z" />
    <glyph glyph-name="eight" unicode="8" horiz-adv-x="537" 
d="M405 310q30 3 54 17t40.5 35t25 47.5t8.5 55.5q0 27 -5.5 54t-18.5 49t-34.5 36t-53.5 14q-25 0 -44.5 -11.5t-32.5 -29.5t-19.5 -40.5t-6.5 -45.5q0 -39 15 -78t33 -78t32.5 -78t14.5 -77q0 -95 -59.5 -143.5t-162.5 -48.5q-82 0 -130.5 46t-48.5 124q0 54 21 89.5
t55.5 58.5t77.5 35.5t88 19.5q-20 46 -20 99q0 39 18 70.5t46.5 53.5t64.5 34t72 12q35 0 65.5 -11t53 -31t36 -48.5t13.5 -64.5q0 -41 -17 -72.5t-44.5 -53.5t-63 -33.5t-72.5 -13.5zM329 153q0 27 -7.5 52.5t-19 50.5t-24 49t-22.5 48q-78 -10 -123 -56.5t-45 -132.5
q0 -35 10 -65t26.5 -52t38.5 -34.5t46 -12.5q31 0 53.5 14.5t37.5 36.5t22 49.5t7 52.5z" />
    <glyph glyph-name="nine" unicode="9" horiz-adv-x="537" 
d="M165 233q0 -16 3 -33t11 -30.5t21 -22t33 -8.5q41 0 76 30t61 74t41 93.5t15 89.5q0 57 -18.5 79.5t-45.5 22.5q-48 0 -84.5 -31.5t-61.5 -77.5t-38 -96.5t-13 -89.5zM368 219q-30 -43 -71.5 -73.5t-100.5 -30.5q-55 0 -85 35.5t-30 87.5q0 48 25.5 101.5t65.5 98
t89.5 73.5t97.5 29q61 0 99 -36.5t38 -113.5q0 -74 -29 -148t-78 -142t-114 -127t-136 -102t-144 -68t-139 -25q-43 0 -79.5 7t-63.5 22t-42.5 39t-15.5 59q0 23 14 42t43 25q6 -40 18.5 -73.5t33 -57.5t48.5 -37.5t64 -13.5q50 0 101 21.5t99 56.5t92.5 80t83 92.5
t68.5 93.5t50 83z" />
    <glyph glyph-name="colon" unicode=":" horiz-adv-x="278" 
d="M168 296q0 23 16.5 39.5t39.5 16.5t39.5 -16.5t16.5 -39.5t-16.5 -39.5t-39.5 -16.5t-39.5 16.5t-16.5 39.5zM24 50q0 23 16.5 39.5t39.5 16.5t39.5 -16.5t16.5 -39.5t-16.5 -39.5t-39.5 -16.5t-39.5 16.5t-16.5 39.5z" />
    <glyph glyph-name="semicolon" unicode=";" horiz-adv-x="278" 
d="M-90 -130q30 0 60.5 8.5t56 25t43.5 40.5t25 56q-7 -4 -14 -5q-5 -1 -16 -1q-19 0 -30 13.5t-11 30.5q0 26 17 39t38 13q29 0 48 -16t19 -46q0 -39 -22.5 -70t-57.5 -52.5t-76.5 -33t-79.5 -12.5v10zM168 296q0 23 16.5 39.5t39.5 16.5t39.5 -16.5t16.5 -39.5
t-16.5 -39.5t-39.5 -16.5t-39.5 16.5t-16.5 39.5z" />
    <glyph glyph-name="semicolon" unicode="&#x37e;" horiz-adv-x="278" 
d="M-90 -130q30 0 60.5 8.5t56 25t43.5 40.5t25 56q-7 -4 -14 -5q-5 -1 -16 -1q-19 0 -30 13.5t-11 30.5q0 26 17 39t38 13q29 0 48 -16t19 -46q0 -39 -22.5 -70t-57.5 -52.5t-76.5 -33t-79.5 -12.5v10zM168 296q0 23 16.5 39.5t39.5 16.5t39.5 -16.5t16.5 -39.5
t-16.5 -39.5t-39.5 -16.5t-39.5 16.5t-16.5 39.5z" />
    <glyph glyph-name="less" unicode="&#x3c;" horiz-adv-x="600" 
d="M580 358q-45 -23 -98 -47.5t-104.5 -47t-99 -41.5t-82.5 -32l259 -131l-52 -37l-279 144v8q57 21 120 46.5t124 51.5t115 50.5t93 44.5z" />
    <glyph glyph-name="equal" unicode="=" horiz-adv-x="600" 
d="M546 242h-344l8 13h344zM460 110h-344l8 13h344z" />
    <glyph glyph-name="greater" unicode="&#x3e;" horiz-adv-x="600" 
d="M542 197l-1 -9l-502 -204l-5 12l428 173l-305 142l51 47z" />
    <glyph glyph-name="question" unicode="?" 
d="M171 124q19 27 46 47.5t56 38t57.5 35t51 39.5t36.5 50.5t14 68.5q0 61 -28.5 90t-78.5 29q-20 0 -40 -8t-35.5 -23t-25.5 -36.5t-10 -47.5q0 -32 17.5 -53t44.5 -21q10 0 20 4t18 9q-7 -31 -29 -48t-54 -17q-40 0 -61.5 26t-21.5 64q0 27 15 56.5t42.5 54.5t66 41.5
t86.5 16.5q79 0 121.5 -37.5t42.5 -91.5q0 -49 -19.5 -81.5t-50.5 -55.5t-69.5 -39.5t-76.5 -33t-72.5 -35.5t-56.5 -47zM140 100q23 0 39.5 -16.5t16.5 -39.5t-16.5 -39.5t-39.5 -16.5t-39.5 16.5t-16.5 39.5t16.5 39.5t39.5 16.5z" />
    <glyph glyph-name="at" unicode="@" horiz-adv-x="800" 
d="M331 206q-14 -45 -6.5 -64.5t22.5 -19.5q17 0 45.5 21.5t56 53.5t47.5 70.5t20 71.5q-1 17 -11.5 26.5t-25.5 9.5q-20 0 -44 -15.5t-45.5 -39.5t-37.5 -54t-21 -60zM827 299q-28 -53 -71 -92t-90.5 -65t-94 -39t-80.5 -13q-29 0 -41.5 12.5t-12.5 29.5q0 11 3.5 22
t8.5 23q-1 0 -1 0.5t-1 0.5q-11 -12 -26.5 -26.5t-33.5 -27.5t-37 -22t-38 -9q-37 0 -50.5 29.5t-4.5 70.5q7 39 29.5 74t52.5 62t64 42.5t66 15.5q20 0 33 -5t21.5 -12.5t13 -18t6.5 -20.5h2l27 48h74q-30 -42 -58 -81t-49.5 -72t-34.5 -58.5t-13 -39.5q0 -23 22 -23
q45 0 99 44.5t108 132.5q28 46 36.5 97.5t-8 95t-61.5 72.5t-123 29q-70 0 -129.5 -21t-108.5 -56t-87 -81.5t-65 -98.5q-36 -68 -43.5 -140t14 -131.5t73 -98t133.5 -38.5q91 0 176 32t158.5 83.5t133.5 115.5t101 128l11 -4q-34 -59 -94 -124.5t-138.5 -120.5
t-171.5 -90.5t-193 -35.5q-105 0 -173 39t-100.5 99t-31 131t33.5 136q38 76 95.5 130.5t127.5 90t147.5 52.5t155.5 17q72 0 131 -22.5t94 -62t40.5 -92.5t-27.5 -114z" />
    <glyph glyph-name="A" unicode="A" horiz-adv-x="870" 
d="M1037 729q-76 -86 -145.5 -175.5t-122 -176.5t-84 -167.5t-31.5 -149.5q0 -26 9 -37t24 -11q29 0 76 32t97 83q16 17 33.5 36.5t34 39t30 36.5t22.5 28l8 -5q-23 -30 -52.5 -67.5t-77.5 -85.5q-51 -51 -101.5 -85t-101.5 -34q-25 0 -41.5 8t-26 21.5t-13.5 30.5t-4 36
q0 61 20 117.5t47 107.5h-140q-41 -48 -91.5 -103t-108.5 -101.5t-122 -77.5t-133 -31q-30 0 -57.5 7t-49.5 21.5t-35 36.5t-13 53q0 29 16 53t48 24q20 0 34 -12.5t14 -30.5q0 -27 -16 -39t-42 -12q0 -21 10 -38t25 -28t34 -17t37 -6q45 0 88.5 15.5t85.5 41.5t81 60t75 70
t68 72.5t59 66.5q55 62 114.5 122.5t124.5 114t136.5 96t150.5 66.5zM643 323q56 99 127 188t155 167l-2 2q-118 -62 -217.5 -154t-197.5 -203h135z" />
    <glyph glyph-name="B" unicode="B" horiz-adv-x="981" 
d="M485 486q2 -12 4.5 -31.5t2.5 -40.5q0 -46 -13 -88.5t-39.5 -75t-65.5 -51.5t-91 -19q-38 0 -68 12.5t-50.5 35t-31.5 53.5t-11 68q0 55 23 104t62 90t90.5 74.5t108.5 56.5t116.5 35.5t113.5 12.5q67 0 125 -12t114 -35q39 17 79.5 31t83.5 16l2 -6q-14 0 -34 -5
t-40.5 -13t-38.5 -17.5t-27 -18.5q38 -22 61 -56.5t23 -79.5q0 -43 -21.5 -73.5t-54 -51t-71 -32t-73.5 -17.5l-1 -2q31 -4 60.5 -9.5t53 -18.5t37.5 -36.5t14 -62.5q0 -55 -23.5 -99.5t-62.5 -75.5t-88 -47.5t-100 -16.5q-21 0 -43 5.5t-39.5 16.5t-29 28t-11.5 40
q0 26 18 45t44 19q30 0 53 -20q-20 -12 -29.5 -30t-9.5 -40q0 -26 14 -39t40 -13q39 0 71 21.5t54 54t34 71.5t12 74q0 66 -34.5 96.5t-106.5 30.5l1 8q37 2 73 13.5t64.5 33t46.5 54t18 77.5q0 28 -10 53.5t-32 44.5q-50 -40 -90 -103t-79.5 -134.5t-82.5 -144t-98.5 -131
t-128.5 -95t-172 -36.5q-32 0 -62.5 8.5t-54.5 25t-39 40.5t-15 55q0 29 15.5 50t47.5 21q23 0 36.5 -14t13.5 -35q0 -19 -12 -32t-24 -15q-1 -4 -1 -12q0 -41 26.5 -60.5t77.5 -19.5q68 0 119.5 37t94.5 96.5t83 133t85.5 146t101.5 137t131 104.5q-40 31 -92 45.5
t-103 14.5q-71 0 -147 -25t-138.5 -72.5t-102.5 -115t-40 -152.5q0 -24 6.5 -50t20.5 -47.5t35 -35.5t49 -14q39 0 69.5 17.5t52.5 47t33.5 68t11.5 79.5q0 24 -2 41.5t-4 33.5z" />
    <glyph glyph-name="C" unicode="C" horiz-adv-x="667" 
d="M542 578q-5 -9 -7.5 -22t-2.5 -24q0 -32 20 -50.5t51 -18.5q32 0 61.5 16t52 41.5t35.5 57t13 62.5q0 22 -9.5 35.5t-24 21t-30 10.5t-27.5 3q-52 0 -109 -23t-112.5 -62.5t-105.5 -92.5t-88 -114t-60.5 -126t-22.5 -128q0 -37 8.5 -67.5t25.5 -53t42 -35t58 -12.5
q43 0 84 19t73.5 51.5t52 75t19.5 88.5q0 41 -17 69t-61 28q-23 0 -44 -12t-40 -29.5t-34 -37t-26 -35.5l-10 5q17 26 37 49.5t43.5 42.5t51.5 30t62 11q52 0 85 -31.5t33 -82.5q0 -61 -30.5 -108t-79 -79t-108 -49t-117.5 -17q-100 0 -155 57t-55 156q0 64 27 128
t72.5 122.5t106 108.5t127.5 87t136 58t132 21q29 0 56 -6t48 -19.5t33.5 -36.5t12.5 -57q0 -37 -18 -66.5t-46.5 -49.5t-63.5 -31t-68 -11q-21 0 -40.5 5t-34.5 15.5t-24.5 27t-9.5 39.5q0 14 4 28t8 21z" />
    <glyph glyph-name="D" unicode="D" horiz-adv-x="944" 
d="M1008 718q-55 -5 -102 -29t-89 -59q100 -93 100 -232q0 -100 -41.5 -176.5t-111 -128t-160 -77.5t-188.5 -26q-46 0 -96.5 7t-90.5 15q-22 -3 -49.5 -7.5t-70.5 -4.5q-42 0 -58.5 9.5t-16.5 19.5q0 11 8.5 15t29.5 4q20 0 61 -8t96 -16q57 10 101.5 49.5t82.5 96
t74 123.5t77 132.5t91 122.5t115 93q-40 35 -96 52t-110 17q-79 0 -151.5 -26t-127 -74t-87 -115.5t-32.5 -150.5q0 -27 7 -53t21 -47t36.5 -33.5t52.5 -12.5q47 0 82.5 26.5t59.5 68.5t36.5 93.5t13.5 101.5h12q-3 -81 -24 -140.5t-55 -99t-77 -59t-90 -19.5
q-36 0 -64.5 14t-48.5 37.5t-31 54t-11 64.5q0 53 19 102.5t52 92t77.5 77t95.5 59t106 38t108 13.5q38 0 69.5 -3.5t60.5 -11.5t57 -21.5t59 -33.5q49 31 105 48.5t113 25.5v-8zM837 472q0 38 -8 75t-33 66q-54 -58 -91.5 -117.5t-68.5 -117.5t-62.5 -112t-73.5 -101
t-101 -84t-147 -61v-2q12 -3 56 -9.5t104 -6.5q91 -1 168.5 40t134.5 108t89.5 151.5t32.5 170.5z" />
    <glyph glyph-name="E" unicode="E" horiz-adv-x="685" 
d="M500 486q22 -8 46 -8q63 0 99.5 33t36.5 99q0 47 -25 73.5t-73 26.5q-29 0 -52.5 -11.5t-40.5 -30.5t-27.5 -44t-14.5 -51q-6 -35 -11.5 -61t-17 -46.5t-31.5 -37t-55 -33.5q-40 -19 -73 -38.5t-56 -45t-36 -60.5t-13 -85q0 -40 16.5 -70.5t43.5 -51.5t61.5 -31.5
t71.5 -10.5q39 0 74 11.5t62 34t43 55.5t16 75t-21.5 66t-63.5 24q-37 0 -66.5 -19t-53.5 -45l-7 5q36 37 75.5 57t92.5 20q27 0 50 -7.5t40.5 -22t27.5 -36t10 -48.5q0 -52 -36 -88t-88.5 -58.5t-110.5 -32t-102 -9.5q-41 0 -83.5 8.5t-76.5 28.5t-55.5 53t-21.5 83
q0 49 20 81.5t50.5 55.5t66 40t66.5 35t52 40t23 55q4 72 25.5 121.5t56.5 79.5t81 43.5t97 13.5q27 0 56 -5t52.5 -18t38.5 -35t15 -55q0 -36 -16.5 -62.5t-42.5 -44.5t-58 -27t-64 -9q-19 0 -37.5 2.5t-36.5 8.5z" />
    <glyph glyph-name="F" unicode="F" horiz-adv-x="796" 
d="M492 326v12h50q29 57 63.5 105t77.5 85.5t95.5 63.5t117.5 39v2q-66 0 -130.5 2t-130.5 2q-47 0 -103 -3.5t-113 -12.5t-109.5 -24t-93.5 -38t-65.5 -54.5t-24.5 -74.5q0 -29 16 -50t40 -34.5t52.5 -19.5t53.5 -6q52 0 96 13t75.5 38.5t49 62t17.5 84.5v17t-1 11h12
q0 -8 0.5 -15t0.5 -14q0 -51 -20.5 -95.5t-55.5 -77t-80.5 -51.5t-96.5 -19q-31 0 -61.5 9.5t-55 27.5t-39.5 45t-15 61q0 57 27.5 94.5t68.5 65.5q61 42 129.5 67.5t140.5 39t145.5 18t142.5 4.5q41 0 85 -2t84.5 -4.5t74 -4.5t54.5 -3q27 -1 38.5 -9t11.5 -28
q0 -17 -19.5 -27t-62.5 -10q-31 0 -61.5 2.5t-62.5 2.5q-31 0 -59 -14.5t-54 -38.5t-48.5 -54.5t-42 -62t-35.5 -62t-28 -53.5q19 2 40.5 2.5t41 5.5t35.5 16t24 32q27 2 54.5 3t54.5 1q-33 -25 -66.5 -51.5t-63.5 -56.5t-54.5 -64t-40.5 -73h-8q16 49 38 94.5t49 87.5
q-10 -2 -24.5 -3.5t-30 -2.5t-30 -2t-24.5 -1q-40 -65 -82.5 -126t-95 -107.5t-118.5 -74.5t-153 -28q-30 0 -65.5 7.5t-66 23.5t-51 42t-20.5 63q0 28 17 49.5t44 21.5q22 0 37 -12.5t15 -35.5q0 -15 -9 -28.5t-28 -15.5q2 -28 12.5 -48t28 -32t40.5 -17.5t48 -5.5
q67 0 118 32.5t91.5 81t73 105.5t62.5 105h-44z" />
    <glyph glyph-name="G" unicode="G" horiz-adv-x="630" 
d="M474 788q-28 -7 -46 -32t-18 -54q0 -13 1.5 -26.5t6.5 -24.5q27 14 60 27t69 22.5t73 15.5t71 6q77 0 118.5 -22t41.5 -70q0 -35 -21.5 -57.5t-53 -35.5t-66.5 -18t-61 -5q-69 0 -122 21t-97 73q-31 -24 -62 -57t-56 -71.5t-40 -81t-15 -84.5q0 -23 4.5 -43.5t15.5 -35.5
t28.5 -24t42.5 -9q21 0 46 9t48.5 24t42.5 33.5t28 37.5l20.5 41t22 33.5t30.5 22.5t45 8q31 0 31 -11q0 -13 -9.5 -30.5t-21.5 -35.5t-23.5 -33.5t-15.5 -26.5q-9 -24 -27.5 -55t-44.5 -63t-60.5 -63t-76 -55t-90.5 -39t-105 -15q-30 0 -62 6.5t-57.5 21.5t-42 39.5
t-16.5 59.5q0 32 14.5 57t48.5 25q19 0 35 -11t16 -39q0 -32 -36 -40q-1 -7 -2.5 -14t-1.5 -15q0 -26 9.5 -41.5t25.5 -23.5t36.5 -10.5t42.5 -2.5q54 0 98 27.5t80 68.5t65.5 88t54.5 85l-2 2q-20 -18 -43.5 -34t-49 -28t-53 -19.5t-55.5 -7.5q-66 0 -102 40t-36 104
q0 56 22.5 104.5t58.5 89t80.5 73.5t89.5 58q-3 11 -5.5 21t-2.5 25q0 38 20.5 65.5t55.5 37.5v-8zM787 645q0 30 -21.5 47.5t-80.5 17.5q-28 0 -62 -8t-68.5 -21.5t-65 -31t-51.5 -35.5q35 -42 76.5 -62t97.5 -20q37 0 69 9t55.5 24.5t37 36t13.5 43.5z" />
    <glyph glyph-name="H" unicode="H" horiz-adv-x="944" 
d="M725 362q36 70 89 132.5t116.5 109.5t135.5 74.5t146 27.5q18 0 38.5 -3.5t37 -11.5t27.5 -20.5t11 -30.5t-12.5 -27t-29.5 -9q-18 0 -29 13t-21.5 29t-23.5 29t-36 13q-37 0 -69.5 -13t-60 -32.5t-51 -42t-42.5 -42.5q-37 -40 -74 -96t-65.5 -118.5t-46.5 -126
t-18 -119.5q0 -13 2.5 -26.5t8.5 -24.5t16 -18t25 -7q19 0 42 14.5t48 38t50.5 51.5t47.5 55.5t40 50.5t28 36l9 -7q-25 -32 -61.5 -79.5t-79.5 -91.5t-89 -75t-90 -31q-27 0 -45 10t-28.5 26.5t-15 38t-4.5 45.5q0 63 20 127.5t47 118.5h-149q-36 -72 -79 -137t-97 -114.5
t-122.5 -79t-156.5 -29.5q-25 0 -56 6.5t-58.5 21t-45.5 37t-18 54.5q0 14 3.5 28.5t11 26t19 18.5t28.5 7q20 0 34 -13.5t14 -33.5q0 -42 -38 -45q0 -49 24.5 -72t71.5 -23q56 0 97.5 17.5t82.5 58.5q59 59 95.5 117.5t66 115.5t59 111t73.5 103t110.5 93t169.5 80v2
q-56 0 -125.5 -4.5t-141.5 -15.5t-140 -30t-121 -49.5t-85.5 -72.5t-32.5 -100q0 -42 23 -69.5t64 -27.5q29 0 54.5 11t45 31t31 47t11.5 59q0 16 -4 31.5t-9 26.5l10 2q6 -11 10.5 -28t4.5 -32q0 -43 -17 -75t-44.5 -53.5t-63.5 -32.5t-75 -11q-55 0 -90 34t-35 90t31.5 99
t85 74t122.5 52t144 33.5t150.5 17.5t140.5 5q42 0 69 1.5t45 3.5t29.5 3.5t21.5 1.5q8 0 12.5 -3t4.5 -6q0 -8 -9.5 -11.5t-42.5 -3.5q-11 0 -20.5 1t-21.5 1q-61 -17 -107 -52t-82 -80.5t-66 -99t-60 -106.5h150z" />
    <glyph glyph-name="I" unicode="I" horiz-adv-x="611" 
d="M437 521q6 -12 11 -27t5 -32q0 -39 -16 -70t-42.5 -52.5t-61.5 -32.5t-73 -11q-29 0 -54 9t-43.5 26t-29 41t-10.5 54q0 61 35 106t93 77t132 52t152 31.5t153.5 15.5t135.5 4q68 0 107.5 5t60.5 5q11 0 20.5 -4t9.5 -12q0 -9 -10.5 -12.5t-22.5 -3.5q-3 0 -12.5 0.5
t-22.5 1.5l-26 2t-22 2q-63 -26 -108 -62.5t-80 -80t-62.5 -91.5t-54.5 -98t-56.5 -100t-68.5 -97q-65 -78 -147.5 -127.5t-183.5 -49.5q-29 0 -63.5 6t-64.5 20.5t-50 39t-20 61.5q0 28 16 50t46 22q23 0 37 -13.5t14 -35.5q0 -20 -9 -30.5t-32 -15.5q0 -48 29 -70t79 -22
q69 0 122.5 33.5t97.5 88t83.5 123.5t79.5 140q30 53 61.5 97t73.5 82t100.5 70.5t142.5 61.5v2q-45 0 -113 -2.5t-143.5 -11.5t-151.5 -26.5t-136.5 -48.5t-98.5 -78t-38 -115q0 -45 25.5 -71.5t69.5 -26.5q26 0 51 10.5t44.5 29.5t31.5 45t12 57q0 15 -4 29.5t-10 27.5z
" />
    <glyph glyph-name="J" unicode="J" horiz-adv-x="611" 
d="M729 261q-34 -43 -64.5 -76t-65 -57.5t-76 -43.5t-98.5 -35q-40 -66 -87 -128.5t-103.5 -110.5t-125.5 -77t-154 -29q-28 0 -57 6.5t-53 20.5t-39 37t-15 56q0 45 28 76.5t73.5 52t103 33t116 21.5t113 15.5t94.5 15.5q42 71 78 140t72.5 133t76 122t89 107.5t111.5 89.5
t144 68v2q-49 0 -118 -2.5t-144.5 -12t-149.5 -27.5t-133 -48.5t-95.5 -75.5t-36.5 -109q0 -50 24 -77.5t72 -27.5q26 0 50 10.5t43.5 29.5t31 44.5t11.5 56.5q0 14 -3 28t-9 27l10 3q6 -12 10 -27.5t4 -32.5q0 -33 -14 -63t-38.5 -52t-58.5 -35t-75 -13q-31 0 -57 10
t-45 27t-29.5 41t-10.5 52q0 51 26 90t69 68.5t99 50.5t116.5 35t120 22.5t110.5 13t88 5.5t52 1q69 0 114 5t76 5q8 0 14.5 -3.5t6.5 -11.5t-8.5 -11.5t-33.5 -3.5q-16 0 -31.5 1t-31.5 2q-55 -11 -104.5 -51.5t-94.5 -98t-85.5 -126t-76 -135t-67 -124.5t-58.5 -96l1 1
l2 -2q52 15 91 33.5t71.5 42.5t62.5 55.5t64 73.5zM-125 -182q0 -48 29.5 -75t77.5 -27q41 0 76.5 15t65.5 40t56 57t49 66.5t44 69t40 63.5q-25 -7 -67.5 -13t-91 -14t-98.5 -20.5t-90 -33t-65.5 -52t-25.5 -76.5z" />
    <glyph glyph-name="K" unicode="K" horiz-adv-x="907" 
d="M445 536q5 -11 11 -26.5t6 -36.5q0 -36 -16 -66.5t-43 -52.5t-62 -34t-72 -12q-28 0 -52 9t-42 25.5t-28 40t-10 52.5q0 61 39 105.5t101 75.5t139.5 50.5t154.5 30.5t146.5 15t114.5 4q56 0 95.5 3t55.5 3q8 0 18 -2t10 -9q0 -10 -10 -13.5t-19 -3.5q-24 0 -46.5 2
t-39.5 4q-16 -3 -47 -17.5t-56 -35.5q-51 -44 -87.5 -89.5t-66.5 -95t-59 -104t-65 -115.5q-28 -47 -64.5 -92.5t-84 -81t-107.5 -57.5t-135 -22q-30 0 -61.5 6t-58 21t-43.5 39.5t-17 60.5q0 27 15 49.5t45 22.5q21 0 36 -14.5t15 -35.5q0 -19 -11 -29t-28 -13
q1 -53 27 -74t75 -21q50 0 92.5 20t78 53.5t66 75.5t56 86t47.5 86t42 74q38 62 73 108t77.5 81.5t96 63t127.5 52.5v2q-48 0 -115 -3.5t-139.5 -13.5t-144 -28.5t-128 -49t-91.5 -75t-35 -105.5q0 -42 23.5 -69.5t65.5 -27.5q28 0 53 12.5t44.5 33t31 46t11.5 51.5
q0 15 -4 29t-11 28zM1026 261q-14 -20 -36 -48.5t-48.5 -59.5t-57 -62t-62.5 -55t-64.5 -38.5t-62.5 -13.5q-35 0 -57 22.5t-22 56.5q0 32 13.5 63.5t30.5 63.5q16 31 29.5 59.5t13.5 51.5q0 32 -15.5 45.5t-44.5 13.5q-5 0 -11 -1t-12 -1q-3 0 -7.5 0.5t-4.5 5.5t6.5 7
t11.5 2q11 0 21.5 -1.5t21.5 -1.5q50 0 91.5 25.5t80.5 63.5t78.5 82t84.5 82t99.5 63.5t122.5 25.5q20 0 38.5 -4t32.5 -13t23 -23t9 -33q0 -22 -8 -37t-21.5 -24t-31.5 -12t-37 -3q8 21 15 42.5t7 44.5q0 24 -10.5 37t-35.5 13q-29 0 -57 -25t-59.5 -62.5t-70 -81.5
t-88.5 -81.5t-113.5 -62.5t-145.5 -25v-2q45 -18 66.5 -47t21.5 -75q0 -25 -9.5 -54t-21 -56.5t-21 -52t-9.5 -41.5q0 -32 25 -32q11 0 31 9t47.5 28.5t61.5 50.5t73 76q27 32 45.5 56t35.5 46z" />
    <glyph glyph-name="L" unicode="L" horiz-adv-x="574" 
d="M685 252q-39 -35 -88.5 -80t-99.5 -92.5t-96.5 -94.5t-80.5 -85q-4 -18 -12 -34.5t-20 -28.5t-26.5 -19.5t-30.5 -7.5q-5 0 -13.5 1t-8.5 9q0 6 4 9.5t9.5 9.5t9.5 17t4 32q0 40 -16.5 64.5t-41 38t-53 17.5t-53.5 4q-13 0 -35 -6t-47.5 -13t-52 -13t-49.5 -6
q-18 0 -34 2.5t-16 17.5q0 10 7 16t29.5 9.5t64 5t111.5 1.5q47 0 89 33.5t82.5 90.5t81 131.5t84.5 156.5q-27 7 -55 18t-51.5 29t-38.5 44.5t-15 62.5q0 51 30.5 82.5t87.5 31.5q15 0 29 -2.5t24 -8.5l-4 -9q-11 4 -22.5 6t-25.5 2q-28 0 -48.5 -8.5t-33.5 -23t-19 -33
t-6 -38.5q0 -28 12.5 -51.5t34 -41.5t49.5 -30.5t59 -18.5q27 54 69.5 103t95.5 87t114 60.5t125 22.5q21 0 42.5 -4t39 -13.5t29 -26t11.5 -41.5q0 -40 -24 -71t-63 -54.5t-87.5 -39.5t-97.5 -26.5t-93 -15t-75 -4.5q-34 -67 -70 -129t-82 -115t-104 -93.5t-135 -64.5v-2
q30 0 69 -1.5t74 -12t60 -32.5t28 -62q39 42 84.5 88t93 91.5t94 88t87.5 77.5zM844 660q0 20 -13.5 35t-46.5 15q-45 0 -89.5 -28.5t-84.5 -70t-72 -88.5t-53 -85q29 0 67 4t78 13.5t78.5 26t68.5 41t48.5 58.5t18.5 79z" />
    <glyph glyph-name="M" unicode="M" horiz-adv-x="1000" 
d="M949 722q-63 -22 -108 -67t-81 -103t-67 -125.5t-66 -135t-78 -130.5t-102 -113l2 -2q71 46 129.5 107.5t112.5 128t105.5 133.5t108.5 124q44 45 92 79t95.5 57t92.5 35t84 12q38 0 53.5 -4t15.5 -15t-13 -12.5t-21 -1.5q-13 0 -24.5 2.5t-22.5 4.5t-18.5 4t-12.5 2
q-58 -26 -100 -78.5t-78 -119t-71 -140.5t-78.5 -141.5t-100.5 -123t-138 -85.5v-2h9q105 0 176 24t120.5 61t82.5 81.5t60 86.5l8 -5q-28 -48 -64 -94.5t-87 -83t-122.5 -59.5t-170.5 -23q-16 0 -32.5 1t-23.5 1q-6 0 -22 -1t-33 -1q-27 0 -27 12q0 14 21 14q16 0 34.5 -4
t41.5 -8q25 5 53 31.5t56.5 66t55 88t48.5 96.5q25 55 57.5 112t75 110.5t95.5 99.5t118 79l-2 2q-75 -19 -136 -57t-114 -87.5t-99.5 -106.5t-92 -115.5t-93 -115t-101.5 -103.5q-40 -35 -85 -67.5t-94 -54.5l-9 8q46 45 77.5 100.5t58.5 116.5t55 124.5t67.5 125.5
t96.5 119t141 105l-2 2q-73 -27 -133 -71.5t-111 -96t-94.5 -106t-81.5 -102.5q-41 -51 -86 -108t-97.5 -106t-112.5 -81t-131 -32q-26 0 -52 7.5t-47.5 22t-35 36t-13.5 49.5q0 31 15.5 53t48.5 22q19 0 32 -12t13 -31q0 -46 -45 -49q1 -44 29 -62t69 -18q54 0 117.5 30.5
t131.5 101.5q51 53 97.5 112t93.5 118.5t96.5 116t107 104.5t125 84.5t149.5 54.5z" />
    <glyph glyph-name="N" unicode="N" horiz-adv-x="796" 
d="M1055 515q26 6 44.5 24t18.5 51q0 26 -20 45t-58 19q-61 0 -123 -55t-122 -148t-117 -215.5t-109 -257.5l-14 2q2 17 3.5 35t1.5 35q0 65 -10 129t-23 127t-23.5 126.5t-12.5 127.5h-2q-23 -47 -51.5 -108t-62.5 -124.5t-75 -124t-89 -108t-103.5 -76.5t-119.5 -29
q-27 0 -52 8.5t-43.5 25t-30 39.5t-11.5 52q0 30 16.5 50t44.5 20q22 0 36 -12.5t14 -30.5q0 -39 -39 -47q-4 -43 18.5 -65t64.5 -22q54 0 102.5 25.5t91.5 67.5t80.5 95.5t69 109t57.5 108.5t46 94l36 76q6 41 17.5 67.5t24.5 42.5t25.5 22t19.5 6q10 0 10 -8q0 -4 -2.5 -8
t-5 -12t-5 -23t-2.5 -40q0 -51 9 -103.5t20 -107.5t19.5 -112t8.5 -118q0 -22 -3 -43h2q16 40 41.5 96.5t59 119t73.5 124t85 110t94 79t101 30.5q43 0 70 -22t27 -62q0 -25 -11 -45.5t-29 -35.5t-40 -23t-43 -9v6z" />
    <glyph glyph-name="O" unicode="O" horiz-adv-x="741" 
d="M859 262q-39 -35 -83.5 -54t-85.5 -19q-47 0 -85 14q-32 -40 -71 -79.5t-83.5 -70.5t-94.5 -50t-104 -19q-50 0 -83.5 15t-54 40.5t-29 58t-8.5 68.5q0 55 17.5 113t49 112.5t74.5 104t93 87.5t105.5 63t111.5 30q32 30 58.5 38t50.5 8q60 0 88.5 -45t28.5 -115
q0 -44 -12.5 -91.5t-32.5 -93t-45 -88t-50 -76.5q17 -8 35.5 -10t38.5 -2q24 0 47.5 6t45.5 16t40.5 22t31.5 24zM432 452q0 58 22.5 112.5t61.5 96.5l-2 2q-50 -10 -94 -38.5t-81.5 -69t-67 -90.5t-50 -103t-31.5 -105.5t-11 -99.5q0 -30 5 -58t16.5 -49.5t31 -34.5
t48.5 -13q44 0 87 21.5t81.5 53.5t69 70.5t49.5 72.5q-31 17 -56 41.5t-42.5 55t-27 65t-9.5 70.5zM604 557q2 6 3 17t1 20q0 14 -4 27.5t-13 23t-23.5 15t-36.5 4.5q-15 -16 -26 -38.5t-18.5 -48t-11 -52t-3.5 -49.5q0 -33 5 -69t17 -69.5t31.5 -61.5t49.5 -45
q22 36 40.5 78.5t31.5 87t20 89t7 85.5q0 26 -4 49t-13 40.5t-24 27.5t-37 10q-18 0 -31 -6t-23 -16q22 -1 37 -8t24 -18.5t13 -26.5t4 -30q0 -12 -1.5 -20.5t-3.5 -16.5z" />
    <glyph glyph-name="P" unicode="P" horiz-adv-x="815" 
d="M997 743q-30 -5 -59 -15t-56 -24q52 -22 84.5 -62t32.5 -99q0 -43 -21.5 -77.5t-55 -58.5t-74.5 -37t-79 -13t-63 18t-25 44q0 20 14.5 34.5t40.5 14.5q15 0 25 -3t18 -8q-19 -10 -29.5 -24t-10.5 -31t10 -25t23 -8q27 0 52.5 21.5t46 53t32.5 68t12 67.5
q0 38 -11.5 66.5t-40.5 45.5q-58 -40 -103.5 -99.5t-86 -127.5t-81 -138t-89 -131t-108.5 -107t-141 -65v-2q15 -3 35.5 -6.5t41.5 -6.5t41.5 -4.5t36.5 -1.5q156 0 285.5 62.5t225.5 196.5l7 -4q-41 -61 -86 -111.5t-99 -86.5t-119 -55.5t-148 -19.5q-26 0 -57 2.5t-63 7
t-62.5 10t-55.5 12.5q-16 -5 -37.5 -10t-44 -8.5t-44.5 -5.5t-40 -2q-21 0 -43 3t-40 8.5t-29 14t-11 18.5q0 24 50 24q33 0 66.5 -5.5t63.5 -11.5t53.5 -11.5t36.5 -5.5q58 8 101.5 49.5t82.5 102.5t78 135t88.5 147t113.5 137.5t152 107.5v2q-23 6 -53.5 9.5t-72.5 3.5
q-48 0 -103.5 -12t-111.5 -35t-108 -56.5t-92.5 -76.5t-64.5 -95t-24 -112q0 -20 4 -40t13.5 -36.5t25.5 -26.5t39 -10q38 0 68 21t51 51t32 63t11 58v21q0 13 -2 24h12q1 -10 1.5 -19t0.5 -23q0 -34 -14 -73t-41 -71.5t-67 -54t-93 -21.5q-28 0 -50.5 11.5t-38.5 31t-24 44
t-8 51.5q0 53 27.5 103t73.5 94.5t106 81t125 63t131 41.5t123 15q44 0 77 -4.5t68 -12.5q31 12 70 23.5t71 14.5z" />
    <glyph glyph-name="Q" unicode="Q" horiz-adv-x="722" 
d="M-17 44q0 -12 7 -19t17.5 -11t22 -5t21.5 -1q36 0 72 7t69 21q-13 6 -32.5 14.5t-40.5 16t-41 12.5t-34 5q-10 0 -20.5 -1.5t-19.5 -5.5t-15 -12t-6 -21zM597 427q-33 -48 -84 -78t-111 -30q-31 0 -58 10t-47 29t-32 45t-12 57q0 57 31.5 105t79 83t104 54.5t107.5 19.5
q45 0 83.5 -11.5t66.5 -34.5t44 -58.5t16 -82.5q0 -54 -27.5 -105.5t-71.5 -99t-100 -89t-112.5 -75.5t-108.5 -59t-89 -39v-2q28 -5 50 -10t43.5 -8.5t44.5 -5.5t52 -2q70 0 120 17t90.5 47.5t76.5 72.5l78 91l7 -6q-40 -51 -84.5 -102.5t-96 -93.5t-111 -68t-130.5 -26
q-28 0 -56 5.5t-55 14.5t-53 19.5t-52 20.5q-41 -19 -85.5 -30.5t-89.5 -11.5q-10 0 -27.5 1.5t-34.5 6.5t-29.5 13.5t-12.5 23.5q0 16 16 27.5t40.5 19t52.5 11t52 3.5q48 0 97.5 -10t84.5 -17q44 20 92.5 48t96 62.5t90 74t75 83t52 90t19.5 94.5q0 36 -8 69t-26 58.5
t-46 40.5t-69 15q-46 0 -86.5 -17.5t-69.5 -48t-46 -71.5t-17 -88q0 -27 7 -51.5t21 -43.5t36 -30t52 -11q47 0 85.5 25t66.5 63z" />
    <glyph glyph-name="R" unicode="R" horiz-adv-x="907" 
d="M441 536q1 -10 2 -21t1 -22q0 -51 -16 -99t-46.5 -85.5t-74.5 -60t-99 -22.5q-34 0 -63.5 10t-52 29.5t-35.5 47.5t-13 63q0 57 25.5 106t68 89.5t97.5 71.5t113.5 52t117.5 32t108 11q35 0 66 -1t61 -5t60 -11.5t64 -19.5q33 12 66 20.5t62 8.5v-8q-27 -4 -53.5 -11.5
t-50.5 -20.5q37 -22 63.5 -57t26.5 -80q0 -50 -24 -85t-61.5 -57t-82.5 -32.5t-87 -12.5v-2q30 -13 53.5 -38t23.5 -63q0 -31 -9.5 -62t-20.5 -60.5t-20.5 -56.5t-9.5 -51q0 -31 23 -31q29 0 69 25t85 70q22 22 42.5 46t39 46.5t33 42.5t24.5 33l8 -7q-25 -35 -59 -78
t-72 -83q-50 -51 -98 -82t-101 -31q-38 0 -60 21t-22 56q0 32 12.5 67t27.5 69t27.5 63t12.5 47q0 19 -5 29.5t-14.5 16.5t-22.5 8.5t-29 4.5l2 8q15 -1 30 0t37 4q42 6 72.5 28.5t50 51t28.5 59t9 52.5q0 32 -9 54t-32 44q-65 -47 -113 -115.5t-90.5 -144t-85 -150
t-97.5 -134t-127.5 -96.5t-175.5 -37q-28 0 -59 7t-56.5 22.5t-42 40t-16.5 58.5q0 28 15.5 49.5t39.5 21.5q20 0 36 -12t16 -33q0 -20 -10 -31.5t-29 -13.5q0 -53 28.5 -75t77.5 -22q56 0 100 24t82 64.5t71 93.5t66 111t68 117t76 112t90.5 95.5t111.5 67.5
q-25 13 -53.5 21t-56 12t-52 5t-42.5 1q-78 0 -160 -26t-149 -73.5t-110 -114t-43 -147.5q0 -54 31 -87.5t86 -33.5q43 0 78.5 23t61.5 58.5t40.5 78t14.5 82.5q0 9 -0.5 22t-1.5 27z" />
    <glyph glyph-name="S" unicode="S" horiz-adv-x="556" 
d="M-58 175q0 19 5 37t15.5 32.5t26 23t36.5 8.5q20 0 36.5 -11.5t16.5 -33.5q0 -27 -19.5 -41.5t-44.5 -15.5q-5 -14 -6.5 -28t-1.5 -28q0 -34 16.5 -57.5t42 -37.5t56.5 -20.5t59 -6.5q50 0 86.5 18t62.5 48.5t42.5 69.5t26 82t13.5 86.5t6 81.5q3 69 19 131t47.5 108.5
t79 73.5t113.5 27q28 0 54.5 -5.5t46.5 -18.5t32.5 -32.5t12.5 -48.5q0 -24 -9.5 -40.5t-25 -26t-36 -14t-42.5 -4.5q14 23 21.5 45t7.5 50q0 38 -20.5 60.5t-53.5 22.5q-39 0 -64.5 -19t-42.5 -51.5t-26 -76t-15 -92t-10 -99.5t-10 -100q-5 -43 -23 -93t-55 -93.5
t-96.5 -72.5t-147.5 -29q-43 0 -85 11.5t-74.5 35.5t-52.5 60t-20 84z" />
    <glyph glyph-name="T" unicode="T" horiz-adv-x="796" 
d="M592 545q3 -14 3.5 -27.5t0.5 -27.5q0 -43 -21.5 -82.5t-57.5 -69.5t-83.5 -48t-99.5 -18q-30 0 -59.5 9t-52 27t-36.5 45.5t-14 64.5q0 59 35 103.5t91.5 76.5t128 53t143.5 33t138 17t113 5q44 0 89.5 -1.5t86 -3.5t74 -4t53.5 -3q27 -1 38.5 -11t11.5 -25
q0 -16 -19 -27t-60 -11q-38 0 -69.5 2t-57.5 2q-49 0 -89.5 -33t-77 -85t-71 -116t-71.5 -126q-38 -64 -80.5 -114.5t-92 -86t-107.5 -54.5t-128 -19q-31 0 -67 6.5t-67 22t-52 41.5t-21 65q0 28 17.5 48t46.5 20q25 0 37.5 -12t12.5 -33q0 -20 -10.5 -31t-27.5 -16
q4 -50 35.5 -74.5t98.5 -24.5q65 0 115 31.5t90.5 80t74 107.5t64.5 113q35 61 66.5 107.5t68 81.5t82.5 60.5t110 44.5v2q-15 2 -37.5 3.5t-49 2.5t-54.5 1.5t-52 0.5q-62 0 -127 -4.5t-126 -14t-114.5 -26t-94 -40t-63.5 -55t-23 -72.5q0 -27 15 -48t38 -34.5t51 -20.5
t55 -7q40 0 82.5 11.5t78 34t58 57.5t22.5 81q0 22 -3 44z" />
    <glyph glyph-name="U" unicode="U" horiz-adv-x="833" 
d="M984 700l-260 -404q-34 -54 -58 -93.5t-38 -68.5t-20.5 -50.5t-6.5 -39.5q0 -17 6.5 -26.5t21.5 -9.5q30 0 69 24.5t81 62.5t84 83.5t78 87.5l9 -7q-9 -11 -24.5 -29t-34 -38.5t-38.5 -41.5t-38 -39q-60 -59 -108 -90t-97 -31q-50 0 -69.5 22.5t-19.5 56.5t16 68.5
t34 62.5l-2 2q-31 -37 -69 -75t-79.5 -68.5t-85.5 -49.5t-88 -19q-36 0 -53.5 20t-17.5 55q0 32 23 80.5t58 104.5t75 115.5t75 115.5t58 103.5t23 78.5q0 23 -17.5 36t-47.5 13q-48 0 -99 -22.5t-92 -59t-67.5 -84.5t-26.5 -99q0 -27 16 -49.5t45 -22.5q40 0 72 24.5
t58 57.5l8 -6q-29 -38 -67 -66t-87 -28q-42 0 -66.5 24.5t-24.5 66.5q0 58 34.5 109t88.5 89.5t120.5 61t129.5 22.5q45 0 76 -24t31 -72q0 -30 -23 -76t-58 -100.5t-75 -112.5t-75 -112t-58 -100t-23 -75q0 -20 11 -30t30 -10q33 0 79 28t94 72t92.5 97.5t75.5 103.5
l232 377z" />
    <glyph glyph-name="V" unicode="V" horiz-adv-x="759" 
d="M666 698q-44 -26 -73 -70.5t-50.5 -100t-39.5 -119.5t-39 -129.5t-49 -129t-69 -118.5l2 -2q50 30 107.5 67.5t115 81t111.5 92.5t97.5 103.5t72.5 114t36 122.5q-17 8 -23.5 19t-6.5 29q0 21 17 34.5t37 13.5q15 0 26 -6.5t18 -17t10.5 -24t3.5 -26.5q0 -50 -23 -100.5
t-63 -100.5t-92 -98t-110.5 -93t-119 -85.5t-116 -75t-103.5 -62.5t-81 -47l-9 7q36 55 59 116t41.5 124.5t36.5 126.5t43.5 122t62.5 111.5t93 93.5v3q-24 -10 -63 -21t-84.5 -25t-91.5 -32.5t-83 -43t-60.5 -56t-23.5 -72.5q0 -32 15.5 -54.5t51.5 -22.5q25 0 43 12t30 31
t17.5 42.5t5.5 47.5h12q0 -30 -7 -57.5t-22.5 -48t-39.5 -33t-57 -12.5q-46 0 -76.5 24.5t-30.5 73.5q0 45 25 77t67.5 56.5t97.5 42.5t114.5 34.5t119.5 32.5t112 36z" />
    <glyph glyph-name="W" unicode="W" horiz-adv-x="1000" 
d="M644 704q-41 -20 -71 -61t-53.5 -94.5t-43 -115.5t-40 -124t-44.5 -119.5t-56 -102.5l2 -2q55 48 108 98.5t99 99t83.5 92t61.5 75.5q15 20 27 47t23 47q19 36 46 65.5t54.5 51t50 33.5t32.5 12q15 0 15 -15q0 -7 -9 -16t-22 -19.5t-27.5 -22.5t-25.5 -26
q-26 -32 -42.5 -73t-29.5 -87t-25.5 -97t-29.5 -103t-41 -104.5t-62 -102.5l2 -2q48 26 103.5 62.5t110.5 80.5t106.5 95t91.5 106t65 112.5t28 114.5q-13 6 -21.5 17t-8.5 25q0 23 14.5 39t37.5 16q32 0 46 -23t14 -52q0 -62 -38.5 -130t-100 -134.5t-137.5 -129
t-151 -113.5t-141 -88t-107 -52l-9 6q35 50 58.5 105.5t41.5 112.5t32.5 114t32.5 111l-2 2q-31 -42 -74 -90t-92 -97.5t-100.5 -98t-100.5 -90.5q-17 -15 -30 -27.5t-25 -22t-23.5 -14.5t-26.5 -5q-5 0 -9.5 3.5t-4.5 9.5q0 9 8 14t19.5 12.5t25 22t24.5 42.5q31 80 51 161
t45 156t63 141t105 116l-2 2q-29 -10 -69 -21.5t-83 -26.5t-85 -33.5t-75.5 -43.5t-54 -56.5t-20.5 -71.5q0 -29 18.5 -52t49.5 -23q51 0 73.5 38.5t22.5 101.5h12q0 -31 -6 -59.5t-21 -50.5t-39.5 -35t-60.5 -13q-21 0 -40 7t-34 19.5t-24 30.5t-9 40q0 44 21 75.5t59 55.5
t89 42.5t111 36.5t126.5 37t133.5 44z" />
    <glyph glyph-name="X" unicode="X" horiz-adv-x="870" 
d="M515 442q-14 -33 -34 -64t-46 -54t-58.5 -37t-71.5 -14q-29 0 -51.5 11.5t-37.5 31t-23 44t-8 51.5q0 58 28.5 114t74 99.5t103.5 70.5t117 27q84 0 125.5 -45t41.5 -120v-25q0 -11 -2 -19l2 -2q33 40 76.5 78t94 67.5t106.5 47.5t114 18q16 0 33 -4.5t31 -13.5t23 -23.5
t9 -34.5q0 -26 -16 -38t-40 -12q-6 0 -19 3.5t-13 11.5q0 7 2 13t2 14q0 35 -20 47.5t-49 12.5q-34 0 -72.5 -14t-77 -38.5t-75 -58t-66.5 -73.5q-28 -36 -54 -82t-46 -96.5t-32.5 -101t-12.5 -95.5q0 -22 4.5 -44.5t15.5 -40.5t29 -29t45 -11q44 0 89 27t86 66t76.5 82.5
t60.5 76.5l7 -7q-25 -35 -56 -74t-66 -74q-26 -26 -54.5 -49t-59 -40.5t-64 -27.5t-69.5 -10q-66 0 -101 39t-35 104q0 18 1 35.5t3 34.5l-2 2q-33 -45 -78 -84.5t-94.5 -68.5t-101 -45.5t-98.5 -16.5q-60 0 -95.5 20.5t-35.5 62.5q0 26 16 41.5t39 15.5q21 0 34 -13.5
t13 -32.5q0 -12 -4.5 -21.5t-11.5 -14.5q7 -20 21.5 -30t42.5 -10q49 0 102.5 24.5t105 67t97.5 98.5t80.5 119.5t55 130.5t20.5 131q0 26 -6.5 50t-20.5 42t-35.5 28.5t-50.5 10.5q-51 0 -94.5 -27t-74.5 -68.5t-48.5 -90t-17.5 -91.5q0 -22 6 -45.5t18 -42t31.5 -30.5
t46.5 -12q29 0 53.5 14t45 35.5t36.5 47.5t27 50z" />
    <glyph glyph-name="Y" unicode="Y" horiz-adv-x="778" 
d="M993 696l-461 -728q-39 -57 -85 -107.5t-100 -88.5t-115.5 -60t-129.5 -22q-39 0 -74.5 7t-62 23.5t-42.5 43t-16 65.5q0 22 9 42.5t25 36.5t36 25.5t43 9.5q32 0 59 -8t55 -22l-1 -8q-14 5 -28.5 9.5t-29.5 4.5q-21 0 -36.5 -9t-26 -23t-16 -32.5t-5.5 -37.5
q0 -21 6 -41.5t19.5 -37t35.5 -26.5t53 -10q50 0 95.5 22.5t88.5 62t83.5 92.5t80.5 115l138 212l-2 2q-29 -36 -67 -74.5t-81.5 -70.5t-91.5 -52.5t-98 -20.5q-32 0 -50.5 17.5t-18.5 49.5q0 34 23.5 82.5t58 104.5t75.5 115t75.5 114t58 101.5t23.5 76.5q0 59 -53 59
q-51 0 -101.5 -22t-91.5 -58.5t-66.5 -84t-25.5 -98.5q0 -13 3.5 -26.5t10 -24t17 -17.5t24.5 -7q20 0 37 6.5t31.5 17t27.5 23.5t26 27l7 -5q-14 -16 -30 -31.5t-34.5 -28t-39 -20t-44.5 -7.5q-40 0 -67 21t-27 65q0 52 31.5 102.5t83 90.5t117 64.5t134.5 24.5q20 0 40 -4
t36.5 -13.5t27 -25t10.5 -39.5q0 -35 -23.5 -84.5t-58 -105.5t-75.5 -115t-75.5 -112t-58 -97.5t-23.5 -71.5q0 -40 40 -40q30 0 68.5 20.5t77.5 51t74.5 67t59.5 68.5t53 75.5t59 90.5t59 94.5t54 88.5t43.5 73t27.5 48z" />
    <glyph glyph-name="Z" unicode="Z" horiz-adv-x="704" 
d="M431 505q-22 -35 -56.5 -61t-85.5 -26q-46 0 -74.5 28.5t-28.5 77.5q0 38 18.5 71.5t47 58t63 38.5t67.5 14q45 0 87 -12t82 -26q39 -14 76 -26t72 -12q44 0 69 14.5t40.5 31.5t25.5 31.5t25 14.5q7 0 13 -4.5t6 -13.5q0 -10 -11.5 -19t-28.5 -19.5t-38 -23t-41 -30.5
q-154 -139 -312 -273.5t-323 -264.5l2 -2q36 16 72.5 31t77.5 15q34 0 68 -11t67 -24q34 -13 65 -25t60 -12q32 0 56.5 8t45 22t39 32.5l39.5 39.5q28 28 50 57t46 58l5 -4q-29 -39 -69 -86.5t-87 -89.5t-98.5 -70.5t-104.5 -28.5q-41 0 -76 14.5t-67 31.5t-62 31.5
t-61 14.5q-25 0 -43.5 -5.5t-33 -15t-28 -24t-28.5 -32.5q-7 -6 -12.5 -10.5t-13.5 -4.5q-5 0 -9.5 2.5t-4.5 8.5q0 11 9 19.5t24 18t34 21.5t38 30q74 69 155 140t162.5 140t161.5 135t153 125l-2 2q-41 -23 -82 -38.5t-89 -15.5q-35 0 -67.5 12.5t-64.5 26.5t-64 25.5
t-67 11.5q-28 0 -50.5 -11t-38.5 -28.5t-24.5 -40t-8.5 -45.5q0 -17 6.5 -33.5t18.5 -30t29.5 -21.5t39.5 -8q49 0 78.5 23t53.5 56z" />
    <glyph glyph-name="bracketleft" unicode="[" horiz-adv-x="389" 
d="M72 -282l-18 -28h-266l665 1022h258l-18 -28h-179l-621 -966h179z" />
    <glyph glyph-name="backslash" unicode="\" horiz-adv-x="350" 
d="M307 0l-308 663h41l308 -663h-41z" />
    <glyph glyph-name="bracketright" unicode="]" horiz-adv-x="389" 
d="M314 684l18 28h266l-665 -1022h-258l18 28h179l621 966h-179z" />
    <glyph glyph-name="asciicircum" unicode="^" horiz-adv-x="600" 
d="M91 176l184 364h54l184 -364h-59l-152 300l-152 -300h-59z" />
    <glyph glyph-name="underscore" unicode="_" horiz-adv-x="500" 
d="M0 -125v50h500v-50h-500z" />
    <glyph glyph-name="grave" unicode="`" horiz-adv-x="259" 
d="M79 558q0 14 8.5 23t23.5 9q8 0 13.5 -6.5t9.5 -15.5t7 -19.5t5 -18.5q5 -22 19.5 -40t29.5 -32.5t26.5 -24t11.5 -14.5q0 -7 -6 -7q-10 0 -34.5 14t-50 36t-44.5 47.5t-19 48.5z" />
    <glyph glyph-name="a" unicode="a" horiz-adv-x="519" 
d="M394 346l104 6q-9 -18 -26 -43.5t-37 -55t-40.5 -61t-37.5 -61t-27.5 -55t-10.5 -43.5q0 -25 25 -25q24 0 65 28t86 74q19 19 38.5 41t37.5 43.5t33 40t24 30.5l7 -4q-26 -35 -60 -77.5t-82 -90.5t-94.5 -78.5t-92.5 -30.5q-32 0 -49.5 16.5t-17.5 40.5q0 8 1 15t3 11h-2
q-31 -35 -70 -59t-84 -24q-24 0 -41 9t-27.5 24.5t-15.5 35t-5 40.5q0 49 27 98t68 88.5t91.5 64t96.5 24.5q35 0 55 -15t33 -47zM94 90q0 -29 9.5 -50.5t40.5 -21.5q21 1 44 17.5t44.5 41.5t41 55.5t34 61.5t23 58.5t8.5 46.5q0 27 -10 42t-39 15q-23 0 -46.5 -14t-45 -37
t-41 -51.5t-33.5 -58.5t-22 -57.5t-8 -47.5z" />
    <glyph glyph-name="b" unicode="b" 
d="M454 696q-72 -110 -129.5 -195.5t-101.5 -150t-75 -112t-50.5 -83t-28.5 -61.5t-9 -48q0 -20 11 -35t32 -15q27 0 53.5 16t50.5 41.5t44.5 56.5t35.5 61.5t23.5 57t8.5 41.5q0 5 -1.5 8.5t-3.5 8t-3.5 11.5t-1.5 19q0 19 12.5 35t32.5 16q17 0 28 -7.5t17.5 -19.5
t9 -26.5t2.5 -28.5q0 -22 -6 -48q12 -12 33 -22.5t44 -10.5q34 0 60.5 16t46.5 42l7 -6q-20 -29 -50.5 -46.5t-63.5 -17.5q-24 0 -43.5 9t-36.5 23q-15 -52 -45 -96t-70.5 -76t-89.5 -50.5t-102 -18.5q-56 0 -83.5 29t-27.5 78q0 16 5.5 35t20 47t39.5 69.5t64.5 102.5
t95.5 146t132 200z" />
    <glyph glyph-name="c" unicode="c" horiz-adv-x="407" 
d="M525 258q-37 -45 -80 -93.5t-92.5 -88.5t-106 -66t-119.5 -26q-60 0 -92 32.5t-32 95.5q0 48 28 94t72 82t97 58t103 22q46 0 73 -18.5t27 -45.5q0 -19 -7.5 -34.5t-19.5 -26t-27 -16t-30 -5.5q-13 0 -23 2q7 23 15 47t8 48q0 17 -8 27t-22 10q-26 0 -59 -20.5t-62 -55
t-49 -79t-20 -92.5q0 -38 23 -64.5t64 -26.5q49 0 97.5 27t92 65.5t79.5 80t61 71.5z" />
    <glyph glyph-name="d" unicode="d" horiz-adv-x="519" 
d="M608 690l112 6q-33 -54 -75.5 -119.5t-87 -133.5t-87.5 -134.5t-76.5 -123t-54 -98.5t-20.5 -61q0 -11 5 -17.5t16 -6.5q21 0 57.5 21t81.5 68q37 38 71 78.5t74 93.5l10 -5q-11 -15 -26.5 -35t-33.5 -42t-37.5 -44.5t-38.5 -42.5q-48 -50 -92 -80t-94 -30
q-23 0 -37.5 7.5t-23 19.5t-10.5 26t1 27l-2 2q-31 -32 -68 -54t-85 -22q-24 0 -40.5 8.5t-27 23t-15 33t-4.5 38.5q0 50 26 99.5t67 88.5t91 63t99 24q67 0 90 -64zM145 24q32 0 66.5 30.5t63 74t46.5 90.5t18 81q0 29 -15 42.5t-38 13.5q-31 0 -64.5 -28.5t-61.5 -69.5
t-46 -88t-18 -84q0 -24 11 -43t38 -19z" />
    <glyph glyph-name="e" unicode="e" horiz-adv-x="407" 
d="M525 262q-31 -42 -66.5 -83t-84.5 -86q-69 -62 -132.5 -85.5t-119.5 -23.5q-57 0 -90 34t-33 88q0 48 29 95t73 84t96.5 60t99.5 23q43 0 67 -16.5t24 -46.5q0 -24 -16.5 -44t-42.5 -36t-58.5 -28t-64.5 -21t-60 -15t-46 -10q-5 -20 -5 -36q0 -43 24 -70t67 -27
q42 0 92.5 25t101.5 73q39 37 75 77.5t63 75.5zM308 330q0 14 -7.5 20t-19.5 6q-25 0 -54 -21t-54.5 -51.5t-45 -64t-25.5 -58.5q41 8 78 26.5t65.5 42t45.5 50t17 50.5z" />
    <glyph glyph-name="f" unicode="f" horiz-adv-x="278" 
d="M228 334q-39 -63 -77.5 -135.5t-82 -144t-93 -137.5t-109.5 -116.5t-132.5 -80.5t-161.5 -30q-30 0 -64 6.5t-62 21.5t-46.5 40t-18.5 63q0 29 12.5 51t33 37t46.5 23t53 8q14 0 25.5 -1t20.5 -3v-8q-48 -3 -77.5 -34t-29.5 -79q0 -52 29 -82.5t94 -30.5q59 0 113 32.5
t103.5 85.5t94 120.5t85 138t77.5 137.5t70 118h-96l10 18h98q29 50 68.5 110t89 112t108.5 87t126 35q21 0 40.5 -5t35 -15t25 -25.5t9.5 -36.5q0 -36 -26 -54t-61 -18q-8 0 -18 2q9 18 15 38t6 43q0 29 -12 44t-32 15q-25 0 -53 -19.5t-55 -50.5t-53.5 -69t-48.5 -75
t-39.5 -68.5t-28.5 -49.5h258l-11 -18h-258z" />
    <glyph glyph-name="g" unicode="g" horiz-adv-x="519" 
d="M-154 -80q-53 -1 -79.5 -29t-26.5 -78q0 -24 8 -44.5t22.5 -35.5t35 -23.5t46.5 -8.5q47 0 89 19t79.5 51t71 72.5t63 83t55.5 84.5t49 75l-2 2q-16 -19 -35.5 -36.5t-41 -31t-46 -22t-51.5 -8.5q-41 0 -62.5 28.5t-21.5 66.5q0 49 25 99.5t65 91t90 66.5t99 26
q38 0 60 -14t34 -51l23 43l102 6q-54 -92 -106 -186t-110 -187q56 16 104.5 46t91 68.5t80 83t71.5 89.5l6 -3q-33 -48 -72.5 -94.5t-84.5 -86.5t-96 -70.5t-108 -46.5q-36 -62 -81.5 -113t-99.5 -87t-117 -56t-135 -20q-37 0 -70 6.5t-58.5 22t-40.5 40t-15 60.5
q0 27 11.5 48.5t30.5 36t43.5 22t49.5 7.5q9 0 27 -2t28 -3v-7zM95 93q0 -29 10 -49t44 -20q21 0 43 15t43 38.5t40 53.5t33 60t22 57.5t8 46.5q0 11 -1.5 21.5t-5.5 19.5t-12 14.5t-22 5.5q-37 0 -73 -28.5t-64.5 -70t-46.5 -86.5t-18 -78z" />
    <glyph glyph-name="h" unicode="h" 
d="M-83 0l419 691l109 5l-332 -524l2 -2q22 26 49.5 60.5t60 65t68.5 51.5t75 21q32 0 50 -16.5t18 -49.5q0 -27 -22 -63.5t-48 -74.5t-48 -73t-22 -59t21 -24q15 0 38 14.5t49.5 37.5t54 52t53 57.5t45.5 53.5t31 40l6 -6q-26 -34 -62.5 -78t-76.5 -85q-54 -56 -92 -80
t-78 -24q-36 0 -52.5 21t-16.5 48q0 35 22 70.5t48 69.5t48 64t22 52q0 14 -8 21.5t-18 7.5q-22 0 -49.5 -18.5t-58 -48t-61 -67t-58 -75t-49 -72.5t-34.5 -60z" />
    <glyph glyph-name="i" unicode="i" horiz-adv-x="259" 
d="M243 352q-47 -74 -81 -126.5t-55.5 -89.5t-32 -60.5t-10.5 -38.5q0 -12 4.5 -19.5t13.5 -7.5q20 0 56.5 23t91.5 79q22 23 43 45.5t39.5 43.5t33 38t23.5 27l9 -6q-12 -16 -29.5 -36.5t-37.5 -43t-41 -44.5t-41 -42q-58 -58 -99.5 -81t-76.5 -23q-33 0 -51 18t-18 47
q0 20 7.5 41.5t25.5 53.5t48 79.5t75 117.5zM301 574q19 0 33.5 -14t14.5 -33q0 -20 -16 -36.5t-36 -16.5q-22 0 -38 11.5t-16 34.5t17.5 38.5t40.5 15.5z" />
    <glyph glyph-name="j" unicode="j" horiz-adv-x="259" 
d="M-414 -78q-23 0 -42.5 -7.5t-33.5 -21t-22.5 -32t-8.5 -39.5q0 -54 30.5 -87t87.5 -33t112 36t106 94t97.5 130t87 144t74 137t57.5 107l103 5q-55 -94 -107.5 -188t-108.5 -186q55 17 104 47t91.5 67.5t80 80.5t68.5 87l9 -6q-30 -41 -64.5 -83t-77 -80.5t-95.5 -71.5
t-122 -57q-38 -58 -82 -108.5t-97 -87.5t-116 -58t-137 -21q-30 0 -63 6t-60 21t-44.5 40t-17.5 62q0 30 12.5 51.5t32.5 36t46 21t52 6.5q12 0 24 -1.5t24 -3.5v-7zM293 574q19 0 33.5 -14t14.5 -33q0 -20 -16 -36.5t-36 -16.5q-22 0 -38 11.5t-16 34.5t17.5 38.5
t40.5 15.5z" />
    <glyph glyph-name="k" unicode="k" 
d="M339 696l110 6q-85 -135 -168 -267.5t-172 -263.5l2 -2q23 27 53 61t64.5 65t72 52t76.5 21q31 0 47.5 -17t16.5 -43t-11.5 -43.5t-33.5 -30.5t-53.5 -23.5t-70.5 -21.5v-2q17 -3 29.5 -20.5t12.5 -35.5q0 -29 -10 -55.5t-10 -49.5q0 -18 16 -18q26 0 62 26.5t74.5 65
t75 82t62.5 77.5l9 -5q-31 -39 -69 -86t-80 -88t-87 -68.5t-90 -27.5q-32 0 -47.5 17.5t-15.5 44.5q0 24 14.5 57.5t37.5 81.5q-17 -5 -36 -10.5t-31 -5.5q-18 0 -18 15q0 8 7 13t27 5q14 0 32 -3t25 -3t22 6t30 18t26 29.5t11 41.5q0 18 -8.5 29.5t-22.5 11.5
q-22 0 -49.5 -18.5t-58 -48t-61 -66.5t-57 -73.5t-47.5 -69t-32 -53.5l-97 -3z" />
    <glyph glyph-name="l" unicode="l" horiz-adv-x="259" 
d="M456 699l-309 -492q-39 -63 -62 -104.5t-23 -67.5q0 -27 22 -27q21 0 57 23t77 64q38 38 75 81t72 89l9 -3q-12 -16 -27.5 -36t-32.5 -40.5t-34.5 -41t-34.5 -37.5q-58 -59 -102.5 -88t-92.5 -29q-68 0 -68 60q0 28 20.5 70.5t63.5 114.5l279 458z" />
    <glyph glyph-name="m" unicode="m" horiz-adv-x="722" 
d="M373 186q19 24 45 55.5t56.5 59.5t64 47.5t66.5 19.5q32 0 51.5 -20t19.5 -46q0 -34 -22 -69.5t-49 -70.5t-49 -68t-22 -60q0 -11 5 -18.5t16 -7.5q41 0 134 93q38 38 74.5 80.5t63.5 77.5l8 -4q-12 -15 -27.5 -34t-33.5 -40.5t-38.5 -44.5t-41.5 -44q-28 -28 -51 -47.5
t-42.5 -31.5t-37 -17.5t-35.5 -5.5q-35 0 -54.5 19.5t-19.5 49.5q0 32 22 69t49 72t49 65.5t22 49.5q0 14 -8 21.5t-19 7.5q-21 0 -48.5 -19.5t-57.5 -50.5t-59.5 -69t-56 -76t-47 -71t-32.5 -54l-106 -4q34 54 66.5 102.5t58 89t41 71.5t15.5 49q0 12 -7 22t-22 10
q-21 0 -48.5 -19.5t-57.5 -50.5t-60.5 -69t-57.5 -76t-48 -71t-33 -54l-101 -4q55 88 109 175.5t106 178.5l117 6l-133 -182l2 -2q21 24 47.5 57t57.5 63t66.5 51t75.5 21q28 0 47.5 -15t19.5 -45q0 -14 -5 -30t-12.5 -31.5t-17 -31t-17.5 -27.5z" />
    <glyph glyph-name="n" unicode="n" 
d="M114 172q14 18 40.5 51t60.5 65t73 56t78 24q33 0 50 -18.5t17 -45.5q0 -34 -21.5 -69.5t-47.5 -71t-47.5 -68t-21.5 -60.5q0 -12 6 -19.5t20 -7.5t46.5 21.5t87.5 79.5q43 46 79 89.5t54 65.5l10 -5q-26 -31 -64 -77t-81 -91q-52 -55 -88.5 -78t-75.5 -23q-38 0 -56 21
t-18 48q0 34 21.5 70t47.5 70.5t47.5 65.5t21.5 54q0 11 -7 18t-21 7q-20 0 -47 -18.5t-57 -48t-61 -67t-58.5 -75t-49.5 -72.5t-35 -60l-101 -3q53 88 106.5 174.5t105.5 177.5l114 4l-130 -182z" />
    <glyph glyph-name="o" unicode="o" 
d="M597 259q-20 -26 -47.5 -47t-60.5 -21q-23 0 -40 10t-31 28q-12 -50 -39.5 -94.5t-66.5 -78t-87 -53t-100 -19.5q-55 0 -88 31.5t-33 86.5q0 53 27 101.5t70 85t95 58t102 21.5q54 0 85 -29t38 -70q5 -30 22.5 -48t45.5 -18q27 0 51 16t51 48zM132 -4q25 0 50 17t48 44
t42.5 61t34 68t22.5 65t8 52q0 25 -10.5 39t-33.5 14q-25 0 -50 -17t-48 -44t-42.5 -61t-34 -68t-22.5 -65t-8 -52q0 -25 10.5 -39t33.5 -14z" />
    <glyph glyph-name="p" unicode="p" 
d="M358 552l-231 -352l2 -2q21 25 44.5 55t51 55.5t59 42.5t68.5 17q36 0 58 -23.5t22 -61.5q0 -49 -21 -93t-51 -76l2 -2q34 7 66.5 22.5t62.5 37t56 47t47 51.5l7 -7q-19 -24 -45 -50t-57.5 -49.5t-69 -41t-79.5 -24.5q-20 -18 -45 -38t-53 -37t-57 -28t-57 -11
q-21 0 -36.5 8.5t-15.5 28.5q0 21 20.5 34.5t49.5 22t60.5 13.5t52.5 8q9 12 20.5 30.5t22 41.5t17.5 49.5t7 54.5q0 11 -1.5 21.5t-6 19t-12.5 13.5t-21 5q-30 0 -70 -39t-85 -100.5t-91.5 -137t-89.5 -148t-78.5 -134t-58.5 -95.5l-106 -4q134 216 267.5 435t266.5 436z
M124 24q0 -22 28 -22q14 0 29.5 9t30.5 21.5t28 27t22 26.5q-13 -2 -36.5 -6t-46 -10.5t-39 -17.5t-16.5 -28z" />
    <glyph glyph-name="q" unicode="q" horiz-adv-x="519" 
d="M94 97q0 -12 2 -25t7 -23.5t14 -17.5t23 -7q23 0 46.5 15t45.5 39t41.5 54.5t33.5 62t22.5 60t8.5 49.5q0 23 -10 37.5t-33 14.5q-36 0 -71.5 -28t-64.5 -68.5t-47 -85t-18 -77.5zM504 354l-224 -373q54 16 102 44.5t91 66t81.5 82t72.5 91.5l7 -6q-31 -41 -66.5 -84.5
t-79 -83.5t-96.5 -73t-119 -52l-164 -286l-110 -4q63 103 124 204t127 200l-2 2q-33 -37 -73 -64.5t-92 -27.5q-23 0 -39 8.5t-26.5 22.5t-15 32.5t-4.5 38.5q0 49 25.5 98t65.5 88.5t89.5 64.5t97.5 25q42 0 64.5 -17.5t31.5 -58.5h2l26 56z" />
    <glyph glyph-name="r" unicode="r" horiz-adv-x="389" 
d="M-82 0q51 88 103.5 175t104.5 177l114 4l-132 -186l2 -2q38 47 67.5 75.5t51.5 46.5t37 27.5t22 16.5q11 11 20.5 17.5t22.5 10t31.5 4.5t46.5 2q-19 -27 -35 -56.5t-16 -63.5q0 -43 43 -43q14 0 27.5 6t25.5 15t23 19.5t20 19.5l4 -5q-28 -35 -66 -57t-83 -22
q-40 0 -63 21t-23 62q0 26 15 49l-2 2q-42 -28 -80 -65t-70.5 -78t-60 -84.5t-49.5 -84.5z" />
    <glyph glyph-name="s" unicode="s" horiz-adv-x="370" 
d="M163 3q51 11 94.5 37.5t81.5 62t71.5 77t65.5 83.5l8 -6q-40 -52 -80 -101.5t-87.5 -87.5t-104 -61t-129.5 -23q-26 0 -51.5 5.5t-46 18t-33 33t-12.5 50.5q0 16 4.5 32t13.5 29t22.5 21.5t31.5 8.5q23 0 35.5 -13t12.5 -30q0 -21 -12 -32t-28 -11q-13 0 -22 5
q-5 -9 -8.5 -19.5t-3.5 -21.5q0 -28 21.5 -46t50.5 -18q18 0 36.5 6t33 17.5t23.5 27.5t9 35q0 26 -12.5 47.5t-27.5 41.5t-27.5 40.5t-12.5 43.5q0 28 13 49t34 35.5t47 21.5t53 7q48 0 80.5 -20.5t32.5 -58.5q0 -29 -19 -47.5t-48 -18.5q-9 0 -16.5 1.5t-12.5 3.5
q11 20 15.5 39.5t4.5 38.5q0 20 -11.5 35t-34.5 15q-28 0 -43 -17.5t-15 -43.5q0 -28 12.5 -49.5t27.5 -41.5t27.5 -42t12.5 -52q0 -19 -6.5 -37t-17.5 -32t-24.5 -23.5t-28.5 -12.5v-2z" />
    <glyph glyph-name="t" unicode="t" horiz-adv-x="278" 
d="M49 334l7 18h77l75 126l108 4l-83 -130h127l-9 -18h-129q-45 -74 -76 -124.5t-49.5 -84t-27 -53.5t-8.5 -35q0 -13 7 -21t20 -8q25 0 66 25.5t88 70.5q32 32 70 75t71 87l6 -5q-23 -30 -58 -73t-77 -85q-23 -23 -47.5 -43.5t-49.5 -36t-49 -24.5t-47 -9q-32 0 -56 14.5
t-24 50.5q0 26 11 53.5t30.5 60.5t45.5 73t56 92h-75z" />
    <glyph glyph-name="u" unicode="u" 
d="M470 356q-39 -65 -72.5 -116t-57.5 -90.5t-37.5 -68.5t-13.5 -51t19 -22q12 0 29 8.5t36 22t39 31.5t38 36q22 23 43.5 46.5t40 45.5t33.5 40.5t25 31.5l8 -6q-24 -32 -61 -76.5t-79 -87.5q-51 -52 -94 -81t-85 -29q-30 0 -48 18t-18 45q0 19 3.5 34t8.5 23l-2 2
q-18 -19 -39 -40.5t-45 -39.5t-51.5 -30t-59.5 -12q-31 0 -47 19.5t-16 45.5q0 38 41 110t111 187l106 4q-79 -121 -128.5 -198.5t-49.5 -115.5q0 -12 6.5 -20t17.5 -8q19 0 45.5 16t55.5 43t57.5 62t51.5 73l86 140z" />
    <glyph glyph-name="v" unicode="v" 
d="M241 356q-17 -26 -46.5 -66t-57.5 -84t-48.5 -86.5t-20.5 -72.5q0 -22 10 -33.5t35 -11.5q38 0 75.5 29t68 72t49.5 92t20 89q-8 18 -8 39q0 17 12 31t34 14q25 0 38.5 -21.5t11.5 -65.5q0 -13 -1 -25.5t-3 -21.5q20 -17 39 -23t40 -6q35 0 59 18.5t41 41.5l8 -5
q-17 -29 -46.5 -48t-63.5 -19q-21 0 -41.5 7.5t-38.5 20.5q-12 -47 -40.5 -89t-68.5 -73.5t-88 -50t-99 -18.5q-49 0 -82 22t-33 76q0 26 9 51.5t26 56t42.5 68.5t58.5 88z" />
    <glyph glyph-name="w" unicode="w" horiz-adv-x="704" 
d="M228 356q-18 -27 -47 -65.5t-56.5 -80.5t-48 -82.5t-20.5 -72.5q0 -17 7.5 -29t25.5 -12q37 0 78 40.5t92 121.5q17 28 33.5 55t30.5 50t25.5 41.5t18.5 29.5l107 4q-17 -27 -46 -67.5t-57.5 -84.5t-49 -86t-20.5 -73q0 -19 9 -31t28 -12q26 0 52 14t50 36.5t45 51.5
t37 59t26 59t11 52q-6 9 -10.5 20t-4.5 25q0 20 11 34.5t34 14.5q17 0 27.5 -7.5t16.5 -19t8 -26t2 -28.5q0 -11 -1.5 -26.5t-3.5 -29.5q33 -27 70 -27q34 0 59.5 19t44.5 44l7 -5q-20 -28 -48.5 -49t-62.5 -21q-22 0 -40 7.5t-32 18.5q-15 -48 -45.5 -90t-71 -72.5
t-88.5 -48t-98 -17.5q-54 0 -79 27t-25 69q0 9 1 17t3 13l-2 2q-16 -24 -35.5 -47t-42 -41t-48.5 -29t-56 -11q-38 0 -55.5 24.5t-17.5 59.5q0 32 16.5 69.5t39.5 75t48 72.5t42 61z" />
    <glyph glyph-name="x" unicode="x" horiz-adv-x="593" 
d="M705 258q-32 -42 -73.5 -90.5t-90 -89t-103 -67.5t-111.5 -27q-46 0 -72.5 24.5t-30.5 63.5q-19 -16 -41 -31t-46.5 -26t-51 -18t-54.5 -7q-54 0 -82.5 23t-28.5 63q0 24 15 44.5t45 20.5q20 0 33 -12t13 -32t-13.5 -33t-30.5 -13q0 -23 14 -36t37 -13q42 0 84.5 29.5
t76.5 72t55 91t21 87.5q0 25 -11 41.5t-38 16.5q-16 0 -32 -8t-30 -20t-26 -26.5t-21 -27.5l-7 5q13 18 28.5 36.5t34 34t41 25t48.5 9.5q42 0 67 -24t33 -62q34 33 77 57.5t92 24.5q16 0 33 -3t31 -11t23 -20.5t9 -32.5q0 -31 -24.5 -46.5t-51.5 -15.5q-11 0 -20 3
q5 17 8.5 32.5t3.5 36.5t-8.5 33t-25.5 12q-26 0 -59 -23t-62 -59t-49 -81.5t-20 -90.5q0 -39 22 -57.5t58 -18.5q40 0 84.5 26.5t86 64.5t77 79.5t57.5 70.5z" />
    <glyph glyph-name="y" unicode="y" 
d="M-182 -79q-5 1 -18 1q-43 0 -66.5 -31t-23.5 -76q0 -53 32.5 -83t80.5 -30q51 0 96 21.5t84 57t73.5 81t64 93.5t55.5 94t48 83l-2 2q-15 -18 -37.5 -42.5t-50.5 -47t-59 -38.5t-63 -16q-33 0 -47.5 19t-14.5 45q0 25 14 57t35.5 70.5t48.5 81.5t54 89l106 4
q-84 -131 -131 -207t-47 -108q0 -12 7.5 -19.5t18.5 -7.5q18 0 46 18.5t59.5 49.5t63.5 71.5t58 83.5q22 36 39 66t25 49l98 4q-54 -93 -104.5 -185.5t-105.5 -183.5q48 14 95 43.5t90.5 68.5t81 83t67.5 86l8 -7q-34 -49 -75 -95.5t-86.5 -85t-93.5 -66.5t-96 -40
q-36 -61 -81 -113t-99 -90t-117 -59.5t-135 -21.5q-36 0 -70 6.5t-60 22t-42 41t-16 62.5q0 30 12.5 51t33 34.5t47 20t54.5 6.5q12 0 24.5 -1t20.5 -3v-9z" />
    <glyph glyph-name="z" unicode="z" 
d="M134 90q5 2 10 2h14q23 0 44.5 -8t42 -17t40 -17t37.5 -8q35 0 72 24.5t72 59.5t65.5 72.5t53.5 64.5l8 -6q-19 -24 -43 -53.5t-52 -59.5t-59 -59t-63.5 -51.5t-65 -36t-64.5 -13.5q-21 0 -43 9t-43.5 20t-42.5 20t-40 9q-15 0 -27.5 -8t-24 -18t-20.5 -18t-16 -8
q-5 0 -8.5 3.5t-3.5 8.5q0 11 21 21t59 32q22 12 56.5 37t76.5 56t89.5 64.5t95.5 61.5l-2 2q-11 -4 -23 -5t-23 -1q-22 0 -41.5 4.5t-38 10.5t-36 10.5t-34.5 4.5q-19 0 -34.5 -12t-31.5 -34l-9 6q13 18 29 37.5t35 35t41.5 25.5t48.5 10q23 0 44 -6t42 -13.5t41.5 -14
t41.5 -6.5t31 7t16 16t11 16t15 7q6 0 10 -4.5t4 -9.5q0 -6 -6 -12t-15 -12t-20 -12t-21 -13q-79 -57 -156.5 -113t-161.5 -106z" />
    <glyph glyph-name="braceleft" unicode="{" horiz-adv-x="389" 
d="M-36 -310q-19 0 -37.5 2.5t-32.5 8.5t-23 16.5t-9 27.5q0 18 10 44t33 62l135 213q20 30 31 52.5t11 39.5q0 30 -31 44q28 9 50 20.5t41 27.5t36 37.5t35 49.5l135 212q34 53 70 85.5t71.5 50t69 23.5t62.5 6l-9 -14q-58 -13 -97.5 -48.5t-79.5 -97.5l-127 -200
q-20 -32 -39 -56.5t-40 -42.5t-45 -31t-55 -21l-1 -3q34 -12 34 -38q0 -38 -50 -115l-129 -199q-45 -68 -45 -104q0 -29 35 -38z" />
    <glyph glyph-name="bar" unicode="|" horiz-adv-x="222" 
d="M429 712h65l-462 -712h-65z" />
    <glyph glyph-name="braceright" unicode="}" horiz-adv-x="389" 
d="M422 712q19 0 37.5 -2.5t32.5 -8.5t23 -16.5t9 -27.5q0 -18 -10 -44t-33 -62l-135 -213q-20 -30 -31 -52.5t-11 -39.5q0 -30 31 -44q-28 -9 -50 -20.5t-40.5 -27.5t-36 -37t-35.5 -50l-135 -212q-34 -53 -70 -85.5t-71.5 -50t-69 -23.5t-62.5 -6l9 14q58 13 97.5 48.5
t79.5 97.5l127 200q20 32 39 56.5t40 42.5t45 31t55 21l1 3q-34 12 -34 38q0 38 50 115l129 199q45 68 45 104q0 29 -35 38z" />
    <glyph glyph-name="asciitilde" unicode="~" horiz-adv-x="600" 
d="M68 153q24 26 50 46q23 17 52.5 31.5t62.5 14.5q31 0 61.5 -12.5t59.5 -27.5t57 -27.5t55 -12.5q19 0 36 9.5t31 21.5q16 13 30 31l8 -6q-24 -30 -51 -54q-23 -20 -54.5 -36.5t-66.5 -16.5q-27 0 -55.5 12t-57.5 26.5t-59.5 26.5t-62.5 12q-20 0 -35.5 -7t-27.5 -15
q-14 -10 -25 -22z" />
    <glyph glyph-name="Adieresis" unicode="&#xc4;" horiz-adv-x="870" 
d="M1037 729q-76 -86 -145.5 -175.5t-122 -176.5t-84 -167.5t-31.5 -149.5q0 -26 9 -37t24 -11q29 0 76 32t97 83q16 17 33.5 36.5t34 39t30 36.5t22.5 28l8 -5q-23 -30 -52.5 -67.5t-77.5 -85.5q-51 -51 -101.5 -85t-101.5 -34q-25 0 -41.5 8t-26 21.5t-13.5 30.5t-4 36
q0 61 20 117.5t47 107.5h-140q-41 -48 -91.5 -103t-108.5 -101.5t-122 -77.5t-133 -31q-30 0 -57.5 7t-49.5 21.5t-35 36.5t-13 53q0 29 16 53t48 24q20 0 34 -12.5t14 -30.5q0 -27 -16 -39t-42 -12q0 -21 10 -38t25 -28t34 -17t37 -6q45 0 88.5 15.5t85.5 41.5t81 60t75 70
t68 72.5t59 66.5q55 62 114.5 122.5t124.5 114t136.5 96t150.5 66.5zM643 323q56 99 127 188t155 167l-2 2q-118 -62 -217.5 -154t-197.5 -203h135zM1105 890q19 0 32 -14.5t13 -33.5t-13 -33.5t-32 -14.5t-32 14.5t-13 33.5t13 33.5t32 14.5zM925 890q19 0 32 -14.5
t13 -33.5t-13 -33.5t-32 -14.5t-32 14.5t-13 33.5t13 33.5t32 14.5z" />
    <glyph glyph-name="Aring" unicode="&#xc5;" horiz-adv-x="870" 
d="M1037 729q-76 -86 -145.5 -175.5t-122 -176.5t-84 -167.5t-31.5 -149.5q0 -26 9 -37t24 -11q29 0 76 32t97 83q16 17 33.5 36.5t34 39t30 36.5t22.5 28l8 -5q-23 -30 -52.5 -67.5t-77.5 -85.5q-51 -51 -101.5 -85t-101.5 -34q-25 0 -41.5 8t-26 21.5t-13.5 30.5t-4 36
q0 61 20 117.5t47 107.5h-140q-41 -48 -91.5 -103t-108.5 -101.5t-122 -77.5t-133 -31q-30 0 -57.5 7t-49.5 21.5t-35 36.5t-13 53q0 29 16 53t48 24q20 0 34 -12.5t14 -30.5q0 -27 -16 -39t-42 -12q0 -21 10 -38t25 -28t34 -17t37 -6q45 0 88.5 15.5t85.5 41.5t81 60t75 70
t68 72.5t59 66.5q55 62 114.5 122.5t124.5 114t136.5 96t150.5 66.5zM643 323q56 99 127 188t155 167l-2 2q-118 -62 -217.5 -154t-197.5 -203h135zM1078 927q-19 0 -37 -14.5t-31.5 -34.5t-21.5 -42.5t-8 -39.5q0 -16 7 -27.5t25 -11.5q20 0 37.5 14.5t31 34.5t21.5 43
t8 39t-7 27.5t-25 11.5zM1070 937q15 0 30 -4t27 -12.5t19.5 -21.5t7.5 -30q0 -26 -11.5 -48t-30 -38.5t-42.5 -26t-50 -9.5q-15 0 -30 4t-27 12.5t-19.5 21.5t-7.5 30q0 26 11.5 48t30 38.5t43 26t49.5 9.5z" />
    <glyph glyph-name="Ccedilla" unicode="&#xc7;" horiz-adv-x="667" 
d="M542 578q-5 -9 -7.5 -22t-2.5 -24q0 -32 20 -50.5t51 -18.5q32 0 61.5 16t52 41.5t35.5 57t13 62.5q0 22 -9.5 35.5t-24 21t-30 10.5t-27.5 3q-52 0 -109 -23t-112.5 -62.5t-105.5 -92.5t-88 -114t-60.5 -126t-22.5 -128q0 -37 8.5 -67.5t25.5 -53t42 -35t58 -12.5
q43 0 84 19t73.5 51.5t52 75t19.5 88.5q0 41 -17 69t-61 28q-23 0 -44 -12t-40 -29.5t-34 -37t-26 -35.5l-10 5q17 26 37 49.5t43.5 42.5t51.5 30t62 11q52 0 85 -31.5t33 -82.5q0 -61 -30.5 -108t-79 -79t-108 -49t-117.5 -17q-100 0 -155 57t-55 156q0 64 27 128
t72.5 122.5t106 108.5t127.5 87t136 58t132 21q29 0 56 -6t48 -19.5t33.5 -36.5t12.5 -57q0 -37 -18 -66.5t-46.5 -49.5t-63.5 -31t-68 -11q-21 0 -40.5 5t-34.5 15.5t-24.5 27t-9.5 39.5q0 14 4 28t8 21zM277 -5l-20 -30t-17 -32q7 2 18 2.5t18 0.5q29 0 49.5 -14t20.5 -47
q0 -21 -9.5 -35t-25 -22.5t-35.5 -12t-42 -3.5q-13 0 -33 3t-39 8.5t-32.5 12.5t-13.5 15q0 6 3 7.5t7 1.5q3 0 12.5 -4t23 -8.5t30 -8t34.5 -3.5q12 0 25.5 1.5t24 7t17.5 15t7 24.5q0 23 -14.5 30.5t-29.5 7.5q-14 0 -25 -2t-19 -2q-7 0 -7 7q0 4 6.5 15t14.5 24
t15.5 24.5t10.5 16.5h25z" />
    <glyph glyph-name="Eacute" unicode="&#xc9;" horiz-adv-x="685" 
d="M500 486q22 -8 46 -8q63 0 99.5 33t36.5 99q0 47 -25 73.5t-73 26.5q-29 0 -52.5 -11.5t-40.5 -30.5t-27.5 -44t-14.5 -51q-6 -35 -11.5 -61t-17 -46.5t-31.5 -37t-55 -33.5q-40 -19 -73 -38.5t-56 -45t-36 -60.5t-13 -85q0 -40 16.5 -70.5t43.5 -51.5t61.5 -31.5
t71.5 -10.5q39 0 74 11.5t62 34t43 55.5t16 75t-21.5 66t-63.5 24q-37 0 -66.5 -19t-53.5 -45l-7 5q36 37 75.5 57t92.5 20q27 0 50 -7.5t40.5 -22t27.5 -36t10 -48.5q0 -52 -36 -88t-88.5 -58.5t-110.5 -32t-102 -9.5q-41 0 -83.5 8.5t-76.5 28.5t-55.5 53t-21.5 83
q0 49 20 81.5t50.5 55.5t66 40t66.5 35t52 40t23 55q4 72 25.5 121.5t56.5 79.5t81 43.5t97 13.5q27 0 56 -5t52.5 -18t38.5 -35t15 -55q0 -36 -16.5 -62.5t-42.5 -44.5t-58 -27t-64 -9q-19 0 -37.5 2.5t-36.5 8.5zM742 889q0 -23 -19 -48.5t-44.5 -47.5t-49.5 -36t-35 -14
q-6 0 -6 7q0 5 11.5 14.5t26.5 24t29.5 32.5t19.5 40q2 8 5 18.5t7 19.5t10 15.5t13 6.5q15 0 23.5 -9t8.5 -23z" />
    <glyph glyph-name="Ntilde" unicode="&#xd1;" horiz-adv-x="796" 
d="M1055 515q26 6 44.5 24t18.5 51q0 26 -20 45t-58 19q-61 0 -123 -55t-122 -148t-117 -215.5t-109 -257.5l-14 2q2 17 3.5 35t1.5 35q0 65 -10 129t-23 127t-23.5 126.5t-12.5 127.5h-2q-23 -47 -51.5 -108t-62.5 -124.5t-75 -124t-89 -108t-103.5 -76.5t-119.5 -29
q-27 0 -52 8.5t-43.5 25t-30 39.5t-11.5 52q0 30 16.5 50t44.5 20q22 0 36 -12.5t14 -30.5q0 -39 -39 -47q-4 -43 18.5 -65t64.5 -22q54 0 102.5 25.5t91.5 67.5t80.5 95.5t69 109t57.5 108.5t46 94l36 76q6 41 17.5 67.5t24.5 42.5t25.5 22t19.5 6q10 0 10 -8q0 -4 -2.5 -8
t-5 -12t-5 -23t-2.5 -40q0 -51 9 -103.5t20 -107.5t19.5 -112t8.5 -118q0 -22 -3 -43h2q16 40 41.5 96.5t59 119t73.5 124t85 110t94 79t101 30.5q43 0 70 -22t27 -62q0 -25 -11 -45.5t-29 -35.5t-40 -23t-43 -9v6zM653 785q2 16 8 33t16.5 31t25 23t32.5 9q23 0 41.5 -6
t35.5 -13t32.5 -13t30.5 -6q26 0 40 12.5t23 35.5h17q-3 -17 -10 -34t-18.5 -31t-26.5 -22.5t-34 -8.5q-20 0 -38 5.5t-35 13.5t-34 13.5t-34 5.5q-23 0 -36.5 -14t-21.5 -34h-14z" />
    <glyph glyph-name="Odieresis" unicode="&#xd6;" horiz-adv-x="741" 
d="M859 262q-39 -35 -83.5 -54t-85.5 -19q-47 0 -85 14q-32 -40 -71 -79.5t-83.5 -70.5t-94.5 -50t-104 -19q-50 0 -83.5 15t-54 40.5t-29 58t-8.5 68.5q0 55 17.5 113t49 112.5t74.5 104t93 87.5t105.5 63t111.5 30q32 30 58.5 38t50.5 8q60 0 88.5 -45t28.5 -115
q0 -44 -12.5 -91.5t-32.5 -93t-45 -88t-50 -76.5q17 -8 35.5 -10t38.5 -2q24 0 47.5 6t45.5 16t40.5 22t31.5 24zM432 452q0 58 22.5 112.5t61.5 96.5l-2 2q-50 -10 -94 -38.5t-81.5 -69t-67 -90.5t-50 -103t-31.5 -105.5t-11 -99.5q0 -30 5 -58t16.5 -49.5t31 -34.5
t48.5 -13q44 0 87 21.5t81.5 53.5t69 70.5t49.5 72.5q-31 17 -56 41.5t-42.5 55t-27 65t-9.5 70.5zM604 557q2 6 3 17t1 20q0 14 -4 27.5t-13 23t-23.5 15t-36.5 4.5q-15 -16 -26 -38.5t-18.5 -48t-11 -52t-3.5 -49.5q0 -33 5 -69t17 -69.5t31.5 -61.5t49.5 -45
q22 36 40.5 78.5t31.5 87t20 89t7 85.5q0 26 -4 49t-13 40.5t-24 27.5t-37 10q-18 0 -31 -6t-23 -16q22 -1 37 -8t24 -18.5t13 -26.5t4 -30q0 -12 -1.5 -20.5t-3.5 -16.5zM759 890q19 0 32 -14.5t13 -33.5t-13 -33.5t-32 -14.5t-32 14.5t-13 33.5t13 33.5t32 14.5zM579 890
q19 0 32 -14.5t13 -33.5t-13 -33.5t-32 -14.5t-32 14.5t-13 33.5t13 33.5t32 14.5z" />
    <glyph glyph-name="Udieresis" unicode="&#xdc;" horiz-adv-x="833" 
d="M984 700l-260 -404q-34 -54 -58 -93.5t-38 -68.5t-20.5 -50.5t-6.5 -39.5q0 -17 6.5 -26.5t21.5 -9.5q30 0 69 24.5t81 62.5t84 83.5t78 87.5l9 -7q-9 -11 -24.5 -29t-34 -38.5t-38.5 -41.5t-38 -39q-60 -59 -108 -90t-97 -31q-50 0 -69.5 22.5t-19.5 56.5t16 68.5
t34 62.5l-2 2q-31 -37 -69 -75t-79.5 -68.5t-85.5 -49.5t-88 -19q-36 0 -53.5 20t-17.5 55q0 32 23 80.5t58 104.5t75 115.5t75 115.5t58 103.5t23 78.5q0 23 -17.5 36t-47.5 13q-48 0 -99 -22.5t-92 -59t-67.5 -84.5t-26.5 -99q0 -27 16 -49.5t45 -22.5q40 0 72 24.5
t58 57.5l8 -6q-29 -38 -67 -66t-87 -28q-42 0 -66.5 24.5t-24.5 66.5q0 58 34.5 109t88.5 89.5t120.5 61t129.5 22.5q45 0 76 -24t31 -72q0 -30 -23 -76t-58 -100.5t-75 -112.5t-75 -112t-58 -100t-23 -75q0 -20 11 -30t30 -10q33 0 79 28t94 72t92.5 97.5t75.5 103.5
l232 377zM842 890q19 0 32 -14.5t13 -33.5t-13 -33.5t-32 -14.5t-32 14.5t-13 33.5t13 33.5t32 14.5zM662 890q19 0 32 -14.5t13 -33.5t-13 -33.5t-32 -14.5t-32 14.5t-13 33.5t13 33.5t32 14.5z" />
    <glyph glyph-name="aacute" unicode="&#xe1;" horiz-adv-x="519" 
d="M394 346l104 6q-9 -18 -26 -43.5t-37 -55t-40.5 -61t-37.5 -61t-27.5 -55t-10.5 -43.5q0 -25 25 -25q24 0 65 28t86 74q19 19 38.5 41t37.5 43.5t33 40t24 30.5l7 -4q-26 -35 -60 -77.5t-82 -90.5t-94.5 -78.5t-92.5 -30.5q-32 0 -49.5 16.5t-17.5 40.5q0 8 1 15t3 11h-2
q-31 -35 -70 -59t-84 -24q-24 0 -41 9t-27.5 24.5t-15.5 35t-5 40.5q0 49 27 98t68 88.5t91.5 64t96.5 24.5q35 0 55 -15t33 -47zM94 90q0 -29 9.5 -50.5t40.5 -21.5q21 1 44 17.5t44.5 41.5t41 55.5t34 61.5t23 58.5t8.5 46.5q0 27 -10 42t-39 15q-23 0 -46.5 -14t-45 -37
t-41 -51.5t-33.5 -58.5t-22 -57.5t-8 -47.5zM488 558q0 -23 -19 -48.5t-44.5 -47.5t-49.5 -36t-35 -14q-6 0 -6 7q0 5 11.5 14.5t26.5 24t29.5 32.5t19.5 40q2 8 5 18.5t7 19.5t10 15.5t13 6.5q15 0 23.5 -9t8.5 -23z" />
    <glyph glyph-name="agrave" unicode="&#xe0;" horiz-adv-x="519" 
d="M394 346l104 6q-9 -18 -26 -43.5t-37 -55t-40.5 -61t-37.5 -61t-27.5 -55t-10.5 -43.5q0 -25 25 -25q24 0 65 28t86 74q19 19 38.5 41t37.5 43.5t33 40t24 30.5l7 -4q-26 -35 -60 -77.5t-82 -90.5t-94.5 -78.5t-92.5 -30.5q-32 0 -49.5 16.5t-17.5 40.5q0 8 1 15t3 11h-2
q-31 -35 -70 -59t-84 -24q-24 0 -41 9t-27.5 24.5t-15.5 35t-5 40.5q0 49 27 98t68 88.5t91.5 64t96.5 24.5q35 0 55 -15t33 -47zM94 90q0 -29 9.5 -50.5t40.5 -21.5q21 1 44 17.5t44.5 41.5t41 55.5t34 61.5t23 58.5t8.5 46.5q0 27 -10 42t-39 15q-23 0 -46.5 -14t-45 -37
t-41 -51.5t-33.5 -58.5t-22 -57.5t-8 -47.5zM232 558q0 14 8.5 23t23.5 9q8 0 13.5 -6.5t9.5 -15.5t7 -19.5t5 -18.5q5 -22 19.5 -40t29.5 -32.5t26.5 -24t11.5 -14.5q0 -7 -6 -7q-10 0 -34.5 14t-50 36t-44.5 47.5t-19 48.5z" />
    <glyph glyph-name="acircumflex" unicode="&#xe2;" horiz-adv-x="519" 
d="M394 346l104 6q-9 -18 -26 -43.5t-37 -55t-40.5 -61t-37.5 -61t-27.5 -55t-10.5 -43.5q0 -25 25 -25q24 0 65 28t86 74q19 19 38.5 41t37.5 43.5t33 40t24 30.5l7 -4q-26 -35 -60 -77.5t-82 -90.5t-94.5 -78.5t-92.5 -30.5q-32 0 -49.5 16.5t-17.5 40.5q0 8 1 15t3 11h-2
q-31 -35 -70 -59t-84 -24q-24 0 -41 9t-27.5 24.5t-15.5 35t-5 40.5q0 49 27 98t68 88.5t91.5 64t96.5 24.5q35 0 55 -15t33 -47zM94 90q0 -29 9.5 -50.5t40.5 -21.5q21 1 44 17.5t44.5 41.5t41 55.5t34 61.5t23 58.5t8.5 46.5q0 27 -10 42t-39 15q-23 0 -46.5 -14t-45 -37
t-41 -51.5t-33.5 -58.5t-22 -57.5t-8 -47.5zM415 590q10 -40 24 -69t27 -49t22 -31.5t9 -16.5q0 -8 -9 -8q-5 0 -18.5 13t-29 30.5t-29 33.5t-17.5 22q-13 -10 -35.5 -26.5t-45 -32t-42 -26.5t-28.5 -11q-4 0 -4 7q0 5 13.5 15t36 29t51 48.5t57.5 71.5h18z" />
    <glyph glyph-name="adieresis" unicode="&#xe4;" horiz-adv-x="519" 
d="M394 346l104 6q-9 -18 -26 -43.5t-37 -55t-40.5 -61t-37.5 -61t-27.5 -55t-10.5 -43.5q0 -25 25 -25q24 0 65 28t86 74q19 19 38.5 41t37.5 43.5t33 40t24 30.5l7 -4q-26 -35 -60 -77.5t-82 -90.5t-94.5 -78.5t-92.5 -30.5q-32 0 -49.5 16.5t-17.5 40.5q0 8 1 15t3 11h-2
q-31 -35 -70 -59t-84 -24q-24 0 -41 9t-27.5 24.5t-15.5 35t-5 40.5q0 49 27 98t68 88.5t91.5 64t96.5 24.5q35 0 55 -15t33 -47zM94 90q0 -29 9.5 -50.5t40.5 -21.5q21 1 44 17.5t44.5 41.5t41 55.5t34 61.5t23 58.5t8.5 46.5q0 27 -10 42t-39 15q-23 0 -46.5 -14t-45 -37
t-41 -51.5t-33.5 -58.5t-22 -57.5t-8 -47.5zM477 559q19 0 32 -14.5t13 -33.5t-13 -33.5t-32 -14.5t-32 14.5t-13 33.5t13 33.5t32 14.5zM297 559q19 0 32 -14.5t13 -33.5t-13 -33.5t-32 -14.5t-32 14.5t-13 33.5t13 33.5t32 14.5z" />
    <glyph glyph-name="atilde" unicode="&#xe3;" horiz-adv-x="519" 
d="M394 346l104 6q-9 -18 -26 -43.5t-37 -55t-40.5 -61t-37.5 -61t-27.5 -55t-10.5 -43.5q0 -25 25 -25q24 0 65 28t86 74q19 19 38.5 41t37.5 43.5t33 40t24 30.5l7 -4q-26 -35 -60 -77.5t-82 -90.5t-94.5 -78.5t-92.5 -30.5q-32 0 -49.5 16.5t-17.5 40.5q0 8 1 15t3 11h-2
q-31 -35 -70 -59t-84 -24q-24 0 -41 9t-27.5 24.5t-15.5 35t-5 40.5q0 49 27 98t68 88.5t91.5 64t96.5 24.5q35 0 55 -15t33 -47zM94 90q0 -29 9.5 -50.5t40.5 -21.5q21 1 44 17.5t44.5 41.5t41 55.5t34 61.5t23 58.5t8.5 46.5q0 27 -10 42t-39 15q-23 0 -46.5 -14t-45 -37
t-41 -51.5t-33.5 -58.5t-22 -57.5t-8 -47.5zM242 454q2 16 8 33t16.5 31t25 23t32.5 9q23 0 41.5 -6t35.5 -13t32.5 -13t30.5 -6q26 0 40 12.5t23 35.5h17q-3 -17 -10 -34t-18.5 -31t-26.5 -22.5t-34 -8.5q-20 0 -38 5.5t-35 13.5t-34 13.5t-34 5.5q-23 0 -36.5 -14
t-21.5 -34h-14z" />
    <glyph glyph-name="aring" unicode="&#xe5;" horiz-adv-x="519" 
d="M394 346l104 6q-9 -18 -26 -43.5t-37 -55t-40.5 -61t-37.5 -61t-27.5 -55t-10.5 -43.5q0 -25 25 -25q24 0 65 28t86 74q19 19 38.5 41t37.5 43.5t33 40t24 30.5l7 -4q-26 -35 -60 -77.5t-82 -90.5t-94.5 -78.5t-92.5 -30.5q-32 0 -49.5 16.5t-17.5 40.5q0 8 1 15t3 11h-2
q-31 -35 -70 -59t-84 -24q-24 0 -41 9t-27.5 24.5t-15.5 35t-5 40.5q0 49 27 98t68 88.5t91.5 64t96.5 24.5q35 0 55 -15t33 -47zM94 90q0 -29 9.5 -50.5t40.5 -21.5q21 1 44 17.5t44.5 41.5t41 55.5t34 61.5t23 58.5t8.5 46.5q0 27 -10 42t-39 15q-23 0 -46.5 -14t-45 -37
t-41 -51.5t-33.5 -58.5t-22 -57.5t-8 -47.5zM450 596q-19 0 -37 -14.5t-31.5 -34.5t-21.5 -42.5t-8 -39.5q0 -16 7 -27.5t25 -11.5q20 0 37.5 14.5t31 34.5t21.5 43t8 39t-7 27.5t-25 11.5zM442 606q15 0 30 -4t27 -12.5t19.5 -21.5t7.5 -30q0 -26 -11.5 -48t-30 -38.5
t-42.5 -26t-50 -9.5q-15 0 -30 4t-27 12.5t-19.5 21.5t-7.5 30q0 26 11.5 48t30 38.5t43 26t49.5 9.5z" />
    <glyph glyph-name="ccedilla" unicode="&#xe7;" horiz-adv-x="407" 
d="M525 258q-37 -45 -80 -93.5t-92.5 -88.5t-106 -66t-119.5 -26q-60 0 -92 32.5t-32 95.5q0 48 28 94t72 82t97 58t103 22q46 0 73 -18.5t27 -45.5q0 -19 -7.5 -34.5t-19.5 -26t-27 -16t-30 -5.5q-13 0 -23 2q7 23 15 47t8 48q0 17 -8 27t-22 10q-26 0 -59 -20.5t-62 -55
t-49 -79t-20 -92.5q0 -38 23 -64.5t64 -26.5q49 0 97.5 27t92 65.5t79.5 80t61 71.5zM147 -5l-20 -30t-17 -32q7 2 18 2.5t18 0.5q29 0 49.5 -14t20.5 -47q0 -21 -9.5 -35t-25 -22.5t-35.5 -12t-42 -3.5q-13 0 -33 3t-39 8.5t-32.5 12.5t-13.5 15q0 6 3 7.5t7 1.5
q3 0 12.5 -4t23 -8.5t30 -8t34.5 -3.5q12 0 25.5 1.5t24 7t17.5 15t7 24.5q0 23 -14.5 30.5t-29.5 7.5q-14 0 -25 -2t-19 -2q-7 0 -7 7q0 4 6.5 15t14.5 24t15.5 24.5t10.5 16.5h25z" />
    <glyph glyph-name="eacute" unicode="&#xe9;" horiz-adv-x="407" 
d="M525 262q-31 -42 -66.5 -83t-84.5 -86q-69 -62 -132.5 -85.5t-119.5 -23.5q-57 0 -90 34t-33 88q0 48 29 95t73 84t96.5 60t99.5 23q43 0 67 -16.5t24 -46.5q0 -24 -16.5 -44t-42.5 -36t-58.5 -28t-64.5 -21t-60 -15t-46 -10q-5 -20 -5 -36q0 -43 24 -70t67 -27
q42 0 92.5 25t101.5 73q39 37 75 77.5t63 75.5zM308 330q0 14 -7.5 20t-19.5 6q-25 0 -54 -21t-54.5 -51.5t-45 -64t-25.5 -58.5q41 8 78 26.5t65.5 42t45.5 50t17 50.5zM450 558q0 -23 -19 -48.5t-44.5 -47.5t-49.5 -36t-35 -14q-6 0 -6 7q0 5 11.5 14.5t26.5 24t29.5 32.5
t19.5 40q2 8 5 18.5t7 19.5t10 15.5t13 6.5q15 0 23.5 -9t8.5 -23z" />
    <glyph glyph-name="egrave" unicode="&#xe8;" horiz-adv-x="407" 
d="M525 262q-31 -42 -66.5 -83t-84.5 -86q-69 -62 -132.5 -85.5t-119.5 -23.5q-57 0 -90 34t-33 88q0 48 29 95t73 84t96.5 60t99.5 23q43 0 67 -16.5t24 -46.5q0 -24 -16.5 -44t-42.5 -36t-58.5 -28t-64.5 -21t-60 -15t-46 -10q-5 -20 -5 -36q0 -43 24 -70t67 -27
q42 0 92.5 25t101.5 73q39 37 75 77.5t63 75.5zM308 330q0 14 -7.5 20t-19.5 6q-25 0 -54 -21t-54.5 -51.5t-45 -64t-25.5 -58.5q41 8 78 26.5t65.5 42t45.5 50t17 50.5zM194 558q0 14 8.5 23t23.5 9q8 0 13.5 -6.5t9.5 -15.5t7 -19.5t5 -18.5q5 -22 19.5 -40t29.5 -32.5
t26.5 -24t11.5 -14.5q0 -7 -6 -7q-10 0 -34.5 14t-50 36t-44.5 47.5t-19 48.5z" />
    <glyph glyph-name="ecircumflex" unicode="&#xea;" horiz-adv-x="407" 
d="M525 262q-31 -42 -66.5 -83t-84.5 -86q-69 -62 -132.5 -85.5t-119.5 -23.5q-57 0 -90 34t-33 88q0 48 29 95t73 84t96.5 60t99.5 23q43 0 67 -16.5t24 -46.5q0 -24 -16.5 -44t-42.5 -36t-58.5 -28t-64.5 -21t-60 -15t-46 -10q-5 -20 -5 -36q0 -43 24 -70t67 -27
q42 0 92.5 25t101.5 73q39 37 75 77.5t63 75.5zM308 330q0 14 -7.5 20t-19.5 6q-25 0 -54 -21t-54.5 -51.5t-45 -64t-25.5 -58.5q41 8 78 26.5t65.5 42t45.5 50t17 50.5zM377 590q10 -40 24 -69t27 -49t22 -31.5t9 -16.5q0 -8 -9 -8q-5 0 -18.5 13t-29 30.5t-29 33.5
t-17.5 22q-13 -10 -35.5 -26.5t-45 -32t-42 -26.5t-28.5 -11q-4 0 -4 7q0 5 13.5 15t36 29t51 48.5t57.5 71.5h18z" />
    <glyph glyph-name="edieresis" unicode="&#xeb;" horiz-adv-x="407" 
d="M525 262q-31 -42 -66.5 -83t-84.5 -86q-69 -62 -132.5 -85.5t-119.5 -23.5q-57 0 -90 34t-33 88q0 48 29 95t73 84t96.5 60t99.5 23q43 0 67 -16.5t24 -46.5q0 -24 -16.5 -44t-42.5 -36t-58.5 -28t-64.5 -21t-60 -15t-46 -10q-5 -20 -5 -36q0 -43 24 -70t67 -27
q42 0 92.5 25t101.5 73q39 37 75 77.5t63 75.5zM308 330q0 14 -7.5 20t-19.5 6q-25 0 -54 -21t-54.5 -51.5t-45 -64t-25.5 -58.5q41 8 78 26.5t65.5 42t45.5 50t17 50.5zM439 559q19 0 32 -14.5t13 -33.5t-13 -33.5t-32 -14.5t-32 14.5t-13 33.5t13 33.5t32 14.5zM259 559
q19 0 32 -14.5t13 -33.5t-13 -33.5t-32 -14.5t-32 14.5t-13 33.5t13 33.5t32 14.5z" />
    <glyph glyph-name="iacute" unicode="&#xed;" horiz-adv-x="259" 
d="M243 352q-47 -74 -81 -126.5t-55.5 -89.5t-32 -60.5t-10.5 -38.5q0 -12 4.5 -19.5t13.5 -7.5q20 0 56.5 23t91.5 79q22 23 43 45.5t39.5 43.5t33 38t23.5 27l9 -6q-12 -16 -29.5 -36.5t-37.5 -43t-41 -44.5t-41 -42q-58 -58 -99.5 -81t-76.5 -23q-33 0 -51 18t-18 47
q0 20 7.5 41.5t25.5 53.5t48 79.5t75 117.5zM336 558q0 -23 -19 -48.5t-44.5 -47.5t-49.5 -36t-35 -14q-6 0 -6 7q0 5 11.5 14.5t26.5 24t29.5 32.5t19.5 40q2 8 5 18.5t7 19.5t10 15.5t13 6.5q15 0 23.5 -9t8.5 -23z" />
    <glyph glyph-name="igrave" unicode="&#xec;" horiz-adv-x="259" 
d="M243 352q-47 -74 -81 -126.5t-55.5 -89.5t-32 -60.5t-10.5 -38.5q0 -12 4.5 -19.5t13.5 -7.5q20 0 56.5 23t91.5 79q22 23 43 45.5t39.5 43.5t33 38t23.5 27l9 -6q-12 -16 -29.5 -36.5t-37.5 -43t-41 -44.5t-41 -42q-58 -58 -99.5 -81t-76.5 -23q-33 0 -51 18t-18 47
q0 20 7.5 41.5t25.5 53.5t48 79.5t75 117.5zM80 558q0 14 8.5 23t23.5 9q8 0 13.5 -6.5t9.5 -15.5t7 -19.5t5 -18.5q5 -22 19.5 -40t29.5 -32.5t26.5 -24t11.5 -14.5q0 -7 -6 -7q-10 0 -34.5 14t-50 36t-44.5 47.5t-19 48.5z" />
    <glyph glyph-name="icircumflex" unicode="&#xee;" horiz-adv-x="259" 
d="M243 352q-47 -74 -81 -126.5t-55.5 -89.5t-32 -60.5t-10.5 -38.5q0 -12 4.5 -19.5t13.5 -7.5q20 0 56.5 23t91.5 79q22 23 43 45.5t39.5 43.5t33 38t23.5 27l9 -6q-12 -16 -29.5 -36.5t-37.5 -43t-41 -44.5t-41 -42q-58 -58 -99.5 -81t-76.5 -23q-33 0 -51 18t-18 47
q0 20 7.5 41.5t25.5 53.5t48 79.5t75 117.5zM263 590q10 -40 24 -69t27 -49t22 -31.5t9 -16.5q0 -8 -9 -8q-5 0 -18.5 13t-29 30.5t-29 33.5t-17.5 22q-13 -10 -35.5 -26.5t-45 -32t-42 -26.5t-28.5 -11q-4 0 -4 7q0 5 13.5 15t36 29t51 48.5t57.5 71.5h18z" />
    <glyph glyph-name="idieresis" unicode="&#xef;" horiz-adv-x="259" 
d="M243 352q-47 -74 -81 -126.5t-55.5 -89.5t-32 -60.5t-10.5 -38.5q0 -12 4.5 -19.5t13.5 -7.5q20 0 56.5 23t91.5 79q22 23 43 45.5t39.5 43.5t33 38t23.5 27l9 -6q-12 -16 -29.5 -36.5t-37.5 -43t-41 -44.5t-41 -42q-58 -58 -99.5 -81t-76.5 -23q-33 0 -51 18t-18 47
q0 20 7.5 41.5t25.5 53.5t48 79.5t75 117.5zM325 559q19 0 32 -14.5t13 -33.5t-13 -33.5t-32 -14.5t-32 14.5t-13 33.5t13 33.5t32 14.5zM145 559q19 0 32 -14.5t13 -33.5t-13 -33.5t-32 -14.5t-32 14.5t-13 33.5t13 33.5t32 14.5z" />
    <glyph glyph-name="ntilde" unicode="&#xf1;" 
d="M114 172q14 18 40.5 51t60.5 65t73 56t78 24q33 0 50 -18.5t17 -45.5q0 -34 -21.5 -69.5t-47.5 -71t-47.5 -68t-21.5 -60.5q0 -12 6 -19.5t20 -7.5t46.5 21.5t87.5 79.5q43 46 79 89.5t54 65.5l10 -5q-26 -31 -64 -77t-81 -91q-52 -55 -88.5 -78t-75.5 -23q-38 0 -56 21
t-18 48q0 34 21.5 70t47.5 70.5t47.5 65.5t21.5 54q0 11 -7 18t-21 7q-20 0 -47 -18.5t-57 -48t-61 -67t-58.5 -75t-49.5 -72.5t-35 -60l-101 -3q53 88 106.5 174.5t105.5 177.5l114 4l-130 -182zM200 454q2 16 8 33t16.5 31t25 23t32.5 9q23 0 41.5 -6t35.5 -13t32.5 -13
t30.5 -6q26 0 40 12.5t23 35.5h17q-3 -17 -10 -34t-18.5 -31t-26.5 -22.5t-34 -8.5q-20 0 -38 5.5t-35 13.5t-34 13.5t-34 5.5q-23 0 -36.5 -14t-21.5 -34h-14z" />
    <glyph glyph-name="oacute" unicode="&#xf3;" 
d="M597 259q-20 -26 -47.5 -47t-60.5 -21q-23 0 -40 10t-31 28q-12 -50 -39.5 -94.5t-66.5 -78t-87 -53t-100 -19.5q-55 0 -88 31.5t-33 86.5q0 53 27 101.5t70 85t95 58t102 21.5q54 0 85 -29t38 -70q5 -30 22.5 -48t45.5 -18q27 0 51 16t51 48zM132 -4q25 0 50 17t48 44
t42.5 61t34 68t22.5 65t8 52q0 25 -10.5 39t-33.5 14q-25 0 -50 -17t-48 -44t-42.5 -61t-34 -68t-22.5 -65t-8 -52q0 -25 10.5 -39t33.5 -14zM446 558q0 -23 -19 -48.5t-44.5 -47.5t-49.5 -36t-35 -14q-6 0 -6 7q0 5 11.5 14.5t26.5 24t29.5 32.5t19.5 40q2 8 5 18.5t7 19.5
t10 15.5t13 6.5q15 0 23.5 -9t8.5 -23z" />
    <glyph glyph-name="ograve" unicode="&#xf2;" 
d="M597 259q-20 -26 -47.5 -47t-60.5 -21q-23 0 -40 10t-31 28q-12 -50 -39.5 -94.5t-66.5 -78t-87 -53t-100 -19.5q-55 0 -88 31.5t-33 86.5q0 53 27 101.5t70 85t95 58t102 21.5q54 0 85 -29t38 -70q5 -30 22.5 -48t45.5 -18q27 0 51 16t51 48zM132 -4q25 0 50 17t48 44
t42.5 61t34 68t22.5 65t8 52q0 25 -10.5 39t-33.5 14q-25 0 -50 -17t-48 -44t-42.5 -61t-34 -68t-22.5 -65t-8 -52q0 -25 10.5 -39t33.5 -14zM190 558q0 14 8.5 23t23.5 9q8 0 13.5 -6.5t9.5 -15.5t7 -19.5t5 -18.5q5 -22 19.5 -40t29.5 -32.5t26.5 -24t11.5 -14.5
q0 -7 -6 -7q-10 0 -34.5 14t-50 36t-44.5 47.5t-19 48.5z" />
    <glyph glyph-name="ocircumflex" unicode="&#xf4;" 
d="M597 259q-20 -26 -47.5 -47t-60.5 -21q-23 0 -40 10t-31 28q-12 -50 -39.5 -94.5t-66.5 -78t-87 -53t-100 -19.5q-55 0 -88 31.5t-33 86.5q0 53 27 101.5t70 85t95 58t102 21.5q54 0 85 -29t38 -70q5 -30 22.5 -48t45.5 -18q27 0 51 16t51 48zM132 -4q25 0 50 17t48 44
t42.5 61t34 68t22.5 65t8 52q0 25 -10.5 39t-33.5 14q-25 0 -50 -17t-48 -44t-42.5 -61t-34 -68t-22.5 -65t-8 -52q0 -25 10.5 -39t33.5 -14zM373 590q10 -40 24 -69t27 -49t22 -31.5t9 -16.5q0 -8 -9 -8q-5 0 -18.5 13t-29 30.5t-29 33.5t-17.5 22q-13 -10 -35.5 -26.5
t-45 -32t-42 -26.5t-28.5 -11q-4 0 -4 7q0 5 13.5 15t36 29t51 48.5t57.5 71.5h18z" />
    <glyph glyph-name="odieresis" unicode="&#xf6;" 
d="M597 259q-20 -26 -47.5 -47t-60.5 -21q-23 0 -40 10t-31 28q-12 -50 -39.5 -94.5t-66.5 -78t-87 -53t-100 -19.5q-55 0 -88 31.5t-33 86.5q0 53 27 101.5t70 85t95 58t102 21.5q54 0 85 -29t38 -70q5 -30 22.5 -48t45.5 -18q27 0 51 16t51 48zM132 -4q25 0 50 17t48 44
t42.5 61t34 68t22.5 65t8 52q0 25 -10.5 39t-33.5 14q-25 0 -50 -17t-48 -44t-42.5 -61t-34 -68t-22.5 -65t-8 -52q0 -25 10.5 -39t33.5 -14zM435 559q19 0 32 -14.5t13 -33.5t-13 -33.5t-32 -14.5t-32 14.5t-13 33.5t13 33.5t32 14.5zM255 559q19 0 32 -14.5t13 -33.5
t-13 -33.5t-32 -14.5t-32 14.5t-13 33.5t13 33.5t32 14.5z" />
    <glyph glyph-name="otilde" unicode="&#xf5;" 
d="M597 259q-20 -26 -47.5 -47t-60.5 -21q-23 0 -40 10t-31 28q-12 -50 -39.5 -94.5t-66.5 -78t-87 -53t-100 -19.5q-55 0 -88 31.5t-33 86.5q0 53 27 101.5t70 85t95 58t102 21.5q54 0 85 -29t38 -70q5 -30 22.5 -48t45.5 -18q27 0 51 16t51 48zM132 -4q25 0 50 17t48 44
t42.5 61t34 68t22.5 65t8 52q0 25 -10.5 39t-33.5 14q-25 0 -50 -17t-48 -44t-42.5 -61t-34 -68t-22.5 -65t-8 -52q0 -25 10.5 -39t33.5 -14zM200 454q2 16 8 33t16.5 31t25 23t32.5 9q23 0 41.5 -6t35.5 -13t32.5 -13t30.5 -6q26 0 40 12.5t23 35.5h17q-3 -17 -10 -34
t-18.5 -31t-26.5 -22.5t-34 -8.5q-20 0 -38 5.5t-35 13.5t-34 13.5t-34 5.5q-23 0 -36.5 -14t-21.5 -34h-14z" />
    <glyph glyph-name="uacute" unicode="&#xfa;" 
d="M470 356q-39 -65 -72.5 -116t-57.5 -90.5t-37.5 -68.5t-13.5 -51t19 -22q12 0 29 8.5t36 22t39 31.5t38 36q22 23 43.5 46.5t40 45.5t33.5 40.5t25 31.5l8 -6q-24 -32 -61 -76.5t-79 -87.5q-51 -52 -94 -81t-85 -29q-30 0 -48 18t-18 45q0 19 3.5 34t8.5 23l-2 2
q-18 -19 -39 -40.5t-45 -39.5t-51.5 -30t-59.5 -12q-31 0 -47 19.5t-16 45.5q0 38 41 110t111 187l106 4q-79 -121 -128.5 -198.5t-49.5 -115.5q0 -12 6.5 -20t17.5 -8q19 0 45.5 16t55.5 43t57.5 62t51.5 73l86 140zM421 558q0 -23 -19 -48.5t-44.5 -47.5t-49.5 -36
t-35 -14q-6 0 -6 7q0 5 11.5 14.5t26.5 24t29.5 32.5t19.5 40q2 8 5 18.5t7 19.5t10 15.5t13 6.5q15 0 23.5 -9t8.5 -23z" />
    <glyph glyph-name="ugrave" unicode="&#xf9;" 
d="M470 356q-39 -65 -72.5 -116t-57.5 -90.5t-37.5 -68.5t-13.5 -51t19 -22q12 0 29 8.5t36 22t39 31.5t38 36q22 23 43.5 46.5t40 45.5t33.5 40.5t25 31.5l8 -6q-24 -32 -61 -76.5t-79 -87.5q-51 -52 -94 -81t-85 -29q-30 0 -48 18t-18 45q0 19 3.5 34t8.5 23l-2 2
q-18 -19 -39 -40.5t-45 -39.5t-51.5 -30t-59.5 -12q-31 0 -47 19.5t-16 45.5q0 38 41 110t111 187l106 4q-79 -121 -128.5 -198.5t-49.5 -115.5q0 -12 6.5 -20t17.5 -8q19 0 45.5 16t55.5 43t57.5 62t51.5 73l86 140zM165 558q0 14 8.5 23t23.5 9q8 0 13.5 -6.5t9.5 -15.5
t7 -19.5t5 -18.5q5 -22 19.5 -40t29.5 -32.5t26.5 -24t11.5 -14.5q0 -7 -6 -7q-10 0 -34.5 14t-50 36t-44.5 47.5t-19 48.5z" />
    <glyph glyph-name="ucircumflex" unicode="&#xfb;" 
d="M470 356q-39 -65 -72.5 -116t-57.5 -90.5t-37.5 -68.5t-13.5 -51t19 -22q12 0 29 8.5t36 22t39 31.5t38 36q22 23 43.5 46.5t40 45.5t33.5 40.5t25 31.5l8 -6q-24 -32 -61 -76.5t-79 -87.5q-51 -52 -94 -81t-85 -29q-30 0 -48 18t-18 45q0 19 3.5 34t8.5 23l-2 2
q-18 -19 -39 -40.5t-45 -39.5t-51.5 -30t-59.5 -12q-31 0 -47 19.5t-16 45.5q0 38 41 110t111 187l106 4q-79 -121 -128.5 -198.5t-49.5 -115.5q0 -12 6.5 -20t17.5 -8q19 0 45.5 16t55.5 43t57.5 62t51.5 73l86 140zM348 590q10 -40 24 -69t27 -49t22 -31.5t9 -16.5
q0 -8 -9 -8q-5 0 -18.5 13t-29 30.5t-29 33.5t-17.5 22q-13 -10 -35.5 -26.5t-45 -32t-42 -26.5t-28.5 -11q-4 0 -4 7q0 5 13.5 15t36 29t51 48.5t57.5 71.5h18z" />
    <glyph glyph-name="udieresis" unicode="&#xfc;" 
d="M470 356q-39 -65 -72.5 -116t-57.5 -90.5t-37.5 -68.5t-13.5 -51t19 -22q12 0 29 8.5t36 22t39 31.5t38 36q22 23 43.5 46.5t40 45.5t33.5 40.5t25 31.5l8 -6q-24 -32 -61 -76.5t-79 -87.5q-51 -52 -94 -81t-85 -29q-30 0 -48 18t-18 45q0 19 3.5 34t8.5 23l-2 2
q-18 -19 -39 -40.5t-45 -39.5t-51.5 -30t-59.5 -12q-31 0 -47 19.5t-16 45.5q0 38 41 110t111 187l106 4q-79 -121 -128.5 -198.5t-49.5 -115.5q0 -12 6.5 -20t17.5 -8q19 0 45.5 16t55.5 43t57.5 62t51.5 73l86 140zM410 559q19 0 32 -14.5t13 -33.5t-13 -33.5t-32 -14.5
t-32 14.5t-13 33.5t13 33.5t32 14.5zM230 559q19 0 32 -14.5t13 -33.5t-13 -33.5t-32 -14.5t-32 14.5t-13 33.5t13 33.5t32 14.5z" />
    <glyph glyph-name="dagger" unicode="&#x2020;" horiz-adv-x="500" 
d="M173 507h183l78 144q28 52 48 78.5t51 26.5q18 0 30 -10.5t12 -25.5q0 -19 -10 -35.5t-20 -32.5l-91 -145h185l-21 -34h-187l-343 -539h-54l302 539h-182z" />
    <glyph glyph-name="degree" unicode="&#xb0;" horiz-adv-x="400" 
d="M262 516q-21 0 -39.5 -8.5t-32 -23t-21.5 -33.5t-8 -40t8 -40t21.5 -33.5t32 -23t39.5 -8.5t39.5 8.5t32 23t21.5 33.5t8 40t-8 40t-21.5 33.5t-32 23t-39.5 8.5zM119 409q0 30 11 56t30.5 45.5t45.5 30.5t56 11t56 -11t45.5 -30.5t30.5 -45.5t11 -56t-11 -56
t-30.5 -45.5t-45.5 -30.5t-56 -11t-56 11t-45.5 30.5t-30.5 45.5t-11 56z" />
    <glyph glyph-name="cent" unicode="&#xa2;" horiz-adv-x="537" 
d="M343 381q-37 -2 -70.5 -27t-59 -60.5t-40 -76t-14.5 -74.5q0 -41 21 -65zM373 398q44 -2 66 -22.5t22 -46.5q0 -25 -11.5 -40.5t-28.5 -24t-36.5 -11.5t-36.5 -3q5 10 10 23t9.5 26t7 25.5t2.5 22.5q0 22 -15 32l-168 -314q21 -15 53 -15q26 0 50.5 7.5t45 18t37 22.5
t27.5 21l5 -7q-48 -44 -106 -72t-135 -28q-3 0 -5 1l-66 -124l-18 8l64 118q-38 8 -63.5 41.5t-25.5 79.5q0 44 26 89.5t68 83.5t95 63t107 27l54 100l16 -6z" />
    <glyph glyph-name="sterling" unicode="&#xa3;" horiz-adv-x="833" 
d="M662 470q41 0 87.5 10t86 33t65.5 59.5t26 90.5q0 30 -14.5 51.5t-43.5 21.5t-56 -15t-51.5 -38.5t-45.5 -53t-38 -59t-29.5 -55.5t-20.5 -43q8 -2 17 -2h17zM167 298l6 18h288q18 41 37 82t39 83q-32 8 -63.5 23t-57 38t-41 53t-15.5 66q0 27 10.5 50t29 39t43 25
t51.5 9q16 0 32 -4.5t28.5 -14t20 -24t7.5 -33.5q0 -8 -3 -21t-8 -22l-9 3q4 11 6 19.5t2 18.5q1 12 -4 22.5t-14 19t-21.5 13.5t-26.5 5q-22 0 -38.5 -11t-27 -28t-15.5 -39t-5 -45q0 -28 9.5 -53t26 -45.5t39 -34.5t49.5 -22q23 48 58.5 94.5t79.5 83t95.5 59.5t106.5 23
q22 0 43 -4.5t37 -14.5t25.5 -25.5t9.5 -38.5q0 -35 -16 -64t-42 -52t-60 -40t-69.5 -28.5t-70.5 -17t-64 -5.5q-25 0 -51 3q-18 -36 -34.5 -73t-35.5 -72h212l-8 -18h-213q-32 -66 -81.5 -118.5t-109.5 -92.5q51 -20 101.5 -32.5t105.5 -12.5q92 0 153.5 43.5t77.5 138.5h8
q-10 -57 -37 -101t-66 -73.5t-89 -44.5t-106 -15q-32 0 -64.5 7.5t-61 17.5t-51 20.5t-33.5 15.5q-48 -24 -95.5 -37.5t-101.5 -13.5q-30 0 -57 5.5t-47.5 16t-32.5 27t-12 38.5q0 32 32.5 52.5t80.5 20.5q72 0 136 -18t130 -46q45 42 75.5 93.5t53.5 108.5h-287zM-28 99
q0 -16 12 -31.5t32 -28t45.5 -20t52.5 -7.5q42 0 83 13t76 36q-24 12 -55 26t-64 26t-65.5 20.5t-59.5 8.5q-28 0 -42.5 -13t-14.5 -30z" />
    <glyph glyph-name="section" unicode="&#xa7;" horiz-adv-x="500" 
d="M505 313q0 -38 -15.5 -67.5t-41 -50.5t-58.5 -34t-67 -17q2 -12 4 -23t2 -23q0 -46 -20 -77.5t-51.5 -51t-69.5 -28.5t-74 -9q-32 0 -65 7.5t-59.5 23.5t-43.5 41t-17 59q0 19 6.5 38.5t19 35.5t31.5 26t43 10q28 0 57 -14q-32 -11 -54.5 -38.5t-22.5 -62.5q0 -52 32 -83
t85 -31q25 0 47 10t38 27t25 39.5t9 46.5q0 45 -20 82t-44.5 72.5t-44.5 73t-20 82.5q0 38 16 67t42 48.5t59 29.5t68 8l-4 28t-2 28q0 35 12.5 64.5t36 50.5t57 33t74.5 12q34 0 65 -8t54.5 -23t37.5 -37.5t14 -51.5q0 -22 -9.5 -38t-25 -25t-35 -12t-38.5 1q16 22 25 43
t9 46q0 43 -27.5 68t-63.5 25q-27 0 -47 -10.5t-33.5 -28.5t-20.5 -41.5t-7 -48.5q0 -35 20.5 -72t45.5 -74t45.5 -74t20.5 -72zM196 402q0 -33 14 -63.5t33 -60t39.5 -58t33.5 -57.5q45 10 75 41.5t30 79.5q0 33 -13 61.5t-31 56t-37.5 54.5t-31.5 56q-49 0 -80.5 -31
t-31.5 -79z" />
    <glyph glyph-name="bullet" unicode="&#x2022;" horiz-adv-x="500" 
d="M116 352q0 36 14 68t38 56t56 38t68 14t68 -14t56 -38t38 -56t14 -68t-14 -68t-38 -56t-56 -38t-68 -14t-68 14t-56 38t-38 56t-14 68z" />
    <glyph glyph-name="paragraph" unicode="&#xb6;" horiz-adv-x="600" 
d="M782 684q-28 -2 -46 -4.5t-30.5 -8t-21.5 -15t-20 -26.5l-484 -786h-50l512 832h-59l-512 -832h-50l278 451q-66 0 -94.5 30.5t-28.5 72.5q0 47 26 101t73 100t113 76.5t146 30.5h262z" />
    <glyph glyph-name="germandbls" unicode="&#xdf;" horiz-adv-x="593" 
d="M706 256q-35 -51 -74 -99.5t-86 -87t-103 -62t-124 -23.5q-23 0 -48 5.5t-46 18.5t-35 33t-14 48q0 19 6 37t17.5 31.5t28 21.5t36.5 8q28 0 45.5 -12t24.5 -40q-6 1 -11.5 1.5t-11.5 0.5q-33 0 -55 -21.5t-22 -55.5q0 -28 17.5 -46t45.5 -18q42 0 71 23.5t29 68.5
q0 26 -8.5 50t-19.5 47t-20 46.5t-9 46.5q0 35 21 59.5t52.5 44t68 38.5t68 43t52.5 58t21 83q0 33 -15.5 56.5t-52.5 23.5t-75 -23t-76 -61.5t-74.5 -88.5t-70.5 -104.5t-65 -109t-58 -101.5q-64 -113 -124 -206t-126 -160t-143.5 -103.5t-176.5 -36.5q-26 0 -57.5 6.5
t-58.5 22t-45.5 40t-18.5 60.5q0 30 14 54.5t48 24.5q20 0 35 -13t15 -34q0 -19 -8.5 -33t-28.5 -16q-2 -5 -2.5 -7.5t-0.5 -8.5q0 -22 11.5 -37.5t28.5 -26t38 -15.5t39 -5q75 0 138 42.5t118.5 112.5t107 159.5t102.5 182.5t105 182.5t115 159.5t132.5 112.5t157.5 42.5
q27 0 54 -7t48.5 -21.5t35.5 -36.5t14 -53q0 -44 -21 -70t-52.5 -42.5t-68 -28t-68 -26t-52.5 -36t-21 -59.5q0 -27 9 -52.5t20 -51.5q11 -25 19.5 -49t8.5 -50q0 -40 -28 -70t-65 -40l2 -2q52 11 96 38t82.5 63t71 78t61.5 84z" />
    <glyph glyph-name="registered" unicode="&#xae;" horiz-adv-x="800" 
d="M640 156q-36 0 -51.5 14.5t-11.5 38.5q3 22 13.5 44.5t13.5 48.5q6 36 -25 40q0 1 0.5 2t0.5 2q5 0 10.5 -1.5t10.5 -0.5q20 1 37 9.5t29.5 22.5t19.5 31.5t7 37.5q0 13 -4 25.5t-14 20.5q-20 -11 -40.5 -40.5t-43 -66.5t-46.5 -77.5t-52 -74t-60 -55t-69 -21.5
q-8 0 -18.5 1t-20 5.5t-16 12.5t-6.5 22q0 13 8 21t22 8q8 0 15 -7.5t7 -15.5t-5.5 -16.5t-16.5 -7.5q8 -17 30 -17q15 0 32 21t37.5 54t44.5 72.5t52 77t61.5 67.5t72.5 44q-18 6 -33.5 8.5t-35.5 2.5q-35 0 -70 -9t-65.5 -26.5t-53.5 -43.5t-33 -60q-5 -14 -8 -29.5
t-1.5 -29t9 -22.5t22.5 -9q18 0 31 8.5t21.5 22.5t12.5 31.5t4 35.5h6q0 -21 -4.5 -40t-14.5 -33.5t-24.5 -23.5t-34.5 -9q-38 0 -59 20.5t-21 49.5q0 39 26 70.5t67.5 54.5t92 35.5t99.5 12.5q21 0 39.5 -2.5t35.5 -10.5q8 4 27.5 9t30.5 5q0 -1 0.5 -2t0.5 -2
q-11 -2 -22.5 -6t-22.5 -9q13 -6 25.5 -14.5t22 -20t13.5 -25t-1 -29.5q-5 -20 -19.5 -33.5t-34.5 -21.5t-42.5 -11t-43.5 -3q21 -9 36 -23.5t15 -31.5q0 -12 -3 -24t-10 -29q-5 -11 -7 -22t0 -20t9 -15t22 -6q21 0 46.5 10.5t53 31.5t55 52.5t51.5 73.5q19 33 29 72.5
t7.5 79t-17 76t-43 64.5t-72.5 45t-104 17q-81 0 -149.5 -23.5t-124 -63.5t-98.5 -92.5t-73 -110.5q-26 -49 -37.5 -101.5t-9.5 -103t18.5 -95.5t47.5 -79.5t76 -54.5t105 -20q100 0 195.5 35.5t179 92.5t150.5 128.5t110 143.5l8 -4q-36 -65 -100.5 -137t-150 -132
t-187.5 -99t-212 -39q-116 0 -190.5 41.5t-110.5 106t-34.5 143t39.5 153.5q45 88 108.5 149t139 99.5t159 56t168.5 17.5q98 0 165.5 -31.5t101.5 -82.5t33 -114t-38 -126q-22 -38 -61 -72.5t-85 -60.5t-93 -42t-84 -16z" />
    <glyph glyph-name="copyright" unicode="&#xa9;" horiz-adv-x="800" 
d="M516 145q34 0 79 13t92 40.5t92 69.5t80 100t42.5 116t-14.5 103.5t-75 74t-138 28.5q-68 0 -130 -21t-116.5 -59t-100.5 -91.5t-82 -118.5q-26 -48 -39 -100.5t-12.5 -103t15.5 -96t44 -79.5t73 -54t103 -20q100 0 195.5 35.5t179 92t150.5 128t110 143.5l8 -4
q-36 -65 -100.5 -137t-150 -132t-187.5 -99t-212 -39q-77 0 -135 20.5t-97.5 55t-62 79.5t-29.5 94.5t1.5 99.5t31.5 95q42 83 104.5 143.5t137.5 100.5t159 59t169 19q91 0 158.5 -24.5t103.5 -68t36.5 -102t-40.5 -127.5q-38 -64 -100 -110t-129 -76t-130.5 -44
t-105.5 -14q-47 0 -78 12.5t-47.5 33.5t-19 49t8.5 60q11 45 44 84t76 67.5t90 44.5t86 16q51 0 75.5 -21t10.5 -56q-4 -16 -17.5 -29.5t-31.5 -23.5t-38.5 -15.5t-38.5 -5.5q-23 0 -39 10.5t-17 36.5v7q0 5 1 8h7q-1 -3 -1 -7v-7q0 -25 15 -33t31 -8q24 0 46.5 20t29.5 49
q11 27 6.5 48t-37.5 21q-32 0 -65.5 -13.5t-63 -38.5t-52.5 -59.5t-33 -77.5q-11 -23 -16 -51.5t1 -53t27 -41t62 -16.5z" />
    <glyph glyph-name="trademark" unicode="&#x2122;" horiz-adv-x="990" 
d="M393 595l3 -17q1 -5 1.5 -9t0.5 -7q0 -27 -12.5 -49.5t-33 -39.5t-47 -26.5t-55.5 -9.5q-45 0 -71.5 24t-26.5 62q0 34 23 65t68.5 56t113 40.5t156.5 18.5q14 1 29 1h31q27 -1 53 -2.5t47 -1.5q21 -1 37.5 -0.5t27.5 -2.5q6 -2 10.5 -7t4.5 -13q0 -15 -16 -20t-53 -5
q-19 0 -34 -0.5t-29 -1.5q-25 -8 -45 -23t-37 -36.5t-33.5 -48.5t-34.5 -59l-27 -45q-17 -29 -40.5 -56.5t-52.5 -48.5t-65 -34t-79 -13q-26 0 -49 6.5t-37 23.5q-5 8 -5 18q-13 22 -2 48q5 16 22 16q18 0 24 -14q3 -7 1.5 -12.5t-4.5 -10.5q-2 -14 -17 -19q2 -26 22 -37.5
t48 -11.5q31 0 56.5 13t46.5 34.5t39 48.5t35 56l39 62q38 61 84 97t104 51q-21 2 -44 3t-45 2q-39 1 -88 0q-41 -1 -89.5 -9t-90 -24t-69.5 -41.5t-28 -62.5q0 -18 8 -31t21.5 -21t30.5 -11.5t34 -3.5q22 0 46.5 8t44.5 22t33 33.5t13 42.5q0 8 -1 16.5t-3 15.5zM1121 451
q2 0 2.5 -0.5t2.5 -0.5q-45 -86 -107.5 -120.5t-132.5 -34.5q-23 0 -37 -2.5t-28 -2.5q-16 0 -16 8q0 5 4.5 7t9.5 2q11 0 20 -3t20 -3q26 8 45.5 36.5t37.5 66.5q18 40 37.5 84t44 85t55.5 74.5t73 53.5l-1 1q-33 -8 -63.5 -28t-58.5 -47t-54 -58.5t-50 -64.5l-26 -36
q-18 -25 -39 -50.5t-43.5 -49t-46.5 -44t-48 -33.5q-2 1 -3 2t-3 2q16 27 27 55q20 54 36 104.5t37.5 95.5t54 82.5t85.5 64.5l-2 2q-34 -12 -63 -32t-54.5 -44t-46.5 -50.5t-39 -52.5l-33 -50q-24 -35 -46.5 -67.5t-46.5 -57.5t-51 -40t-60 -15q-24 0 -43.5 13t-19.5 39
q0 18 15 26q6 4 12.5 3t11.5 -5q6 0 13 -5q6 -5 6 -13t-5 -15.5t-14 -9.5q1 -10 8 -15.5t16 -7.5q11 -2 23 3q42 8 77 44.5t71 88.5q32 46 62.5 90t65.5 81.5t78.5 66t102.5 43.5l2 -6q-36 -15 -59 -40t-40 -57t-29.5 -69t-26.5 -74.5t-31.5 -73.5t-44.5 -67l1 -1
q35 30 65 66.5t67 83.5l46 61q66 93 130.5 134t128.5 41q32 0 32 -12q0 -5 -4.5 -6.5t-9.5 -1.5q-12 0 -23.5 2.5t-22.5 2.5q-14 0 -29 -13.5t-29.5 -34.5t-28 -47.5t-23.5 -52.5l-18 -44q-15 -39 -31 -70t-36.5 -56t-46.5 -44.5t-62 -37.5q42 0 77 7.5t65 24.5t56.5 46
t51.5 73z" />
    <glyph glyph-name="acute" unicode="&#xb4;" horiz-adv-x="259" 
d="M335 558q0 -23 -19 -48.5t-44.5 -47.5t-49.5 -36t-35 -14q-6 0 -6 7q0 5 11.5 14.5t26.5 24t29.5 32.5t19.5 40q2 8 5 18.5t7 19.5t10 15.5t13 6.5q15 0 23.5 -9t8.5 -23z" />
    <glyph glyph-name="dieresis" unicode="&#xa8;" horiz-adv-x="259" 
d="M324 559q19 0 32 -14.5t13 -33.5t-13 -33.5t-32 -14.5t-32 14.5t-13 33.5t13 33.5t32 14.5zM144 559q19 0 32 -14.5t13 -33.5t-13 -33.5t-32 -14.5t-32 14.5t-13 33.5t13 33.5t32 14.5z" />
    <glyph glyph-name="AE" unicode="&#xc6;" horiz-adv-x="1000" 
d="M822 157q5 46 17 90.5t35 85.5q-28 -6 -56 -10.5t-57 -6.5q-32 -75 -82 -140.5t-122 -107.5v-2q43 -4 85 -11t86 -7q68 0 118.5 12.5t94 39t83.5 67.5t86 98l6 -4q-38 -46 -80.5 -96t-91.5 -91.5t-105 -68.5t-120 -27q-25 0 -53 5.5t-56 13t-55.5 17t-50.5 16.5
q-14 -8 -26 -15.5t-25.5 -13t-31 -8.5t-43.5 -3q-20 0 -32.5 8t-12.5 22q0 19 19 29.5t45 15.5t52.5 6t42.5 1q20 0 41 -3q25 26 43 55.5t33 61t28 64.5t27 64q-21 -2 -43 -2h-43q-18 0 -47.5 2t-51.5 6q-37 -45 -77.5 -102t-87.5 -108t-103 -85.5t-125 -34.5q-18 0 -36.5 4
t-33.5 13t-24.5 23.5t-9.5 35.5q0 24 13.5 39.5t39.5 15.5q20 0 33.5 -12t13.5 -32q0 -12 -6.5 -22t-17.5 -14q4 -17 21 -25t32 -8q35 0 68.5 15t64.5 39.5t59 55t52 61t44 58.5t35 47q17 21 45 59t68.5 83.5t94.5 94.5t122 92v2q-45 4 -92.5 7t-96.5 3q-63 0 -129 -10.5
t-125 -33.5t-106 -60t-71 -90q-7 -15 -11.5 -31t-4.5 -33q0 -43 26.5 -65t67.5 -22q35 0 68 14.5t58.5 37.5t41.5 53t16 60q0 21 -3.5 37.5t-6.5 30.5l9 2q5 -11 9 -33t4 -39q0 -42 -15 -78.5t-41.5 -63.5t-63 -42t-80.5 -15q-21 0 -40 8.5t-32.5 23t-21.5 33.5t-8 40
q0 32 9.5 61t26 55t38 48.5t45.5 41.5q41 33 93.5 57t111 39.5t119.5 23.5t118 8q47 0 87.5 -2.5t89.5 -5.5q17 8 41 20.5t54 24.5t65.5 20.5t73.5 8.5q42 -1 71 -15t29 -46q0 -31 -21.5 -50.5t-51.5 -30.5t-63 -14.5t-57 -3.5q-12 0 -27 1.5t-23 1.5q-42 -22 -73.5 -60.5
t-53 -79t-35 -75.5t-19.5 -49q6 -1 22.5 1.5t35.5 6t36 8t24 8.5q3 7 8.5 16.5t12.5 17.5t16 14t19 6q38 0 74 -6q-63 -45 -112.5 -106t-65.5 -139zM580 324q22 0 44 -0.5t44 2.5q37 91 102 161.5t158 105.5v2q-32 3 -67.5 8t-77.5 10q-33 -20 -70.5 -49t-76.5 -65.5
t-77.5 -79t-72.5 -89.5q24 -2 47 -4t47 -2zM1074 651q13 0 30.5 0.5t33.5 4.5t27 13t11 25q0 17 -25 30t-69 13q-56 0 -107 -19t-101 -44v-2q64 -7 117.5 -14t82.5 -7zM400 48q-7 0 -16.5 -1t-18 -4t-14.5 -8t-6 -14q0 -14 13 -16.5t31 -2.5q21 0 50.5 7.5t52.5 24.5
q-23 5 -45.5 9.5t-46.5 4.5z" />
    <glyph glyph-name="Oslash" unicode="&#xd8;" horiz-adv-x="722" 
d="M563 631q-10 11 -26 15t-30 4q-44 0 -86 -24t-79 -64t-67.5 -91.5t-53 -106t-34.5 -108.5t-12 -98q0 -28 4.5 -58.5t18.5 -53.5zM584 539q0 20 -1.5 42t-9.5 35l-362 -587q17 -17 34 -22t29 -5q48 0 96.5 24t92 65t81 94t65.5 111.5t43.5 117.5t15.5 111q0 42 -10 83.5
t-42 73.5l-36 -55q9 -14 12.5 -31t3.5 -32v-12t-1 -13h-11zM637 716q27 -15 46 -36.5t30 -47t16 -54.5t5 -59q0 -56 -20.5 -117t-56 -120.5t-83.5 -113.5t-102.5 -95t-113 -65t-116.5 -24q-17 0 -30 1t-26 4l-50 -83l-15 9l48 81q-25 12 -42.5 30.5t-28 41.5t-15 48.5
t-4.5 51.5q0 52 17.5 109t48.5 111.5t72.5 104.5t89 87.5t99 59.5t101.5 22q19 0 37 -6.5t26 -14.5l34 52q-23 17 -48.5 25t-64.5 8q-27 0 -57 -9t-59 -24.5t-56 -37t-50 -45.5l-5 5q55 57 119 93t144 36q30 0 53 -5.5t43 -13.5l50 78l13 -8z" />
    <glyph glyph-name="plusminus" unicode="&#xb1;" horiz-adv-x="600" 
d="M405 360l79 8l-92 -139h138l-10 -14h-137l-85 -129l-82 -13l94 142h-134l10 14h133zM395 14l-13 -14h-318l12 14h319z" />
    <glyph glyph-name="yen" unicode="&#xa5;" horiz-adv-x="537" 
d="M121 392h172q18 26 28 72t10 94q0 38 -11 63t-29 40t-40.5 21t-45.5 6t-43.5 -7.5t-35.5 -21.5t-24 -33.5t-9 -43.5q0 -30 15.5 -53.5t48.5 -23.5q22 0 40 13q-11 -37 -33 -54t-61 -17q-16 0 -31 7t-25.5 19t-17 27t-6.5 31q0 39 21 71t52.5 55t70 36t72.5 13
q71 0 113.5 -43t42.5 -117q0 -24 -3.5 -53t-13.5 -67l2 -2q56 73 104.5 126t93 87.5t87 51.5t86.5 17q33 0 55.5 -6.5t36 -17t19 -23.5t5.5 -25q0 -21 -15.5 -36.5t-43.5 -15.5q-16 0 -31 5.5t-35 16.5q25 2 35 13.5t10 26.5q0 14 -12 28t-39 14q-38 0 -76.5 -20.5
t-79.5 -59t-86.5 -92.5t-98.5 -122h174l-8 -18h-177q-9 -14 -18 -28.5t-18 -29.5h179l-8 -18h-182q-48 -74 -92 -148.5t-83 -149.5h-116q21 33 46 70.5t50.5 77t50.5 78t46 72.5h-168l8 18h171q10 17 18.5 31.5t14.5 26.5h-170z" />
    <glyph glyph-name="mu" unicode="&#xb5;" 
d="M470 356q-39 -65 -72.5 -116t-57.5 -90.5t-37.5 -68.5t-13.5 -51t19 -22q12 0 29 8.5t36 22t39 31.5t38 36q22 23 43.5 46.5t40 45.5t33.5 40.5t25 31.5l8 -6q-24 -32 -61 -76.5t-79 -87.5q-51 -52 -94 -81t-85 -29q-30 0 -48 18t-18 45q0 19 3.5 34t8.5 23l-2 2
q-18 -19 -39 -40.5t-45 -39.5t-51.5 -30t-59.5 -12q-8 0 -18 2l-180 -312l-96 -4l383 676l106 4q-79 -121 -128.5 -198.5t-49.5 -115.5q0 -12 6.5 -20t17.5 -8q19 0 45.5 16t55.5 43t57.5 62t51.5 73l86 140z" />
    <glyph glyph-name="ordfeminine" unicode="&#xaa;" horiz-adv-x="311" 
d="M335 539l68 3q-9 -16 -28 -42t-38.5 -53.5t-34.5 -53.5t-15 -42q0 -14 16 -14q8 0 18.5 6t21.5 17l6 -6q-14 -15 -32.5 -24t-38.5 -9t-31.5 10t-11.5 24q0 5 1 10t3 10l-2 1q-19 -20 -45.5 -37.5t-55.5 -17.5q-32 0 -45 20t-13 46q0 29 17.5 58.5t44.5 53t59.5 38.5
t62.5 15q23 0 36 -9t21 -28zM299 510q0 17 -6 25.5t-25 8.5q-22 0 -44.5 -18t-40.5 -43t-29.5 -52.5t-11.5 -45.5q0 -17 6.5 -28.5t25.5 -11.5q21 0 43 19.5t40 46t30 54.5t12 45z" />
    <glyph glyph-name="ordmasculine" unicode="&#xba;" horiz-adv-x="289" 
d="M92 392q0 32 17.5 61t45.5 51t62 35t67 13q35 0 56.5 -19t21.5 -52q0 -32 -17.5 -61t-45.5 -51t-61.5 -35t-66.5 -13q-36 0 -57.5 19t-21.5 52zM146 360q0 -11 5.5 -21t19.5 -10q27 0 52 21.5t43.5 51.5t30 61t11.5 50q0 11 -5 21t-19 10q-27 0 -52 -21.5t-44 -51.5
t-30.5 -61t-11.5 -50z" />
    <glyph glyph-name="ae" unicode="&#xe6;" horiz-adv-x="685" 
d="M335 299q0 26 -14 41.5t-35 15.5q-34 0 -69 -29t-63.5 -70.5t-46 -87.5t-17.5 -79q0 -29 10.5 -47.5t36.5 -18.5q22 0 45.5 15t45.5 39.5t41.5 55t34 61t23 58t8.5 46.5zM476 356l-13 -21l2 -2q27 16 55.5 25.5t56.5 9.5q43 0 65 -16.5t22 -46.5q0 -24 -16.5 -44
t-42.5 -36t-58.5 -28t-64.5 -21t-60 -15t-46 -10q-5 -20 -5 -36q0 -43 24 -70t67 -27q42 0 92.5 25t101.5 73q39 37 75 77.5t63 75.5l7 -7q-31 -42 -66.5 -83t-84.5 -86q-69 -62 -132.5 -85.5t-119.5 -23.5q-57 0 -90 33.5t-33 84.5q0 10 2 20l-2 2q-44 -66 -88 -100
t-103 -34q-43 0 -66.5 28t-23.5 70q0 52 26 102.5t67 90t92.5 63.5t102.5 24q29 0 51 -15t32 -42l21 41zM584 330q0 14 -7.5 20t-19.5 6q-25 0 -54 -21t-54.5 -51.5t-45 -64t-25.5 -58.5q41 8 78 26.5t65.5 42t45.5 50t17 50.5z" />
    <glyph glyph-name="oslash" unicode="&#xf8;" 
d="M115 0q5 -4 17 -4q25 0 50 17t48 44t42.5 61t34 68t22.5 65t8 52q0 28 -13 41zM306 354q-6 2 -13 2q-25 0 -50 -17t-48 -44t-42.5 -61t-34 -68t-22.5 -65t-8 -52q0 -24 10 -37zM336 363q36 -10 58 -35.5t27 -58.5q5 -30 22.5 -48t45.5 -18q27 0 51 16t51 48l6 -8
q-20 -26 -47.5 -47t-60.5 -21q-23 0 -40 10t-31 28q-12 -50 -39.5 -94.5t-66.5 -78t-87 -53t-100 -19.5h-10q-4 0 -9 1l-48 -78l-17 11l44 72q-38 10 -59.5 38.5t-21.5 73.5q0 53 27 101.5t70 85t95 58t102 21.5h8t8 -1l44 72l17 -11z" />
    <glyph glyph-name="questiondown" unicode="&#xbf;" 
d="M323 232q-19 -27 -46 -47.5t-56 -38t-57.5 -35t-51 -39.5t-36.5 -50.5t-14 -68.5q0 -61 28.5 -90t78.5 -29q20 0 40 8t35.5 23t25.5 36.5t10 47.5q0 32 -17.5 53t-44.5 21q-10 0 -20 -4t-18 -9q7 31 29 48t54 17q40 0 61.5 -26t21.5 -64q0 -27 -15 -56.5t-42.5 -54.5
t-66 -41.5t-86.5 -16.5q-79 0 -121.5 37.5t-42.5 91.5q0 49 19.5 81.5t50.5 55.5t69.5 39.5t76.5 33t72.5 35.5t56.5 47zM354 256q-23 0 -39.5 16.5t-16.5 39.5t16.5 39.5t39.5 16.5t39.5 -16.5t16.5 -39.5t-16.5 -39.5t-39.5 -16.5z" />
    <glyph glyph-name="exclamdown" unicode="&#xa1;" horiz-adv-x="370" 
d="M231 236q-21 -34 -41.5 -70.5t-37.5 -72t-31 -67.5t-22 -56q-28 -83 -50.5 -118.5t-51.5 -35.5q-18 0 -31.5 13t-13.5 33q0 17 8.5 34.5t25.5 39.5t42.5 50.5t59.5 67.5t69.5 85t66.5 100zM276 256q-23 0 -39.5 16.5t-16.5 39.5t16.5 39.5t39.5 16.5t39.5 -16.5
t16.5 -39.5t-16.5 -39.5t-39.5 -16.5z" />
    <glyph glyph-name="logicalnot" unicode="&#xac;" horiz-adv-x="600" 
d="M436 230h-280l9 13h358l-105 -160l-85 -12z" />
    <glyph glyph-name="florin" unicode="&#x192;" horiz-adv-x="537" 
d="M101 326l7 18h153q9 28 23.5 65.5t34.5 78t44.5 79.5t52.5 70t60 50t66 19q42 0 71.5 -18.5t29.5 -57.5q0 -18 -7.5 -31.5t-20 -22.5t-28 -13.5t-31.5 -4.5h-6q6 14 10.5 32.5t4.5 36.5q0 25 -11 43t-31 18q-18 0 -36.5 -21.5t-36.5 -55.5t-35 -75t-30.5 -79t-23.5 -68.5
t-14 -44.5h154l-7 -18h-152q-39 -132 -80 -241.5t-86 -187.5t-94.5 -121.5t-106.5 -43.5q-47 0 -74 24t-27 53q0 32 20 52.5t65 20.5h15q-9 -17 -12.5 -34.5t-3.5 -36.5q0 -28 11 -44.5t29 -16.5q17 0 36 22t39 59t40 85t39 99t35.5 102t30 93.5t22.5 73.5t13 42h-152z" />
    <glyph glyph-name="guillemotleft" unicode="&#xab;" horiz-adv-x="444" 
d="M48 173l233 169l7 -8l-156 -163l61 -155l-9 -6zM349 10l-137 163l234 169l7 -8l-157 -163l62 -155z" />
    <glyph glyph-name="guillemotright" unicode="&#xbb;" horiz-adv-x="444" 
d="M247 179l-233 -169l-7 8l157 163l-62 155l9 6zM413 179l-233 -169l-7 8l156 163l-61 155l9 6zM249 179l-234 -169l-7 8l157 163l-62 155l9 6z" />
    <glyph glyph-name="ellipsis" unicode="&#x2026;" horiz-adv-x="1000" 
d="M22 50q0 23 16.5 39.5t39.5 16.5t39.5 -16.5t16.5 -39.5t-16.5 -39.5t-39.5 -16.5t-39.5 16.5t-16.5 39.5zM356 50q0 23 16.5 39.5t39.5 16.5t39.5 -16.5t16.5 -39.5t-16.5 -39.5t-39.5 -16.5t-39.5 16.5t-16.5 39.5zM690 50q0 23 16.5 39.5t39.5 16.5t39.5 -16.5
t16.5 -39.5t-16.5 -39.5t-39.5 -16.5t-39.5 16.5t-16.5 39.5z" />
    <glyph glyph-name="Agrave" unicode="&#xc0;" horiz-adv-x="870" 
d="M1037 729q-76 -86 -145.5 -175.5t-122 -176.5t-84 -167.5t-31.5 -149.5q0 -26 9 -37t24 -11q29 0 76 32t97 83q16 17 33.5 36.5t34 39t30 36.5t22.5 28l8 -5q-23 -30 -52.5 -67.5t-77.5 -85.5q-51 -51 -101.5 -85t-101.5 -34q-25 0 -41.5 8t-26 21.5t-13.5 30.5t-4 36
q0 61 20 117.5t47 107.5h-140q-41 -48 -91.5 -103t-108.5 -101.5t-122 -77.5t-133 -31q-30 0 -57.5 7t-49.5 21.5t-35 36.5t-13 53q0 29 16 53t48 24q20 0 34 -12.5t14 -30.5q0 -27 -16 -39t-42 -12q0 -21 10 -38t25 -28t34 -17t37 -6q45 0 88.5 15.5t85.5 41.5t81 60t75 70
t68 72.5t59 66.5q55 62 114.5 122.5t124.5 114t136.5 96t150.5 66.5zM643 323q56 99 127 188t155 167l-2 2q-118 -62 -217.5 -154t-197.5 -203h135zM860 889q0 14 8.5 23t23.5 9q8 0 13.5 -6.5t9.5 -15.5t7 -19.5t5 -18.5q5 -22 19.5 -40t29.5 -32.5t26.5 -24t11.5 -14.5
q0 -7 -6 -7q-10 0 -34.5 14t-50 36t-44.5 47.5t-19 48.5z" />
    <glyph glyph-name="Atilde" unicode="&#xc3;" horiz-adv-x="870" 
d="M1037 729q-76 -86 -145.5 -175.5t-122 -176.5t-84 -167.5t-31.5 -149.5q0 -26 9 -37t24 -11q29 0 76 32t97 83q16 17 33.5 36.5t34 39t30 36.5t22.5 28l8 -5q-23 -30 -52.5 -67.5t-77.5 -85.5q-51 -51 -101.5 -85t-101.5 -34q-25 0 -41.5 8t-26 21.5t-13.5 30.5t-4 36
q0 61 20 117.5t47 107.5h-140q-41 -48 -91.5 -103t-108.5 -101.5t-122 -77.5t-133 -31q-30 0 -57.5 7t-49.5 21.5t-35 36.5t-13 53q0 29 16 53t48 24q20 0 34 -12.5t14 -30.5q0 -27 -16 -39t-42 -12q0 -21 10 -38t25 -28t34 -17t37 -6q45 0 88.5 15.5t85.5 41.5t81 60t75 70
t68 72.5t59 66.5q55 62 114.5 122.5t124.5 114t136.5 96t150.5 66.5zM643 323q56 99 127 188t155 167l-2 2q-118 -62 -217.5 -154t-197.5 -203h135zM870 785q2 16 8 33t16.5 31t25 23t32.5 9q23 0 41.5 -6t35.5 -13t32.5 -13t30.5 -6q26 0 40 12.5t23 35.5h17
q-3 -17 -10 -34t-18.5 -31t-26.5 -22.5t-34 -8.5q-20 0 -38 5.5t-35 13.5t-34 13.5t-34 5.5q-23 0 -36.5 -14t-21.5 -34h-14z" />
    <glyph glyph-name="Otilde" unicode="&#xd5;" horiz-adv-x="741" 
d="M859 262q-39 -35 -83.5 -54t-85.5 -19q-47 0 -85 14q-32 -40 -71 -79.5t-83.5 -70.5t-94.5 -50t-104 -19q-50 0 -83.5 15t-54 40.5t-29 58t-8.5 68.5q0 55 17.5 113t49 112.5t74.5 104t93 87.5t105.5 63t111.5 30q32 30 58.5 38t50.5 8q60 0 88.5 -45t28.5 -115
q0 -44 -12.5 -91.5t-32.5 -93t-45 -88t-50 -76.5q17 -8 35.5 -10t38.5 -2q24 0 47.5 6t45.5 16t40.5 22t31.5 24zM432 452q0 58 22.5 112.5t61.5 96.5l-2 2q-50 -10 -94 -38.5t-81.5 -69t-67 -90.5t-50 -103t-31.5 -105.5t-11 -99.5q0 -30 5 -58t16.5 -49.5t31 -34.5
t48.5 -13q44 0 87 21.5t81.5 53.5t69 70.5t49.5 72.5q-31 17 -56 41.5t-42.5 55t-27 65t-9.5 70.5zM604 557q2 6 3 17t1 20q0 14 -4 27.5t-13 23t-23.5 15t-36.5 4.5q-15 -16 -26 -38.5t-18.5 -48t-11 -52t-3.5 -49.5q0 -33 5 -69t17 -69.5t31.5 -61.5t49.5 -45
q22 36 40.5 78.5t31.5 87t20 89t7 85.5q0 26 -4 49t-13 40.5t-24 27.5t-37 10q-18 0 -31 -6t-23 -16q22 -1 37 -8t24 -18.5t13 -26.5t4 -30q0 -12 -1.5 -20.5t-3.5 -16.5zM524 785q2 16 8 33t16.5 31t25 23t32.5 9q23 0 41.5 -6t35.5 -13t32.5 -13t30.5 -6q26 0 40 12.5
t23 35.5h17q-3 -17 -10 -34t-18.5 -31t-26.5 -22.5t-34 -8.5q-20 0 -38 5.5t-35 13.5t-34 13.5t-34 5.5q-23 0 -36.5 -14t-21.5 -34h-14z" />
    <glyph glyph-name="OE" unicode="&#x152;" horiz-adv-x="1000" 
d="M568 549q0 52 -17 78.5t-65 26.5q-44 0 -85 -24.5t-77 -64.5t-66 -91t-51.5 -103t-33.5 -100.5t-12 -84.5q0 -30 4 -61.5t16 -57.5t34.5 -42.5t59.5 -16.5q34 0 68 16t60 36q-15 19 -25 44.5t-10 50.5q0 42 17 74.5t44.5 57t62 43.5t68.5 34q30 14 50.5 28t32.5 33
t17 44.5t5 61.5q0 38 -10.5 74t-32 64.5t-53 45.5t-73.5 17q-77 0 -134.5 -30.5t-111.5 -89.5l-6 4q53 60 120 98t149 36q65 0 117.5 -33t72.5 -97q34 43 91 72.5t122 29.5q27 0 56 -5t52.5 -17.5t38.5 -34.5t15 -55q0 -36 -16.5 -62.5t-42.5 -44t-58 -26.5t-64 -9
q-19 0 -37.5 2.5t-36.5 8.5l1 9q22 -8 46 -8q63 0 99.5 32.5t36.5 98.5q0 47 -25 73t-73 26q-33 0 -57.5 -12t-41.5 -32t-27.5 -47.5t-17.5 -58.5q-11 -52 -20 -74.5t-16.5 -32t-13.5 -13.5t-12 -19q-25 -64 -47 -108t-47 -78.5t-56 -65.5t-73 -71q58 -96 172 -96
q42 0 79.5 12t66.5 34t46 53t17 68q0 19 -5.5 37t-17 31.5t-28 22t-38.5 8.5q-34 0 -62.5 -19.5t-60.5 -45.5l-5 4q20 19 39 33.5t39 24.5t43 15.5t51 5.5q54 0 87.5 -30.5t33.5 -85.5q0 -50 -35 -85.5t-86 -58t-107 -32.5t-98 -10q-57 0 -107.5 14t-93.5 55
q-41 -29 -87.5 -46t-97.5 -17q-42 0 -72.5 16t-49.5 42t-28 61t-9 72q0 57 19.5 115.5t52 112t75.5 100.5t89.5 82t93.5 55t88 20q31 0 50 -9t29.5 -24.5t14 -37t3.5 -46.5h-12zM464 178q0 -17 2 -33.5t8 -32.5q60 60 103.5 132.5t68.5 153.5q-36 -19 -69 -39.5t-58 -46.5
t-40 -59t-15 -75z" />
    <glyph glyph-name="oe" unicode="&#x153;" horiz-adv-x="685" 
d="M328 303q0 25 -10.5 39t-33.5 14q-25 0 -50 -17t-48 -44t-42.5 -61t-34 -68t-22.5 -65t-8 -52q0 -25 10.5 -39t33.5 -14q25 0 50 17t48 44t42.5 61t34 68t22.5 65t8 52zM801 262q-31 -42 -66.5 -83t-84.5 -86q-69 -62 -132.5 -85.5t-119.5 -23.5q-40 0 -67.5 16.5
t-41.5 45.5q-46 -33 -87 -47.5t-86 -14.5q-55 0 -88 31.5t-33 86.5q0 53 27 101.5t70 85t95 58t102 21.5q48 0 74 -14.5t39 -49.5q41 29 85.5 46.5t85.5 17.5q43 0 67 -16.5t24 -46.5q0 -24 -16.5 -44t-42.5 -36t-58.5 -28t-64.5 -21t-60 -15t-46 -10q-5 -20 -5 -36
q0 -43 24 -70t67 -27q42 0 92.5 25t101.5 73q39 37 75 77.5t63 75.5zM584 330q0 14 -7.5 20t-19.5 6q-25 0 -54 -21t-54.5 -51.5t-45 -64t-25.5 -58.5q41 8 78 26.5t65.5 42t45.5 50t17 50.5z" />
    <glyph glyph-name="endash" unicode="&#x2013;" horiz-adv-x="500" 
d="M487 205l-41 -58h-500l41 58h500z" />
    <glyph glyph-name="emdash" unicode="&#x2014;" horiz-adv-x="1000" 
d="M987 205l-41 -58h-1000l41 58h1000z" />
    <glyph glyph-name="quotedblleft" unicode="&#x201c;" horiz-adv-x="389" 
d="M364 598q-30 -5 -60 -14t-55 -24.5t-42.5 -39t-23.5 -58.5q5 1 11 2.5t12 1.5q18 0 29 -11.5t11 -29.5q0 -22 -12.5 -36.5t-36.5 -14.5q-29 0 -45 19t-16 47q0 39 23.5 69t58 50.5t74 32.5t72.5 16v-10zM531 598q-30 -5 -60 -14t-55 -24.5t-42.5 -39t-23.5 -58.5
q5 1 11 2.5t12 1.5q18 0 29 -11.5t11 -29.5q0 -22 -12.5 -36.5t-36.5 -14.5q-29 0 -45 19t-16 47q0 39 23.5 69t58 50.5t74 32.5t72.5 16v-10z" />
    <glyph glyph-name="quotedblright" unicode="&#x201d;" horiz-adv-x="389" 
d="M279 386q30 5 60 14t55 24.5t42.5 39.5t23.5 58q-5 -1 -11 -2.5t-12 -1.5q-18 0 -29 11.5t-11 29.5q0 22 12.5 36.5t36.5 14.5q29 0 45 -19t16 -47q0 -39 -23.5 -69t-58 -50.5t-74 -32.5t-72.5 -16v10zM112 386q30 5 60 14t55 24.5t42.5 39.5t23.5 58q-5 -1 -11 -2.5
t-12 -1.5q-18 0 -29 11.5t-11 29.5q0 22 12.5 36.5t36.5 14.5q29 0 45 -19t16 -47q0 -39 -23.5 -69t-58 -50.5t-74 -32.5t-72.5 -16v10z" />
    <glyph glyph-name="quoteleft" unicode="&#x2018;" horiz-adv-x="222" 
d="M354 598q-30 -5 -60 -14t-55 -24.5t-42.5 -39t-23.5 -58.5q5 1 11 2.5t12 1.5q18 0 29 -11.5t11 -29.5q0 -22 -12.5 -36.5t-36.5 -14.5q-29 0 -45 19t-16 47q0 39 23.5 69t58 50.5t74 32.5t72.5 16v-10z" />
    <glyph glyph-name="quoteright" unicode="&#x2019;" horiz-adv-x="222" 
d="M112 386q30 5 60 14t55 24.5t42.5 39.5t23.5 58q-5 -1 -11 -2.5t-12 -1.5q-18 0 -29 11.5t-11 29.5q0 22 12.5 36.5t36.5 14.5q29 0 45 -19t16 -47q0 -39 -23.5 -69t-58 -50.5t-74 -32.5t-72.5 -16v10z" />
    <glyph glyph-name="divide" unicode="&#xf7;" horiz-adv-x="600" 
d="M482 191l-13 -15h-318l12 15h319zM196 39q0 16 10 26.5t27 10.5q14 0 25 -11.5t11 -25.5t-11.5 -25t-25.5 -11q-16 0 -26 10.5t-10 25.5zM368 323q0 14 10 25t26 11q14 0 24 -11t10 -25q0 -16 -10.5 -25.5t-24.5 -9.5q-15 0 -25 10t-10 25z" />
    <glyph glyph-name="ydieresis" unicode="&#xff;" 
d="M-182 -79q-5 1 -18 1q-43 0 -66.5 -31t-23.5 -76q0 -53 32.5 -83t80.5 -30q51 0 96 21.5t84 57t73.5 81t64 93.5t55.5 94t48 83l-2 2q-15 -18 -37.5 -42.5t-50.5 -47t-59 -38.5t-63 -16q-33 0 -47.5 19t-14.5 45q0 25 14 57t35.5 70.5t48.5 81.5t54 89l106 4
q-84 -131 -131 -207t-47 -108q0 -12 7.5 -19.5t18.5 -7.5q18 0 46 18.5t59.5 49.5t63.5 71.5t58 83.5q22 36 39 66t25 49l98 4q-54 -93 -104.5 -185.5t-105.5 -183.5q48 14 95 43.5t90.5 68.5t81 83t67.5 86l8 -7q-34 -49 -75 -95.5t-86.5 -85t-93.5 -66.5t-96 -40
q-36 -61 -81 -113t-99 -90t-117 -59.5t-135 -21.5q-36 0 -70 6.5t-60 22t-42 41t-16 62.5q0 30 12.5 51t33 34.5t47 20t54.5 6.5q12 0 24.5 -1t20.5 -3v-9zM435 559q19 0 32 -14.5t13 -33.5t-13 -33.5t-32 -14.5t-32 14.5t-13 33.5t13 33.5t32 14.5zM255 559q19 0 32 -14.5
t13 -33.5t-13 -33.5t-32 -14.5t-32 14.5t-13 33.5t13 33.5t32 14.5z" />
    <glyph glyph-name="Ydieresis" unicode="&#x178;" horiz-adv-x="778" 
d="M993 696l-461 -728q-39 -57 -85 -107.5t-100 -88.5t-115.5 -60t-129.5 -22q-39 0 -74.5 7t-62 23.5t-42.5 43t-16 65.5q0 22 9 42.5t25 36.5t36 25.5t43 9.5q32 0 59 -8t55 -22l-1 -8q-14 5 -28.5 9.5t-29.5 4.5q-21 0 -36.5 -9t-26 -23t-16 -32.5t-5.5 -37.5
q0 -21 6 -41.5t19.5 -37t35.5 -26.5t53 -10q50 0 95.5 22.5t88.5 62t83.5 92.5t80.5 115l138 212l-2 2q-29 -36 -67 -74.5t-81.5 -70.5t-91.5 -52.5t-98 -20.5q-32 0 -50.5 17.5t-18.5 49.5q0 34 23.5 82.5t58 104.5t75.5 115t75.5 114t58 101.5t23.5 76.5q0 59 -53 59
q-51 0 -101.5 -22t-91.5 -58.5t-66.5 -84t-25.5 -98.5q0 -13 3.5 -26.5t10 -24t17 -17.5t24.5 -7q20 0 37 6.5t31.5 17t27.5 23.5t26 27l7 -5q-14 -16 -30 -31.5t-34.5 -28t-39 -20t-44.5 -7.5q-40 0 -67 21t-27 65q0 52 31.5 102.5t83 90.5t117 64.5t134.5 24.5q20 0 40 -4
t36.5 -13.5t27 -25t10.5 -39.5q0 -35 -23.5 -84.5t-58 -105.5t-75.5 -115t-75.5 -112t-58 -97.5t-23.5 -71.5q0 -40 40 -40q30 0 68.5 20.5t77.5 51t74.5 67t59.5 68.5t53 75.5t59 90.5t59 94.5t54 88.5t43.5 73t27.5 48zM839 890q19 0 32 -14.5t13 -33.5t-13 -33.5
t-32 -14.5t-32 14.5t-13 33.5t13 33.5t32 14.5zM659 890q19 0 32 -14.5t13 -33.5t-13 -33.5t-32 -14.5t-32 14.5t-13 33.5t13 33.5t32 14.5z" />
    <glyph glyph-name="guilsinglleft" unicode="&#x2039;" horiz-adv-x="315" 
d="M67 173l235 169l7 -8l-156 -163l61 -155l-9 -6z" />
    <glyph glyph-name="guilsinglright" unicode="&#x203a;" horiz-adv-x="315" 
d="M189 179l-61 157l9 6l131 -163l-233 -169l-8 9z" />
    <glyph glyph-name="fi" unicode="&#xfb01;" horiz-adv-x="556" 
d="M143 352q29 50 68.5 110t89 112t108.5 87t126 35q21 0 40.5 -5t35 -15t25 -25.5t9.5 -36.5q0 -36 -26 -54t-61 -18q-8 0 -18 2q9 18 15 38t6 43q0 29 -12 44t-32 15q-25 0 -53 -19.5t-55 -50.5t-53.5 -69t-48.5 -75t-39.5 -68.5t-28.5 -49.5h208q39 0 65 2t36 5
q-9 -12 -26.5 -36.5t-38.5 -55.5t-43 -64.5t-40 -65.5t-29.5 -58t-11.5 -42q0 -12 5.5 -19.5t16.5 -7.5q20 0 57 22.5t93 79.5q22 23 43 45.5t39.5 43.5t33 38t23.5 27l6 -6q-12 -16 -29.5 -36.5t-37.5 -43t-41 -44.5t-41 -42q-57 -57 -99 -80.5t-77 -23.5q-37 0 -54.5 21
t-17.5 53q0 22 16 55.5t38.5 71t48 75t43.5 68.5h-197q-39 -63 -77.5 -135.5t-82 -144t-93 -137.5t-109.5 -116.5t-132.5 -80.5t-161.5 -30q-30 0 -64 6.5t-62 21.5t-46.5 40t-18.5 63q0 29 12.5 51t33 37t47 23t54.5 8q13 0 24 -1t20 -3v-8q-48 -3 -77.5 -34t-29.5 -79
q0 -52 29 -82.5t94 -30.5q59 0 113 32.5t103.5 85.5t94 120.5t85 138t77.5 137.5t70 118h-96l10 18h98z" />
    <glyph glyph-name="fl" unicode="&#xfb02;" horiz-adv-x="556" 
d="M754 706q-79 -136 -150.5 -248.5t-125.5 -198t-85.5 -143t-31.5 -84.5t22 -27q21 0 57 23t77 64q38 38 75 81t72 89l9 -3q-12 -16 -27.5 -36t-32.5 -40.5t-34.5 -41t-34.5 -37.5q-58 -59 -102.5 -88t-92.5 -29q-30 0 -49 17t-19 48q0 28 17.5 65t41.5 76t48.5 76t37.5 65
h-198q-39 -63 -77.5 -135.5t-82 -144t-93 -137.5t-109.5 -116.5t-132.5 -80.5t-161.5 -30q-30 0 -64 6.5t-62 21.5t-46.5 40t-18.5 63q0 29 12.5 51t32.5 37t46 23t52 8q12 0 24 -1t24 -3v-8q-48 -3 -77.5 -34t-29.5 -79q0 -52 29 -82.5t94 -30.5q59 0 113 32.5t103.5 85.5
t94 120.5t85 138t77.5 137.5t70 118h-94l10 18h96q29 50 68.5 110t89 112t108 87t124.5 35q38 0 57.5 -3.5t33.5 -8.5zM437 352q23 41 47.5 81t45 74.5t34 62.5t13.5 46q0 35 -17 51.5t-41 16.5q-27 0 -55 -19.5t-55.5 -50.5t-53.5 -69t-48.5 -75t-39.5 -68.5t-28 -49.5h198
z" />
    <glyph glyph-name="daggerdbl" unicode="&#x2021;" horiz-adv-x="500" 
d="M639 507l-21 -34h-187l-88 -139h185l-19 -34h-188l-233 -366h-54l205 366h-198l21 34h196l78 139h-182l19 34h183l78 144q28 52 48 78.5t51 26.5q18 0 30 -10.5t12 -25.5q0 -19 -10 -35.5t-20 -32.5l-91 -145h185z" />
    <glyph glyph-name="periodcentered" unicode="&#xb7;" horiz-adv-x="278" 
d="M69 176q0 23 16.5 39.5t39.5 16.5t39.5 -16.5t16.5 -39.5t-16.5 -39.5t-39.5 -16.5t-39.5 16.5t-16.5 39.5z" />
    <glyph glyph-name="periodcentered" unicode="&#x22c5;" horiz-adv-x="278" 
d="M69 176q0 23 16.5 39.5t39.5 16.5t39.5 -16.5t16.5 -39.5t-16.5 -39.5t-39.5 -16.5t-39.5 16.5t-16.5 39.5z" />
    <glyph glyph-name="quotesinglbase" unicode="&#x201a;" horiz-adv-x="222" 
d="M-94 -124q30 5 60 14t55 24.5t42.5 39t23.5 58.5q-5 -1 -11 -2.5t-12 -1.5q-18 0 -29 11.5t-11 29.5q0 22 12.5 36.5t36.5 14.5q29 0 45 -19t16 -47q0 -39 -23.5 -69t-58 -50.5t-74 -32.5t-72.5 -16v10z" />
    <glyph glyph-name="quotedblbase" unicode="&#x201e;" horiz-adv-x="389" 
d="M77 -124q30 5 60 14t55 24.5t42.5 39t23.5 58.5q-5 -1 -11 -2.5t-12 -1.5q-18 0 -29 11.5t-11 29.5q0 22 12.5 36.5t36.5 14.5q29 0 45 -19t16 -47q0 -39 -23.5 -69t-58 -50.5t-74 -32.5t-72.5 -16v10zM-94 -124q30 5 60 14t55 24.5t42.5 39t23.5 58.5q-5 -1 -11 -2.5
t-12 -1.5q-18 0 -29 11.5t-11 29.5q0 22 12.5 36.5t36.5 14.5q29 0 45 -19t16 -47q0 -39 -23.5 -69t-58 -50.5t-74 -32.5t-72.5 -16v10z" />
    <glyph glyph-name="perthousand" unicode="&#x2030;" horiz-adv-x="1130" 
d="M284 540q-32 0 -63 -26.5t-55.5 -64.5t-39.5 -80t-15 -73q0 -18 8.5 -31.5t32.5 -13.5q32 0 63 26.5t55.5 64.5t39.5 80t15 73q0 18 -8.5 31.5t-32.5 13.5zM142 -40l382 508l-2 1q-17 -12 -35.5 -21.5t-37.5 -9.5q-22 0 -37 12.5t-27 29.5l-2 -2q2 -8 2 -16
q0 -46 -20.5 -86.5t-54 -71t-75 -48t-83.5 -17.5q-43 0 -72 25.5t-29 78.5q0 43 20.5 81t53.5 66.5t73.5 45t80.5 16.5q29 0 48.5 -7.5t32.5 -19t22 -24.5t18 -24.5t20 -19t28 -7.5q32 0 55 17.5t40 39t31 39t28 17.5q8 0 14.5 -4.5t6.5 -13.5q0 -8 -13 -27.5t-33.5 -44
t-44.5 -53t-45 -54.5l-335 -412zM1007 301q20 0 39 -6t34 -17t24 -28t9 -39q0 -46 -20.5 -86.5t-54 -71t-75 -48t-83.5 -17.5q-43 0 -72 25.5t-29 78.5q0 43 20.5 81t53.5 66.5t73.5 45t80.5 16.5zM1012 289q-32 0 -63 -26.5t-55.5 -64.5t-39.5 -80t-15 -73q0 -18 8.5 -31.5
t32.5 -13.5q32 0 63 26.5t55.5 64.5t39.5 80t15 73q0 18 -8.5 31.5t-32.5 13.5zM638 301q20 0 39 -6t34 -17t24 -28t9 -39q0 -46 -20.5 -86.5t-54 -71t-75 -48t-83.5 -17.5q-43 0 -72 25.5t-29 78.5q0 43 20.5 81t53.5 66.5t73.5 45t80.5 16.5zM643 289q-32 0 -63 -26.5
t-55.5 -64.5t-39.5 -80t-15 -73q0 -18 8.5 -31.5t32.5 -13.5q32 0 63 26.5t55.5 64.5t39.5 80t15 73q0 18 -8.5 31.5t-32.5 13.5z" />
    <glyph glyph-name="Acircumflex" unicode="&#xc2;" horiz-adv-x="870" 
d="M1037 729q-76 -86 -145.5 -175.5t-122 -176.5t-84 -167.5t-31.5 -149.5q0 -26 9 -37t24 -11q29 0 76 32t97 83q16 17 33.5 36.5t34 39t30 36.5t22.5 28l8 -5q-23 -30 -52.5 -67.5t-77.5 -85.5q-51 -51 -101.5 -85t-101.5 -34q-25 0 -41.5 8t-26 21.5t-13.5 30.5t-4 36
q0 61 20 117.5t47 107.5h-140q-41 -48 -91.5 -103t-108.5 -101.5t-122 -77.5t-133 -31q-30 0 -57.5 7t-49.5 21.5t-35 36.5t-13 53q0 29 16 53t48 24q20 0 34 -12.5t14 -30.5q0 -27 -16 -39t-42 -12q0 -21 10 -38t25 -28t34 -17t37 -6q45 0 88.5 15.5t85.5 41.5t81 60t75 70
t68 72.5t59 66.5q55 62 114.5 122.5t124.5 114t136.5 96t150.5 66.5zM643 323q56 99 127 188t155 167l-2 2q-118 -62 -217.5 -154t-197.5 -203h135zM1043 921q10 -40 24 -69t27 -49t22 -31.5t9 -16.5q0 -8 -9 -8q-5 0 -18.5 13t-29 30.5t-29 33.5t-17.5 22
q-13 -10 -35.5 -26.5t-45 -32t-42 -26.5t-28.5 -11q-4 0 -4 7q0 5 13.5 15t36 29t51 48.5t57.5 71.5h18z" />
    <glyph glyph-name="Ecircumflex" unicode="&#xca;" horiz-adv-x="685" 
d="M500 486q22 -8 46 -8q63 0 99.5 33t36.5 99q0 47 -25 73.5t-73 26.5q-29 0 -52.5 -11.5t-40.5 -30.5t-27.5 -44t-14.5 -51q-6 -35 -11.5 -61t-17 -46.5t-31.5 -37t-55 -33.5q-40 -19 -73 -38.5t-56 -45t-36 -60.5t-13 -85q0 -40 16.5 -70.5t43.5 -51.5t61.5 -31.5
t71.5 -10.5q39 0 74 11.5t62 34t43 55.5t16 75t-21.5 66t-63.5 24q-37 0 -66.5 -19t-53.5 -45l-7 5q36 37 75.5 57t92.5 20q27 0 50 -7.5t40.5 -22t27.5 -36t10 -48.5q0 -52 -36 -88t-88.5 -58.5t-110.5 -32t-102 -9.5q-41 0 -83.5 8.5t-76.5 28.5t-55.5 53t-21.5 83
q0 49 20 81.5t50.5 55.5t66 40t66.5 35t52 40t23 55q4 72 25.5 121.5t56.5 79.5t81 43.5t97 13.5q27 0 56 -5t52.5 -18t38.5 -35t15 -55q0 -36 -16.5 -62.5t-42.5 -44.5t-58 -27t-64 -9q-19 0 -37.5 2.5t-36.5 8.5zM669 921q10 -40 24 -69t27 -49t22 -31.5t9 -16.5
q0 -8 -9 -8q-5 0 -18.5 13t-29 30.5t-29 33.5t-17.5 22q-13 -10 -35.5 -26.5t-45 -32t-42 -26.5t-28.5 -11q-4 0 -4 7q0 5 13.5 15t36 29t51 48.5t57.5 71.5h18z" />
    <glyph glyph-name="Aacute" unicode="&#xc1;" horiz-adv-x="870" 
d="M1037 729q-76 -86 -145.5 -175.5t-122 -176.5t-84 -167.5t-31.5 -149.5q0 -26 9 -37t24 -11q29 0 76 32t97 83q16 17 33.5 36.5t34 39t30 36.5t22.5 28l8 -5q-23 -30 -52.5 -67.5t-77.5 -85.5q-51 -51 -101.5 -85t-101.5 -34q-25 0 -41.5 8t-26 21.5t-13.5 30.5t-4 36
q0 61 20 117.5t47 107.5h-140q-41 -48 -91.5 -103t-108.5 -101.5t-122 -77.5t-133 -31q-30 0 -57.5 7t-49.5 21.5t-35 36.5t-13 53q0 29 16 53t48 24q20 0 34 -12.5t14 -30.5q0 -27 -16 -39t-42 -12q0 -21 10 -38t25 -28t34 -17t37 -6q45 0 88.5 15.5t85.5 41.5t81 60t75 70
t68 72.5t59 66.5q55 62 114.5 122.5t124.5 114t136.5 96t150.5 66.5zM643 323q56 99 127 188t155 167l-2 2q-118 -62 -217.5 -154t-197.5 -203h135zM1116 889q0 -23 -19 -48.5t-44.5 -47.5t-49.5 -36t-35 -14q-6 0 -6 7q0 5 11.5 14.5t26.5 24t29.5 32.5t19.5 40q2 8 5 18.5
t7 19.5t10 15.5t13 6.5q15 0 23.5 -9t8.5 -23z" />
    <glyph glyph-name="Edieresis" unicode="&#xcb;" horiz-adv-x="685" 
d="M500 486q22 -8 46 -8q63 0 99.5 33t36.5 99q0 47 -25 73.5t-73 26.5q-29 0 -52.5 -11.5t-40.5 -30.5t-27.5 -44t-14.5 -51q-6 -35 -11.5 -61t-17 -46.5t-31.5 -37t-55 -33.5q-40 -19 -73 -38.5t-56 -45t-36 -60.5t-13 -85q0 -40 16.5 -70.5t43.5 -51.5t61.5 -31.5
t71.5 -10.5q39 0 74 11.5t62 34t43 55.5t16 75t-21.5 66t-63.5 24q-37 0 -66.5 -19t-53.5 -45l-7 5q36 37 75.5 57t92.5 20q27 0 50 -7.5t40.5 -22t27.5 -36t10 -48.5q0 -52 -36 -88t-88.5 -58.5t-110.5 -32t-102 -9.5q-41 0 -83.5 8.5t-76.5 28.5t-55.5 53t-21.5 83
q0 49 20 81.5t50.5 55.5t66 40t66.5 35t52 40t23 55q4 72 25.5 121.5t56.5 79.5t81 43.5t97 13.5q27 0 56 -5t52.5 -18t38.5 -35t15 -55q0 -36 -16.5 -62.5t-42.5 -44.5t-58 -27t-64 -9q-19 0 -37.5 2.5t-36.5 8.5zM731 890q19 0 32 -14.5t13 -33.5t-13 -33.5t-32 -14.5
t-32 14.5t-13 33.5t13 33.5t32 14.5zM551 890q19 0 32 -14.5t13 -33.5t-13 -33.5t-32 -14.5t-32 14.5t-13 33.5t13 33.5t32 14.5z" />
    <glyph glyph-name="Egrave" unicode="&#xc8;" horiz-adv-x="685" 
d="M500 486q22 -8 46 -8q63 0 99.5 33t36.5 99q0 47 -25 73.5t-73 26.5q-29 0 -52.5 -11.5t-40.5 -30.5t-27.5 -44t-14.5 -51q-6 -35 -11.5 -61t-17 -46.5t-31.5 -37t-55 -33.5q-40 -19 -73 -38.5t-56 -45t-36 -60.5t-13 -85q0 -40 16.5 -70.5t43.5 -51.5t61.5 -31.5
t71.5 -10.5q39 0 74 11.5t62 34t43 55.5t16 75t-21.5 66t-63.5 24q-37 0 -66.5 -19t-53.5 -45l-7 5q36 37 75.5 57t92.5 20q27 0 50 -7.5t40.5 -22t27.5 -36t10 -48.5q0 -52 -36 -88t-88.5 -58.5t-110.5 -32t-102 -9.5q-41 0 -83.5 8.5t-76.5 28.5t-55.5 53t-21.5 83
q0 49 20 81.5t50.5 55.5t66 40t66.5 35t52 40t23 55q4 72 25.5 121.5t56.5 79.5t81 43.5t97 13.5q27 0 56 -5t52.5 -18t38.5 -35t15 -55q0 -36 -16.5 -62.5t-42.5 -44.5t-58 -27t-64 -9q-19 0 -37.5 2.5t-36.5 8.5zM486 889q0 14 8.5 23t23.5 9q8 0 13.5 -6.5t9.5 -15.5
t7 -19.5t5 -18.5q5 -22 19.5 -40t29.5 -32.5t26.5 -24t11.5 -14.5q0 -7 -6 -7q-10 0 -34.5 14t-50 36t-44.5 47.5t-19 48.5z" />
    <glyph glyph-name="Iacute" unicode="&#xcd;" horiz-adv-x="611" 
d="M437 521q6 -12 11 -27t5 -32q0 -39 -16 -70t-42.5 -52.5t-61.5 -32.5t-73 -11q-29 0 -54 9t-43.5 26t-29 41t-10.5 54q0 61 35 106t93 77t132 52t152 31.5t153.5 15.5t135.5 4q68 0 107.5 5t60.5 5q11 0 20.5 -4t9.5 -12q0 -9 -10.5 -12.5t-22.5 -3.5q-3 0 -12.5 0.5
t-22.5 1.5l-26 2t-22 2q-63 -26 -108 -62.5t-80 -80t-62.5 -91.5t-54.5 -98t-56.5 -100t-68.5 -97q-65 -78 -147.5 -127.5t-183.5 -49.5q-29 0 -63.5 6t-64.5 20.5t-50 39t-20 61.5q0 28 16 50t46 22q23 0 37 -13.5t14 -35.5q0 -20 -9 -30.5t-32 -15.5q0 -48 29 -70t79 -22
q69 0 122.5 33.5t97.5 88t83.5 123.5t79.5 140q30 53 61.5 97t73.5 82t100.5 70.5t142.5 61.5v2q-45 0 -113 -2.5t-143.5 -11.5t-151.5 -26.5t-136.5 -48.5t-98.5 -78t-38 -115q0 -45 25.5 -71.5t69.5 -26.5q26 0 51 10.5t44.5 29.5t31.5 45t12 57q0 15 -4 29.5t-10 27.5z
M986 889q0 -23 -19 -48.5t-44.5 -47.5t-49.5 -36t-35 -14q-6 0 -6 7q0 5 11.5 14.5t26.5 24t29.5 32.5t19.5 40q2 8 5 18.5t7 19.5t10 15.5t13 6.5q15 0 23.5 -9t8.5 -23z" />
    <glyph glyph-name="Icircumflex" unicode="&#xce;" horiz-adv-x="611" 
d="M437 521q6 -12 11 -27t5 -32q0 -39 -16 -70t-42.5 -52.5t-61.5 -32.5t-73 -11q-29 0 -54 9t-43.5 26t-29 41t-10.5 54q0 61 35 106t93 77t132 52t152 31.5t153.5 15.5t135.5 4q68 0 107.5 5t60.5 5q11 0 20.5 -4t9.5 -12q0 -9 -10.5 -12.5t-22.5 -3.5q-3 0 -12.5 0.5
t-22.5 1.5l-26 2t-22 2q-63 -26 -108 -62.5t-80 -80t-62.5 -91.5t-54.5 -98t-56.5 -100t-68.5 -97q-65 -78 -147.5 -127.5t-183.5 -49.5q-29 0 -63.5 6t-64.5 20.5t-50 39t-20 61.5q0 28 16 50t46 22q23 0 37 -13.5t14 -35.5q0 -20 -9 -30.5t-32 -15.5q0 -48 29 -70t79 -22
q69 0 122.5 33.5t97.5 88t83.5 123.5t79.5 140q30 53 61.5 97t73.5 82t100.5 70.5t142.5 61.5v2q-45 0 -113 -2.5t-143.5 -11.5t-151.5 -26.5t-136.5 -48.5t-98.5 -78t-38 -115q0 -45 25.5 -71.5t69.5 -26.5q26 0 51 10.5t44.5 29.5t31.5 45t12 57q0 15 -4 29.5t-10 27.5z
M913 921q10 -40 24 -69t27 -49t22 -31.5t9 -16.5q0 -8 -9 -8q-5 0 -18.5 13t-29 30.5t-29 33.5t-17.5 22q-13 -10 -35.5 -26.5t-45 -32t-42 -26.5t-28.5 -11q-4 0 -4 7q0 5 13.5 15t36 29t51 48.5t57.5 71.5h18z" />
    <glyph glyph-name="Idieresis" unicode="&#xcf;" horiz-adv-x="611" 
d="M437 521q6 -12 11 -27t5 -32q0 -39 -16 -70t-42.5 -52.5t-61.5 -32.5t-73 -11q-29 0 -54 9t-43.5 26t-29 41t-10.5 54q0 61 35 106t93 77t132 52t152 31.5t153.5 15.5t135.5 4q68 0 107.5 5t60.5 5q11 0 20.5 -4t9.5 -12q0 -9 -10.5 -12.5t-22.5 -3.5q-3 0 -12.5 0.5
t-22.5 1.5l-26 2t-22 2q-63 -26 -108 -62.5t-80 -80t-62.5 -91.5t-54.5 -98t-56.5 -100t-68.5 -97q-65 -78 -147.5 -127.5t-183.5 -49.5q-29 0 -63.5 6t-64.5 20.5t-50 39t-20 61.5q0 28 16 50t46 22q23 0 37 -13.5t14 -35.5q0 -20 -9 -30.5t-32 -15.5q0 -48 29 -70t79 -22
q69 0 122.5 33.5t97.5 88t83.5 123.5t79.5 140q30 53 61.5 97t73.5 82t100.5 70.5t142.5 61.5v2q-45 0 -113 -2.5t-143.5 -11.5t-151.5 -26.5t-136.5 -48.5t-98.5 -78t-38 -115q0 -45 25.5 -71.5t69.5 -26.5q26 0 51 10.5t44.5 29.5t31.5 45t12 57q0 15 -4 29.5t-10 27.5z
M975 890q19 0 32 -14.5t13 -33.5t-13 -33.5t-32 -14.5t-32 14.5t-13 33.5t13 33.5t32 14.5zM795 890q19 0 32 -14.5t13 -33.5t-13 -33.5t-32 -14.5t-32 14.5t-13 33.5t13 33.5t32 14.5z" />
    <glyph glyph-name="Igrave" unicode="&#xcc;" horiz-adv-x="611" 
d="M437 521q6 -12 11 -27t5 -32q0 -39 -16 -70t-42.5 -52.5t-61.5 -32.5t-73 -11q-29 0 -54 9t-43.5 26t-29 41t-10.5 54q0 61 35 106t93 77t132 52t152 31.5t153.5 15.5t135.5 4q68 0 107.5 5t60.5 5q11 0 20.5 -4t9.5 -12q0 -9 -10.5 -12.5t-22.5 -3.5q-3 0 -12.5 0.5
t-22.5 1.5l-26 2t-22 2q-63 -26 -108 -62.5t-80 -80t-62.5 -91.5t-54.5 -98t-56.5 -100t-68.5 -97q-65 -78 -147.5 -127.5t-183.5 -49.5q-29 0 -63.5 6t-64.5 20.5t-50 39t-20 61.5q0 28 16 50t46 22q23 0 37 -13.5t14 -35.5q0 -20 -9 -30.5t-32 -15.5q0 -48 29 -70t79 -22
q69 0 122.5 33.5t97.5 88t83.5 123.5t79.5 140q30 53 61.5 97t73.5 82t100.5 70.5t142.5 61.5v2q-45 0 -113 -2.5t-143.5 -11.5t-151.5 -26.5t-136.5 -48.5t-98.5 -78t-38 -115q0 -45 25.5 -71.5t69.5 -26.5q26 0 51 10.5t44.5 29.5t31.5 45t12 57q0 15 -4 29.5t-10 27.5z
M730 889q0 14 8.5 23t23.5 9q8 0 13.5 -6.5t9.5 -15.5t7 -19.5t5 -18.5q5 -22 19.5 -40t29.5 -32.5t26.5 -24t11.5 -14.5q0 -7 -6 -7q-10 0 -34.5 14t-50 36t-44.5 47.5t-19 48.5z" />
    <glyph glyph-name="Oacute" unicode="&#xd3;" horiz-adv-x="741" 
d="M859 262q-39 -35 -83.5 -54t-85.5 -19q-47 0 -85 14q-32 -40 -71 -79.5t-83.5 -70.5t-94.5 -50t-104 -19q-50 0 -83.5 15t-54 40.5t-29 58t-8.5 68.5q0 55 17.5 113t49 112.5t74.5 104t93 87.5t105.5 63t111.5 30q32 30 58.5 38t50.5 8q60 0 88.5 -45t28.5 -115
q0 -44 -12.5 -91.5t-32.5 -93t-45 -88t-50 -76.5q17 -8 35.5 -10t38.5 -2q24 0 47.5 6t45.5 16t40.5 22t31.5 24zM432 452q0 58 22.5 112.5t61.5 96.5l-2 2q-50 -10 -94 -38.5t-81.5 -69t-67 -90.5t-50 -103t-31.5 -105.5t-11 -99.5q0 -30 5 -58t16.5 -49.5t31 -34.5
t48.5 -13q44 0 87 21.5t81.5 53.5t69 70.5t49.5 72.5q-31 17 -56 41.5t-42.5 55t-27 65t-9.5 70.5zM604 557q2 6 3 17t1 20q0 14 -4 27.5t-13 23t-23.5 15t-36.5 4.5q-15 -16 -26 -38.5t-18.5 -48t-11 -52t-3.5 -49.5q0 -33 5 -69t17 -69.5t31.5 -61.5t49.5 -45
q22 36 40.5 78.5t31.5 87t20 89t7 85.5q0 26 -4 49t-13 40.5t-24 27.5t-37 10q-18 0 -31 -6t-23 -16q22 -1 37 -8t24 -18.5t13 -26.5t4 -30q0 -12 -1.5 -20.5t-3.5 -16.5zM770 889q0 -23 -19 -48.5t-44.5 -47.5t-49.5 -36t-35 -14q-6 0 -6 7q0 5 11.5 14.5t26.5 24
t29.5 32.5t19.5 40q2 8 5 18.5t7 19.5t10 15.5t13 6.5q15 0 23.5 -9t8.5 -23z" />
    <glyph glyph-name="Ocircumflex" unicode="&#xd4;" horiz-adv-x="741" 
d="M859 262q-39 -35 -83.5 -54t-85.5 -19q-47 0 -85 14q-32 -40 -71 -79.5t-83.5 -70.5t-94.5 -50t-104 -19q-50 0 -83.5 15t-54 40.5t-29 58t-8.5 68.5q0 55 17.5 113t49 112.5t74.5 104t93 87.5t105.5 63t111.5 30q32 30 58.5 38t50.5 8q60 0 88.5 -45t28.5 -115
q0 -44 -12.5 -91.5t-32.5 -93t-45 -88t-50 -76.5q17 -8 35.5 -10t38.5 -2q24 0 47.5 6t45.5 16t40.5 22t31.5 24zM432 452q0 58 22.5 112.5t61.5 96.5l-2 2q-50 -10 -94 -38.5t-81.5 -69t-67 -90.5t-50 -103t-31.5 -105.5t-11 -99.5q0 -30 5 -58t16.5 -49.5t31 -34.5
t48.5 -13q44 0 87 21.5t81.5 53.5t69 70.5t49.5 72.5q-31 17 -56 41.5t-42.5 55t-27 65t-9.5 70.5zM604 557q2 6 3 17t1 20q0 14 -4 27.5t-13 23t-23.5 15t-36.5 4.5q-15 -16 -26 -38.5t-18.5 -48t-11 -52t-3.5 -49.5q0 -33 5 -69t17 -69.5t31.5 -61.5t49.5 -45
q22 36 40.5 78.5t31.5 87t20 89t7 85.5q0 26 -4 49t-13 40.5t-24 27.5t-37 10q-18 0 -31 -6t-23 -16q22 -1 37 -8t24 -18.5t13 -26.5t4 -30q0 -12 -1.5 -20.5t-3.5 -16.5zM697 921q10 -40 24 -69t27 -49t22 -31.5t9 -16.5q0 -8 -9 -8q-5 0 -18.5 13t-29 30.5t-29 33.5
t-17.5 22q-13 -10 -35.5 -26.5t-45 -32t-42 -26.5t-28.5 -11q-4 0 -4 7q0 5 13.5 15t36 29t51 48.5t57.5 71.5h18z" />
    <glyph glyph-name="Ograve" unicode="&#xd2;" horiz-adv-x="741" 
d="M859 262q-39 -35 -83.5 -54t-85.5 -19q-47 0 -85 14q-32 -40 -71 -79.5t-83.5 -70.5t-94.5 -50t-104 -19q-50 0 -83.5 15t-54 40.5t-29 58t-8.5 68.5q0 55 17.5 113t49 112.5t74.5 104t93 87.5t105.5 63t111.5 30q32 30 58.5 38t50.5 8q60 0 88.5 -45t28.5 -115
q0 -44 -12.5 -91.5t-32.5 -93t-45 -88t-50 -76.5q17 -8 35.5 -10t38.5 -2q24 0 47.5 6t45.5 16t40.5 22t31.5 24zM432 452q0 58 22.5 112.5t61.5 96.5l-2 2q-50 -10 -94 -38.5t-81.5 -69t-67 -90.5t-50 -103t-31.5 -105.5t-11 -99.5q0 -30 5 -58t16.5 -49.5t31 -34.5
t48.5 -13q44 0 87 21.5t81.5 53.5t69 70.5t49.5 72.5q-31 17 -56 41.5t-42.5 55t-27 65t-9.5 70.5zM604 557q2 6 3 17t1 20q0 14 -4 27.5t-13 23t-23.5 15t-36.5 4.5q-15 -16 -26 -38.5t-18.5 -48t-11 -52t-3.5 -49.5q0 -33 5 -69t17 -69.5t31.5 -61.5t49.5 -45
q22 36 40.5 78.5t31.5 87t20 89t7 85.5q0 26 -4 49t-13 40.5t-24 27.5t-37 10q-18 0 -31 -6t-23 -16q22 -1 37 -8t24 -18.5t13 -26.5t4 -30q0 -12 -1.5 -20.5t-3.5 -16.5zM514 889q0 14 8.5 23t23.5 9q8 0 13.5 -6.5t9.5 -15.5t7 -19.5t5 -18.5q5 -22 19.5 -40t29.5 -32.5
t26.5 -24t11.5 -14.5q0 -7 -6 -7q-10 0 -34.5 14t-50 36t-44.5 47.5t-19 48.5z" />
    <glyph glyph-name="Uacute" unicode="&#xda;" horiz-adv-x="833" 
d="M984 700l-260 -404q-34 -54 -58 -93.5t-38 -68.5t-20.5 -50.5t-6.5 -39.5q0 -17 6.5 -26.5t21.5 -9.5q30 0 69 24.5t81 62.5t84 83.5t78 87.5l9 -7q-9 -11 -24.5 -29t-34 -38.5t-38.5 -41.5t-38 -39q-60 -59 -108 -90t-97 -31q-50 0 -69.5 22.5t-19.5 56.5t16 68.5
t34 62.5l-2 2q-31 -37 -69 -75t-79.5 -68.5t-85.5 -49.5t-88 -19q-36 0 -53.5 20t-17.5 55q0 32 23 80.5t58 104.5t75 115.5t75 115.5t58 103.5t23 78.5q0 23 -17.5 36t-47.5 13q-48 0 -99 -22.5t-92 -59t-67.5 -84.5t-26.5 -99q0 -27 16 -49.5t45 -22.5q40 0 72 24.5
t58 57.5l8 -6q-29 -38 -67 -66t-87 -28q-42 0 -66.5 24.5t-24.5 66.5q0 58 34.5 109t88.5 89.5t120.5 61t129.5 22.5q45 0 76 -24t31 -72q0 -30 -23 -76t-58 -100.5t-75 -112.5t-75 -112t-58 -100t-23 -75q0 -20 11 -30t30 -10q33 0 79 28t94 72t92.5 97.5t75.5 103.5
l232 377zM853 889q0 -23 -19 -48.5t-44.5 -47.5t-49.5 -36t-35 -14q-6 0 -6 7q0 5 11.5 14.5t26.5 24t29.5 32.5t19.5 40q2 8 5 18.5t7 19.5t10 15.5t13 6.5q15 0 23.5 -9t8.5 -23z" />
    <glyph glyph-name="Ucircumflex" unicode="&#xdb;" horiz-adv-x="833" 
d="M984 700l-260 -404q-34 -54 -58 -93.5t-38 -68.5t-20.5 -50.5t-6.5 -39.5q0 -17 6.5 -26.5t21.5 -9.5q30 0 69 24.5t81 62.5t84 83.5t78 87.5l9 -7q-9 -11 -24.5 -29t-34 -38.5t-38.5 -41.5t-38 -39q-60 -59 -108 -90t-97 -31q-50 0 -69.5 22.5t-19.5 56.5t16 68.5
t34 62.5l-2 2q-31 -37 -69 -75t-79.5 -68.5t-85.5 -49.5t-88 -19q-36 0 -53.5 20t-17.5 55q0 32 23 80.5t58 104.5t75 115.5t75 115.5t58 103.5t23 78.5q0 23 -17.5 36t-47.5 13q-48 0 -99 -22.5t-92 -59t-67.5 -84.5t-26.5 -99q0 -27 16 -49.5t45 -22.5q40 0 72 24.5
t58 57.5l8 -6q-29 -38 -67 -66t-87 -28q-42 0 -66.5 24.5t-24.5 66.5q0 58 34.5 109t88.5 89.5t120.5 61t129.5 22.5q45 0 76 -24t31 -72q0 -30 -23 -76t-58 -100.5t-75 -112.5t-75 -112t-58 -100t-23 -75q0 -20 11 -30t30 -10q33 0 79 28t94 72t92.5 97.5t75.5 103.5
l232 377zM780 921q10 -40 24 -69t27 -49t22 -31.5t9 -16.5q0 -8 -9 -8q-5 0 -18.5 13t-29 30.5t-29 33.5t-17.5 22q-13 -10 -35.5 -26.5t-45 -32t-42 -26.5t-28.5 -11q-4 0 -4 7q0 5 13.5 15t36 29t51 48.5t57.5 71.5h18z" />
    <glyph glyph-name="Ugrave" unicode="&#xd9;" horiz-adv-x="833" 
d="M984 700l-260 -404q-34 -54 -58 -93.5t-38 -68.5t-20.5 -50.5t-6.5 -39.5q0 -17 6.5 -26.5t21.5 -9.5q30 0 69 24.5t81 62.5t84 83.5t78 87.5l9 -7q-9 -11 -24.5 -29t-34 -38.5t-38.5 -41.5t-38 -39q-60 -59 -108 -90t-97 -31q-50 0 -69.5 22.5t-19.5 56.5t16 68.5
t34 62.5l-2 2q-31 -37 -69 -75t-79.5 -68.5t-85.5 -49.5t-88 -19q-36 0 -53.5 20t-17.5 55q0 32 23 80.5t58 104.5t75 115.5t75 115.5t58 103.5t23 78.5q0 23 -17.5 36t-47.5 13q-48 0 -99 -22.5t-92 -59t-67.5 -84.5t-26.5 -99q0 -27 16 -49.5t45 -22.5q40 0 72 24.5
t58 57.5l8 -6q-29 -38 -67 -66t-87 -28q-42 0 -66.5 24.5t-24.5 66.5q0 58 34.5 109t88.5 89.5t120.5 61t129.5 22.5q45 0 76 -24t31 -72q0 -30 -23 -76t-58 -100.5t-75 -112.5t-75 -112t-58 -100t-23 -75q0 -20 11 -30t30 -10q33 0 79 28t94 72t92.5 97.5t75.5 103.5
l232 377zM597 889q0 14 8.5 23t23.5 9q8 0 13.5 -6.5t9.5 -15.5t7 -19.5t5 -18.5q5 -22 19.5 -40t29.5 -32.5t26.5 -24t11.5 -14.5q0 -7 -6 -7q-10 0 -34.5 14t-50 36t-44.5 47.5t-19 48.5z" />
    <glyph glyph-name="dotlessi" unicode="&#x131;" horiz-adv-x="259" 
d="M243 352q-47 -74 -81 -126.5t-55.5 -89.5t-32 -60.5t-10.5 -38.5q0 -12 4.5 -19.5t13.5 -7.5q20 0 56.5 23t91.5 79q22 23 43 45.5t39.5 43.5t33 38t23.5 27l9 -6q-12 -16 -29.5 -36.5t-37.5 -43t-41 -44.5t-41 -42q-58 -58 -99.5 -81t-76.5 -23q-33 0 -51 18t-18 47
q0 20 7.5 41.5t25.5 53.5t48 79.5t75 117.5z" />
    <glyph glyph-name="circumflex" unicode="&#x2c6;" horiz-adv-x="259" 
d="M262 590q10 -40 24 -69t27 -49t22 -31.5t9 -16.5q0 -8 -9 -8q-5 0 -18.5 13t-29 30.5t-29 33.5t-17.5 22q-13 -10 -35.5 -26.5t-45 -32t-42 -26.5t-28.5 -11q-4 0 -4 7q0 5 13.5 15t36 29t51 48.5t57.5 71.5h18z" />
    <glyph glyph-name="tilde" unicode="&#x2dc;" horiz-adv-x="259" 
d="M89 454q2 16 8 33t16.5 31t25 23t32.5 9q23 0 41.5 -6t35.5 -13t32.5 -13t30.5 -6q26 0 40 12.5t23 35.5h17q-3 -17 -10 -34t-18.5 -31t-26.5 -22.5t-34 -8.5q-20 0 -38 5.5t-35 13.5t-34 13.5t-34 5.5q-23 0 -36.5 -14t-21.5 -34h-14z" />
    <glyph glyph-name="macron" unicode="&#xaf;" horiz-adv-x="259" 
d="M362 479h-266v46h266v-46z" />
    <glyph glyph-name="breve" unicode="&#x2d8;" horiz-adv-x="259" 
d="M209 436q-21 0 -38.5 9.5t-31 25.5t-21 35.5t-7.5 38.5q0 8 2.5 13t9.5 6q9 1 12.5 -11t10.5 -26.5t22 -26.5t47 -12q30 0 58 11.5t51 25t38.5 24.5t19.5 11q2 0 4.5 -2t2.5 -7q0 -7 -16.5 -25.5t-42.5 -38.5t-58 -35.5t-63 -15.5z" />
    <glyph glyph-name="dotaccent" unicode="&#x2d9;" horiz-adv-x="259" 
d="M234 560q19 0 32 -14.5t13 -33.5t-13 -33.5t-32 -14.5t-32 14.5t-13 33.5t13 33.5t32 14.5z" />
    <glyph glyph-name="ring" unicode="&#x2da;" horiz-adv-x="259" 
d="M297 596q-19 0 -37 -14.5t-31.5 -34.5t-21.5 -42.5t-8 -39.5q0 -16 7 -27.5t25 -11.5q20 0 37.5 14.5t31 34.5t21.5 43t8 39t-7 27.5t-25 11.5zM289 606q15 0 30 -4t27 -12.5t19.5 -21.5t7.5 -30q0 -26 -11.5 -48t-30 -38.5t-42.5 -26t-50 -9.5q-15 0 -30 4t-27 12.5
t-19.5 21.5t-7.5 30q0 26 11.5 48t30 38.5t43 26t49.5 9.5z" />
    <glyph glyph-name="cedilla" unicode="&#xb8;" horiz-adv-x="259" 
d="M27 -5l-20 -30t-17 -32q7 2 18 2.5t18 0.5q29 0 49.5 -14t20.5 -47q0 -21 -9.5 -35t-25 -22.5t-35.5 -12t-42 -3.5q-13 0 -33 3t-39 8.5t-32.5 12.5t-13.5 15q0 6 3 7.5t7 1.5q3 0 12.5 -4t23 -8.5t30 -8t34.5 -3.5q12 0 25.5 1.5t24 7t17.5 15t7 24.5q0 23 -14.5 30.5
t-29.5 7.5q-14 0 -25 -2t-19 -2q-7 0 -7 7q0 4 6.5 15t14.5 24t15.5 24.5t10.5 16.5h25z" />
    <glyph glyph-name="hungarumlaut" unicode="&#x2dd;" horiz-adv-x="259" 
d="M335 558q0 -23 -19 -48.5t-44.5 -47.5t-49.5 -36t-35 -14q-6 0 -6 7q0 5 11.5 14.5t26.5 24t29.5 32.5t19.5 40q2 8 5 18.5t7 19.5t10 15.5t13 6.5q15 0 23.5 -9t8.5 -23zM198 550q0 -23 -19 -48.5t-44.5 -47.5t-49.5 -36t-35 -14q-6 0 -6 7q0 5 11.5 14.5t26.5 24
t29.5 32.5t19.5 40q2 8 5 18.5t7 19.5t10 15.5t13 6.5q15 0 23.5 -9t8.5 -23z" />
    <glyph glyph-name="ogonek" unicode="&#x2db;" horiz-adv-x="259" 
d="M26 -104q0 -20 11.5 -33.5t35.5 -13.5q12 0 23.5 3.5t20.5 8.5q-2 -9 -5 -19t-5 -15q-3 -5 -17.5 -9.5t-38.5 -4.5t-42.5 17t-18.5 52q0 28 16.5 51.5t36.5 44.5q7 7 14.5 15.5t10.5 8.5q5 0 6 -3q-1 -3 -9 -14t-16 -25q-8 -12 -15.5 -28.5t-7.5 -35.5z" />
    <glyph glyph-name="caron" unicode="&#x2c7;" horiz-adv-x="259" 
d="M199 416q-10 40 -24 69t-27 49t-22 32t-9 16q0 8 9 8q5 0 18.5 -13t29 -30.5t29 -33.5t17.5 -22q14 11 36 27t44.5 31.5t42 26.5t28.5 11q4 0 4 -7q0 -4 -13.5 -14.5t-36 -29.5t-51 -48.5t-57.5 -71.5h-18z" />
    <glyph glyph-name="divisionslash" unicode="&#x2215;" horiz-adv-x="167" 
d="M-154 -12l449 564h46l-447 -564h-48z" />
    <glyph glyph-name="uni2216" unicode="&#x2216;" horiz-adv-x="167" 
d="M293 -12l-447 564h46l449 -564h-48z" />
    <glyph glyph-name="currency" unicode="&#xa4;" horiz-adv-x="537" 
d="M198 482l36 -71q32 22 65.5 33.5t63.5 11.5q35 0 57.5 -11.5t35.5 -32.5l89 75l7 -11l-90 -77q12 -29 12 -69q0 -44 -24.5 -94.5t-66.5 -90.5l44 -60l-57 -47l-37 67q-26 -16 -55 -25t-60 -9q-47 0 -77 28l-91 -78l-7 13l89 75q-24 30 -24 78q0 55 21.5 101.5t56.5 81.5
l-49 65zM335 442q-29 0 -58 -20t-52 -53t-37.5 -76.5t-14.5 -90.5q0 -21 3 -42t11 -37.5t23.5 -27t39.5 -10.5q29 0 57.5 19t50.5 51.5t35.5 76t13.5 93.5q0 19 -2.5 39.5t-10 38t-21.5 28.5t-38 11z" />
    <glyph glyph-name="Lslash" unicode="&#x141;" horiz-adv-x="574" 
d="M295 269q23 39 45.5 81.5t46.5 87.5q-27 7 -55 18t-51.5 29t-38.5 44.5t-15 62.5q0 51 30.5 82.5t87.5 31.5q15 0 29 -2.5t24 -8.5l-4 -9q-11 4 -22.5 6t-25.5 2q-28 0 -48.5 -8.5t-33.5 -23t-19 -33t-6 -38.5q0 -28 12.5 -51.5t34 -41.5t49.5 -30.5t59 -18.5
q27 54 69.5 103t95.5 87t114 60.5t125 22.5q21 0 42.5 -4t39 -13.5t29 -26t11.5 -41.5q0 -40 -24 -71t-63 -54.5t-87.5 -39.5t-97.5 -26.5t-93 -15t-75 -4.5q-17 -32 -33 -62.5t-33 -59.5l188 56v-10l-195 -58q-28 -46 -60 -87t-70 -75.5t-84.5 -61.5t-103.5 -44v-2
q30 0 69 -1.5t74 -12t60 -32.5t28 -62q39 42 84.5 88t93 91.5t94 88t87.5 77.5l6 -7q-39 -35 -88.5 -80t-99.5 -92.5t-96.5 -94.5t-80.5 -85q-4 -18 -12 -34.5t-20 -28.5t-26.5 -19.5t-30.5 -7.5q-5 0 -13.5 1t-8.5 9q0 6 4 9.5t9.5 9.5t9.5 17t4 32q0 40 -16.5 64.5t-41 38
t-53 17.5t-53.5 4q-13 0 -35 -6t-47.5 -13t-52 -13t-49.5 -6q-18 0 -34 2.5t-16 17.5q0 10 7 16t29.5 9.5t64 5t111.5 1.5q33 0 63 17t59.5 47.5t58 73t56.5 92.5l-169 -50v10zM844 660q0 20 -13.5 35t-46.5 15q-45 0 -89.5 -28.5t-84.5 -70t-72 -88.5t-53 -85q29 0 67 4
t78 13.5t78.5 26t68.5 41t48.5 58.5t18.5 79z" />
    <glyph glyph-name="lslash" unicode="&#x142;" horiz-adv-x="259" 
d="M392 449l-131 -61l-114 -181q-39 -63 -62 -104.5t-23 -67.5q0 -27 22 -27q21 0 57 23t77 64q38 38 75 81t72 89l9 -3q-12 -16 -27.5 -36t-32.5 -40.5t-34.5 -41t-34.5 -37.5q-58 -59 -102.5 -88t-92.5 -29q-68 0 -68 60q0 28 20.5 70.5t63.5 114.5l54 86l-2 2l-128 -60
l7 14l132 61l216 355l111 6l-185 -293l2 -2l126 59z" />
    <glyph glyph-name="onesuperior" unicode="&#xb9;" horiz-adv-x="322" 
d="M116 424q75 15 143 45.5t128 70.5l15 -4q-53 -77 -108 -157.5t-102 -153.5l51 2l-2 -7q-68 -5 -138 -6l178 255l-2 2q-34 -16 -75 -29.5t-86 -23.5z" />
    <glyph glyph-name="Eth" unicode="&#xd0;" horiz-adv-x="944" 
d="M454 350q-12 0 -16 1.5t-4 4.5t4 4.5t16 1.5h73q23 41 49 81.5t55.5 77t64 67.5t74.5 53q-40 35 -100 52t-126 17q-87 0 -166.5 -26t-139.5 -74t-96 -115.5t-36 -150.5q0 -27 7 -53t21 -47t36.5 -33.5t52.5 -12.5q47 0 82.5 26.5t59.5 68.5t36.5 93.5t13.5 101.5h12
q-3 -81 -24 -140.5t-55 -99t-77 -59t-90 -19.5q-36 0 -64.5 14t-48.5 37.5t-31 54t-11 64.5q0 53 20.5 102.5t56.5 92t84.5 77t103.5 59t115 38t118 13.5q44 0 79.5 -3.5t66.5 -11.5t60 -21.5t60 -33.5q49 31 105 48.5t113 25.5v-8q-55 -5 -102 -29t-89 -59
q100 -93 100 -232q0 -100 -41.5 -176.5t-111 -128t-160 -77.5t-188.5 -26q-46 0 -96.5 7t-90.5 15q-22 -3 -49.5 -7.5t-70.5 -4.5q-42 0 -58.5 9.5t-16.5 19.5q0 11 8.5 15t29.5 4q20 0 61 -8t96 -16q49 9 88.5 39.5t73.5 75t65 99.5t64 112h-66zM621 350
q-29 -54 -59.5 -104t-72 -92.5t-98.5 -76.5t-139 -57v-2q12 -3 56 -9.5t104 -6.5q91 -1 168.5 40t134.5 108t89.5 151.5t32.5 170.5q0 38 -8 75t-33 66q-59 -63 -97.5 -126.5t-70.5 -124.5h62q12 0 16 -1.5t4 -4.5t-4 -4.5t-16 -1.5h-69z" />
    <glyph glyph-name="onehalf" unicode="&#xbd;" horiz-adv-x="805" 
d="M683 106q-12 -20 -27 -40.5t-33 -37t-40.5 -26.5t-50.5 -10q-16 0 -35.5 6t-39.5 13.5t-37.5 13t-28.5 4.5q-16 -1 -25 -7t-15 -13t-10.5 -12t-11.5 -5q-9 0 -9 10q0 7 10 14.5t36 20t71.5 33t116.5 52.5q42 19 65 46t23 70q0 12 -3.5 25t-11.5 23.5t-19.5 17.5t-28.5 7
q-29 0 -47 -17.5t-18 -44.5q0 -19 7.5 -33t26.5 -14q6 0 13.5 2t12.5 6q-6 -19 -20.5 -30.5t-37.5 -11.5q-24 0 -41 13t-17 39q0 24 14 43t35.5 32.5t46.5 20.5t47 7q23 0 43 -5t36 -15t25 -25t9 -35q0 -37 -26.5 -64.5t-69 -49.5t-96 -40.5t-107.5 -37.5l2 -2q10 3 22 4.5
t22 1.5q33 0 65.5 -9.5t55.5 -9.5q17 0 31 7t26 18t21.5 23.5t16.5 24.5zM122 424q75 15 143 45.5t128 70.5l15 -4q-53 -77 -108 -157.5t-102 -153.5l51 2l-2 -7q-68 -5 -138 -6l178 255l-2 2q-34 -16 -75 -29.5t-86 -23.5zM137 -12l449 564h46l-447 -564h-48z" />
    <glyph glyph-name="Thorn" unicode="&#xde;" horiz-adv-x="815" 
d="M383 528q24 53 66 88.5t94.5 57t112.5 30.5t119 9q40 0 63.5 -1t42.5 -3v-10q-40 -2 -79.5 -27t-75.5 -61t-65.5 -76t-49.5 -73l2 -2q9 11 26 27t38.5 30.5t45.5 24.5t47 10q37 0 61.5 -21.5t24.5 -58.5q0 -38 -17 -81.5t-54 -80.5t-93.5 -61.5t-136.5 -24.5
q-18 0 -32.5 2t-23.5 4l4 10q11 -2 21.5 -3t24.5 -1q61 0 103 23.5t67.5 55t37 65t11.5 52.5q0 60 -48 60q-17 0 -38.5 -10t-42.5 -25.5t-40 -34.5t-31 -38q-30 -46 -58 -93.5t-57.5 -92t-61.5 -83.5t-70 -68t-84 -46t-102 -17q-29 0 -62 7.5t-61 24.5t-46.5 43.5
t-18.5 64.5q0 28 18 47.5t45 19.5q22 0 37 -12.5t15 -35.5q0 -15 -9.5 -28.5t-29.5 -15.5q2 -28 13 -48t27 -32t36 -17.5t39 -5.5q39 0 72.5 25.5t66 68t65 98t69 115.5t78.5 121t92.5 115t112 96t137.5 64v2h-46q-48 0 -92.5 -9t-83 -29.5t-70.5 -53.5t-55 -81h-101z" />
    <glyph glyph-name="onequarter" unicode="&#xbc;" horiz-adv-x="805" 
d="M540 110h-188l332 261h39l-327 -241v-2h157l120 179l86 8q-35 -47 -67.5 -94.5t-63.5 -92.5h61l-5 -18h-67q-17 -26 -34.5 -52t-33.5 -54l-87 -4zM146 424q75 15 143 45.5t128 70.5l15 -4q-53 -77 -108 -157.5t-102 -153.5l51 2l-2 -7q-68 -5 -138 -6l178 255l-2 2
q-34 -16 -75 -29.5t-86 -23.5zM154 -12l449 564h46l-447 -564h-48z" />
    <glyph glyph-name="brokenbar" unicode="&#xa6;" horiz-adv-x="222" 
d="M146 259h59l-168 -259h-59zM440 712h59l-169 -259h-59z" />
    <glyph glyph-name="thorn" unicode="&#xfe;" 
d="M438 650l-217 -310l2 -2q35 30 78 30q54 0 83.5 -29.5t36.5 -69.5q5 -30 22.5 -48t45.5 -18q27 0 51 16t51 48l6 -8q-20 -26 -47.5 -47t-60.5 -21q-23 0 -40 10t-31 28q-12 -50 -40 -94.5t-65.5 -78t-81.5 -53t-88 -19.5q-36 0 -51.5 22t-15.5 53q0 19 3.5 34.5t6.5 25.5
l-2 2l-246 -441l-106 -4q64 102 129.5 208.5t137.5 224t154 249.5t178 286zM337 303q0 25 -10.5 39t-33.5 14t-47.5 -16t-47.5 -41.5t-43 -57.5t-35 -65t-23.5 -64t-8.5 -54q0 -26 12.5 -44t35.5 -18t46.5 17t46 44t42 61t34.5 68t23.5 65t8.5 52z" />
    <glyph glyph-name="threequarters" unicode="&#xbe;" horiz-adv-x="805" 
d="M580 110h-188l332 261h39l-327 -241v-2h157l120 179l86 8q-35 -47 -67.5 -94.5t-63.5 -92.5h61l-5 -18h-67q-17 -26 -34.5 -52t-33.5 -54l-87 -4zM194 -12l449 564h46l-447 -564h-48zM214 384q25 0 53 4t51 14t38.5 28t15.5 47q0 23 -10 37t-36 14t-38.5 -16t-12.5 -35
q0 -14 7.5 -23t22.5 -9q3 0 11 2.5t10 5.5q-6 -17 -21 -27.5t-35 -10.5q-23 0 -36 12.5t-13 32.5q0 35 36 57.5t93 22.5q16 0 32 -3.5t29.5 -11t22 -19t8.5 -28.5q0 -27 -17 -43.5t-41.5 -26.5t-52 -15t-48.5 -8v-2q16 0 33 -2.5t31 -9.5t23 -19t9 -30q0 -33 -19 -54.5
t-46.5 -34.5t-58 -18.5t-53.5 -5.5q-25 0 -49.5 4t-44 14t-31.5 25.5t-12 37.5q0 26 20 44.5t48 18.5q18 0 31.5 -8t25.5 -19l-3 -5q-6 2 -11 3t-10 1q-16 0 -26.5 -12t-10.5 -32q0 -26 19.5 -43t57.5 -17q46 0 73.5 29.5t25.5 73.5q0 32 -16.5 42t-48.5 10q-14 0 -28 -3z
" />
    <glyph glyph-name="twosuperior" unicode="&#xb2;" horiz-adv-x="322" 
d="M356 323q-12 -20 -27 -40.5t-33 -37t-40.5 -26.5t-50.5 -10q-16 0 -35.5 6t-39.5 13.5t-37.5 13t-28.5 4.5q-16 -1 -25 -7t-15 -13t-10.5 -12t-11.5 -5q-9 0 -9 10q0 7 10 14.5t36 20t71.5 33t116.5 52.5q42 19 65 46t23 70q0 12 -3.5 25t-11.5 23.5t-19.5 17.5t-28.5 7
q-29 0 -47 -17.5t-18 -44.5q0 -19 7.5 -33t26.5 -14q6 0 13.5 2t12.5 6q-6 -19 -20.5 -30.5t-37.5 -11.5q-24 0 -41 13t-17 39q0 24 14 43t35.5 32.5t46.5 20.5t47 7q23 0 43 -5t36 -15t25 -25t9 -35q0 -37 -26.5 -64.5t-69 -49.5t-96 -40.5t-107.5 -37.5l2 -2q10 3 22 4.5
t22 1.5q33 0 65.5 -9.5t55.5 -9.5q17 0 31 7t26 18t21.5 23.5t16.5 24.5z" />
    <glyph glyph-name="minus" unicode="&#x2212;" horiz-adv-x="600" 
d="M474 191l-13 -15h-318l12 15h319z" />
    <glyph glyph-name="eth" unicode="&#xf0;" 
d="M475 511q-3 -23 -6 -49t-8 -57t-13 -69t-22 -86q8 -23 25.5 -35t37.5 -12q27 0 51 16t51 48l6 -8q-20 -26 -47.5 -47t-60.5 -21q-23 0 -39.5 10t-30.5 27q-21 -64 -53.5 -110.5t-71.5 -76t-82.5 -43.5t-86.5 -14q-55 0 -88 31.5t-33 86.5q0 53 27 101.5t70 85t95 58
t102 21.5q35 0 67 -16q3 39 6 83t8 76h-107q-6 0 -6 6t6 6h108q17 107 62 152t120 47q34 1 66 -11t57 -33l-9 -12q-16 11 -39.5 21.5t-50.5 10.5q-23 0 -41.5 -8t-32 -28t-22 -53.5t-13.5 -85.5h114q6 0 6 -6t-6 -6h-116zM132 -4q25 0 50 17t48 44t42.5 61t34 68t22.5 65
t8 52q0 25 -10.5 39t-33.5 14q-25 0 -50 -17t-48 -44t-42.5 -61t-34 -68t-22.5 -65t-8 -52q0 -25 10.5 -39t33.5 -14z" />
    <glyph glyph-name="multiply" unicode="&#xd7;" horiz-adv-x="600" 
d="M246 330l60 29l55 -161l272 164l7 -12l-274 -165l58 -157l-63 -29l-52 155l-252 -154l-7 13l255 154z" />
    <glyph glyph-name="threesuperior" unicode="&#xb3;" horiz-adv-x="322" 
d="M184 384q25 0 53 4t51 14t38.5 28t15.5 47q0 23 -10 37t-36 14t-38.5 -16t-12.5 -35q0 -14 7.5 -23t22.5 -9q3 0 11 2.5t10 5.5q-6 -17 -21 -27.5t-35 -10.5q-23 0 -36 12.5t-13 32.5q0 35 36 57.5t93 22.5q16 0 32 -3.5t29.5 -11t22 -19t8.5 -28.5q0 -27 -17 -43.5
t-41.5 -26.5t-52 -15t-48.5 -8v-2q16 0 33 -2.5t31 -9.5t23 -19t9 -30q0 -33 -19 -54.5t-46.5 -34.5t-58 -18.5t-53.5 -5.5q-25 0 -49.5 4t-44 14t-31.5 25.5t-12 37.5q0 26 20 44.5t48 18.5q18 0 31.5 -8t25.5 -19l-3 -5q-6 2 -11 3t-10 1q-16 0 -26.5 -12t-10.5 -32
q0 -26 19.5 -43t57.5 -17q46 0 73.5 29.5t25.5 73.5q0 32 -16.5 42t-48.5 10q-14 0 -28 -3z" />
    <glyph glyph-name="Scaron" unicode="&#x160;" horiz-adv-x="556" 
d="M-58 175q0 19 5 37t15.5 32.5t26 23t36.5 8.5q20 0 36.5 -11.5t16.5 -33.5q0 -27 -19.5 -41.5t-44.5 -15.5q-5 -14 -6.5 -28t-1.5 -28q0 -34 16.5 -57.5t42 -37.5t56.5 -20.5t59 -6.5q50 0 86.5 18t62.5 48.5t42.5 69.5t26 82t13.5 86.5t6 81.5q3 69 19 131t47.5 108.5
t79 73.5t113.5 27q28 0 54.5 -5.5t46.5 -18.5t32.5 -32.5t12.5 -48.5q0 -24 -9.5 -40.5t-25 -26t-36 -14t-42.5 -4.5q14 23 21.5 45t7.5 50q0 38 -20.5 60.5t-53.5 22.5q-39 0 -64.5 -19t-42.5 -51.5t-26 -76t-15 -92t-10 -99.5t-10 -100q-5 -43 -23 -93t-55 -93.5
t-96.5 -72.5t-147.5 -29q-43 0 -85 11.5t-74.5 35.5t-52.5 60t-20 84zM663 747q-10 40 -24 69t-27 49t-22 32t-9 16q0 8 9 8q5 0 18.5 -13t29 -30.5t29 -33.5t17.5 -22q14 11 36 27t44.5 31.5t42 26.5t28.5 11q4 0 4 -7q0 -4 -13.5 -14.5t-36 -29.5t-51 -48.5t-57.5 -71.5
h-18z" />
    <glyph glyph-name="Yacute" unicode="&#xdd;" horiz-adv-x="778" 
d="M993 696l-461 -728q-39 -57 -85 -107.5t-100 -88.5t-115.5 -60t-129.5 -22q-39 0 -74.5 7t-62 23.5t-42.5 43t-16 65.5q0 22 9 42.5t25 36.5t36 25.5t43 9.5q32 0 59 -8t55 -22l-1 -8q-14 5 -28.5 9.5t-29.5 4.5q-21 0 -36.5 -9t-26 -23t-16 -32.5t-5.5 -37.5
q0 -21 6 -41.5t19.5 -37t35.5 -26.5t53 -10q50 0 95.5 22.5t88.5 62t83.5 92.5t80.5 115l138 212l-2 2q-29 -36 -67 -74.5t-81.5 -70.5t-91.5 -52.5t-98 -20.5q-32 0 -50.5 17.5t-18.5 49.5q0 34 23.5 82.5t58 104.5t75.5 115t75.5 114t58 101.5t23.5 76.5q0 59 -53 59
q-51 0 -101.5 -22t-91.5 -58.5t-66.5 -84t-25.5 -98.5q0 -13 3.5 -26.5t10 -24t17 -17.5t24.5 -7q20 0 37 6.5t31.5 17t27.5 23.5t26 27l7 -5q-14 -16 -30 -31.5t-34.5 -28t-39 -20t-44.5 -7.5q-40 0 -67 21t-27 65q0 52 31.5 102.5t83 90.5t117 64.5t134.5 24.5q20 0 40 -4
t36.5 -13.5t27 -25t10.5 -39.5q0 -35 -23.5 -84.5t-58 -105.5t-75.5 -115t-75.5 -112t-58 -97.5t-23.5 -71.5q0 -40 40 -40q30 0 68.5 20.5t77.5 51t74.5 67t59.5 68.5t53 75.5t59 90.5t59 94.5t54 88.5t43.5 73t27.5 48zM850 889q0 -23 -19 -48.5t-44.5 -47.5t-49.5 -36
t-35 -14q-6 0 -6 7q0 5 11.5 14.5t26.5 24t29.5 32.5t19.5 40q2 8 5 18.5t7 19.5t10 15.5t13 6.5q15 0 23.5 -9t8.5 -23z" />
    <glyph glyph-name="Zcaron" unicode="&#x17d;" horiz-adv-x="704" 
d="M431 505q-22 -35 -56.5 -61t-85.5 -26q-46 0 -74.5 28.5t-28.5 77.5q0 38 18.5 71.5t47 58t63 38.5t67.5 14q45 0 87 -12t82 -26q39 -14 76 -26t72 -12q44 0 69 14.5t40.5 31.5t25.5 31.5t25 14.5q7 0 13 -4.5t6 -13.5q0 -10 -11.5 -19t-28.5 -19.5t-38 -23t-41 -30.5
q-154 -139 -312 -273.5t-323 -264.5l2 -2q36 16 72.5 31t77.5 15q34 0 68 -11t67 -24q34 -13 65 -25t60 -12q32 0 56.5 8t45 22t39 32.5l39.5 39.5q28 28 50 57t46 58l5 -4q-29 -39 -69 -86.5t-87 -89.5t-98.5 -70.5t-104.5 -28.5q-41 0 -76 14.5t-67 31.5t-62 31.5
t-61 14.5q-25 0 -43.5 -5.5t-33 -15t-28 -24t-28.5 -32.5q-7 -6 -12.5 -10.5t-13.5 -4.5q-5 0 -9.5 2.5t-4.5 8.5q0 11 9 19.5t24 18t34 21.5t38 30q74 69 155 140t162.5 140t161.5 135t153 125l-2 2q-41 -23 -82 -38.5t-89 -15.5q-35 0 -67.5 12.5t-64.5 26.5t-64 25.5
t-67 11.5q-28 0 -50.5 -11t-38.5 -28.5t-24.5 -40t-8.5 -45.5q0 -17 6.5 -33.5t18.5 -30t29.5 -21.5t39.5 -8q49 0 78.5 23t53.5 56zM613 747q-10 40 -24 69t-27 49t-22 32t-9 16q0 8 9 8q5 0 18.5 -13t29 -30.5t29 -33.5t17.5 -22q14 11 36 27t44.5 31.5t42 26.5t28.5 11
q4 0 4 -7q0 -4 -13.5 -14.5t-36 -29.5t-51 -48.5t-57.5 -71.5h-18z" />
    <glyph glyph-name="scaron" unicode="&#x161;" horiz-adv-x="370" 
d="M163 3q51 11 94.5 37.5t81.5 62t71.5 77t65.5 83.5l8 -6q-40 -52 -80 -101.5t-87.5 -87.5t-104 -61t-129.5 -23q-26 0 -51.5 5.5t-46 18t-33 33t-12.5 50.5q0 16 4.5 32t13.5 29t22.5 21.5t31.5 8.5q23 0 35.5 -13t12.5 -30q0 -21 -12 -32t-28 -11q-13 0 -22 5
q-5 -9 -8.5 -19.5t-3.5 -21.5q0 -28 21.5 -46t50.5 -18q18 0 36.5 6t33 17.5t23.5 27.5t9 35q0 26 -12.5 47.5t-27.5 41.5t-27.5 40.5t-12.5 43.5q0 28 13 49t34 35.5t47 21.5t53 7q48 0 80.5 -20.5t32.5 -58.5q0 -29 -19 -47.5t-48 -18.5q-9 0 -16.5 1.5t-12.5 3.5
q11 20 15.5 39.5t4.5 38.5q0 20 -11.5 35t-34.5 15q-28 0 -43 -17.5t-15 -43.5q0 -28 12.5 -49.5t27.5 -41.5t27.5 -42t12.5 -52q0 -19 -6.5 -37t-17.5 -32t-24.5 -23.5t-28.5 -12.5v-2zM255 416q-10 40 -24 69t-27 49t-22 32t-9 16q0 8 9 8q5 0 18.5 -13t29 -30.5t29 -33.5
t17.5 -22q14 11 36 27t44.5 31.5t42 26.5t28.5 11q4 0 4 -7q0 -4 -13.5 -14.5t-36 -29.5t-51 -48.5t-57.5 -71.5h-18z" />
    <glyph glyph-name="yacute" unicode="&#xfd;" 
d="M-182 -79q-5 1 -18 1q-43 0 -66.5 -31t-23.5 -76q0 -53 32.5 -83t80.5 -30q51 0 96 21.5t84 57t73.5 81t64 93.5t55.5 94t48 83l-2 2q-15 -18 -37.5 -42.5t-50.5 -47t-59 -38.5t-63 -16q-33 0 -47.5 19t-14.5 45q0 25 14 57t35.5 70.5t48.5 81.5t54 89l106 4
q-84 -131 -131 -207t-47 -108q0 -12 7.5 -19.5t18.5 -7.5q18 0 46 18.5t59.5 49.5t63.5 71.5t58 83.5q22 36 39 66t25 49l98 4q-54 -93 -104.5 -185.5t-105.5 -183.5q48 14 95 43.5t90.5 68.5t81 83t67.5 86l8 -7q-34 -49 -75 -95.5t-86.5 -85t-93.5 -66.5t-96 -40
q-36 -61 -81 -113t-99 -90t-117 -59.5t-135 -21.5q-36 0 -70 6.5t-60 22t-42 41t-16 62.5q0 30 12.5 51t33 34.5t47 20t54.5 6.5q12 0 24.5 -1t20.5 -3v-9zM446 558q0 -23 -19 -48.5t-44.5 -47.5t-49.5 -36t-35 -14q-6 0 -6 7q0 5 11.5 14.5t26.5 24t29.5 32.5t19.5 40
q2 8 5 18.5t7 19.5t10 15.5t13 6.5q15 0 23.5 -9t8.5 -23z" />
    <glyph glyph-name="zcaron" unicode="&#x17e;" 
d="M134 90q5 2 10 2h14q23 0 44.5 -8t42 -17t40 -17t37.5 -8q35 0 72 24.5t72 59.5t65.5 72.5t53.5 64.5l8 -6q-19 -24 -43 -53.5t-52 -59.5t-59 -59t-63.5 -51.5t-65 -36t-64.5 -13.5q-21 0 -43 9t-43.5 20t-42.5 20t-40 9q-15 0 -27.5 -8t-24 -18t-20.5 -18t-16 -8
q-5 0 -8.5 3.5t-3.5 8.5q0 11 21 21t59 32q22 12 56.5 37t76.5 56t89.5 64.5t95.5 61.5l-2 2q-11 -4 -23 -5t-23 -1q-22 0 -41.5 4.5t-38 10.5t-36 10.5t-34.5 4.5q-19 0 -34.5 -12t-31.5 -34l-9 6q13 18 29 37.5t35 35t41.5 25.5t48.5 10q23 0 44 -6t42 -13.5t41.5 -14
t41.5 -6.5t31 7t16 16t11 16t15 7q6 0 10 -4.5t4 -9.5q0 -6 -6 -12t-15 -12t-20 -12t-21 -13q-79 -57 -156.5 -113t-161.5 -106zM333 416q-10 40 -24 69t-27 49t-22 32t-9 16q0 8 9 8q5 0 18.5 -13t29 -30.5t29 -33.5t17.5 -22q14 11 36 27t44.5 31.5t42 26.5t28.5 11
q4 0 4 -7q0 -4 -13.5 -14.5t-36 -29.5t-51 -48.5t-57.5 -71.5h-18z" />
    <glyph glyph-name="commaturnedmod" unicode="&#x2bb;" horiz-adv-x="222" 
d="M354 598q-30 -5 -60 -14t-55 -24.5t-42.5 -39t-23.5 -58.5q5 1 11 2.5t12 1.5q18 0 29 -11.5t11 -29.5q0 -22 -12.5 -36.5t-36.5 -14.5q-29 0 -45 19t-16 47q0 39 23.5 69t58 50.5t74 32.5t72.5 16v-10z" />
    <glyph glyph-name="apostrophemod" unicode="&#x2bc;" horiz-adv-x="222" 
d="M112 386q30 5 60 14t55 24.5t42.5 39.5t23.5 58q-5 -1 -11 -2.5t-12 -1.5q-18 0 -29 11.5t-11 29.5q0 22 12.5 36.5t36.5 14.5q29 0 45 -19t16 -47q0 -39 -23.5 -69t-58 -50.5t-74 -32.5t-72.5 -16v10z" />
    <glyph glyph-name="zerowidthspace" unicode="&#x200b;" horiz-adv-x="0" 
 />
    <glyph glyph-name="zerowidthnonjoiner" unicode="&#x200c;" horiz-adv-x="0" 
 />
    <glyph glyph-name="zerowidthjoiner" unicode="&#x200d;" horiz-adv-x="0" 
 />
    <glyph glyph-name="secondtonechinese" unicode="&#x2ca;" horiz-adv-x="259" 
d="M335 558q0 -23 -19 -48.5t-44.5 -47.5t-49.5 -36t-35 -14q-6 0 -6 7q0 5 11.5 14.5t26.5 24t29.5 32.5t19.5 40q2 8 5 18.5t7 19.5t10 15.5t13 6.5q15 0 23.5 -9t8.5 -23z" />
    <glyph glyph-name="fourthtonechinese" unicode="&#x2cb;" horiz-adv-x="259" 
d="M79 558q0 14 8.5 23t23.5 9q8 0 13.5 -6.5t9.5 -15.5t7 -19.5t5 -18.5q5 -22 19.5 -40t29.5 -32.5t26.5 -24t11.5 -14.5q0 -7 -6 -7q-10 0 -34.5 14t-50 36t-44.5 47.5t-19 48.5z" />
    <glyph glyph-name="firsttonechinese" unicode="&#x2c9;" horiz-adv-x="259" 
d="M362 479h-266v46h266v-46z" />
    <glyph glyph-name="macronlowmod" unicode="&#x2cd;" horiz-adv-x="259" 
d="M362 -71h-266v46h266v-46z" />
    <glyph glyph-name="gravelowmod" unicode="&#x2ce;" horiz-adv-x="259" 
d="M79 8q0 14 8.5 23t23.5 9q8 0 13.5 -6.5t9.5 -15.5t7 -19.5t5 -18.5q5 -22 19.5 -40t29.5 -32.5t26.5 -24t11.5 -14.5q0 -7 -6 -7q-10 0 -34.5 14t-50 36t-44.5 47.5t-19 48.5z" />
    <glyph glyph-name="acutelowmod" unicode="&#x2cf;" horiz-adv-x="259" 
d="M335 8q0 -23 -19 -48.5t-44.5 -47.5t-49.5 -36t-35 -14q-6 0 -6 7q0 5 11.5 14.5t26.5 24t29.5 32.5t19.5 40q2 8 5 18.5t7 19.5t10 15.5t13 6.5q15 0 23.5 -9t8.5 -23z" />
    <glyph glyph-name="gravecmb" unicode="&#x300;" horiz-adv-x="0" 
d="M-317 558q0 14 8.5 23t23.5 9q8 0 13.5 -6.5t9.5 -15.5t7 -19.5t5 -18.5q5 -22 19.5 -40t29.5 -32.5t26.5 -24t11.5 -14.5q0 -7 -6 -7q-10 0 -34.5 14t-50 36t-44.5 47.5t-19 48.5z" />
    <glyph glyph-name="acutecmb" unicode="&#x301;" horiz-adv-x="0" 
d="M-163 558q0 -23 -19 -48.5t-44.5 -47.5t-49.5 -36t-35 -14q-6 0 -6 7q0 5 11.5 14.5t26.5 24t29.5 32.5t19.5 40q2 8 5 18.5t7 19.5t10 15.5t13 6.5q15 0 23.5 -9t8.5 -23z" />
    <glyph glyph-name="circumflexcmb" unicode="&#x302;" horiz-adv-x="0" 
d="M-193 590q10 -40 24 -69t27 -49t22 -31.5t9 -16.5q0 -8 -9 -8q-5 0 -18.5 13t-29 30.5t-29 33.5t-17.5 22q-13 -10 -35.5 -26.5t-45 -32t-42 -26.5t-28.5 -11q-4 0 -4 7q0 5 13.5 15t36 29t51 48.5t57.5 71.5h18z" />
    <glyph glyph-name="tildecmb" unicode="&#x303;" horiz-adv-x="0" 
d="M-391 454q2 16 8 33t16.5 31t25 23t32.5 9q23 0 41.5 -6t35.5 -13t32.5 -13t30.5 -6q26 0 40 12.5t23 35.5h17q-3 -17 -10 -34t-18.5 -31t-26.5 -22.5t-34 -8.5q-20 0 -38 5.5t-35 13.5t-34 13.5t-34 5.5q-23 0 -36.5 -14t-21.5 -34h-14z" />
    <glyph glyph-name="macroncmb" unicode="&#x304;" horiz-adv-x="0" 
d="M-107 479h-266v46h266v-46z" />
    <glyph glyph-name="brevecmb" unicode="&#x306;" horiz-adv-x="0" 
d="M-281 436q-21 0 -38.5 9.5t-31 25.5t-21 35.5t-7.5 38.5q0 8 2.5 13t9.5 6q9 1 12.5 -11t10.5 -26.5t22 -26.5t47 -12q30 0 58 11.5t51 25t38.5 24.5t19.5 11q2 0 4.5 -2t2.5 -7q0 -7 -16.5 -25.5t-42.5 -38.5t-58 -35.5t-63 -15.5z" />
    <glyph glyph-name="dotaccentcmb" unicode="&#x307;" horiz-adv-x="0" 
d="M-240 560q19 0 32 -14.5t13 -33.5t-13 -33.5t-32 -14.5t-32 14.5t-13 33.5t13 33.5t32 14.5z" />
    <glyph glyph-name="dieresiscmb" unicode="&#x308;" horiz-adv-x="0" 
d="M-150 559q19 0 32 -14.5t13 -33.5t-13 -33.5t-32 -14.5t-32 14.5t-13 33.5t13 33.5t32 14.5zM-330 559q19 0 32 -14.5t13 -33.5t-13 -33.5t-32 -14.5t-32 14.5t-13 33.5t13 33.5t32 14.5z" />
    <glyph glyph-name="ringcmb" unicode="&#x30a;" horiz-adv-x="0" 
d="M-207 596q-19 0 -37 -14.5t-31.5 -34.5t-21.5 -42.5t-8 -39.5q0 -16 7 -27.5t25 -11.5q20 0 37.5 14.5t31 34.5t21.5 43t8 39t-7 27.5t-25 11.5zM-215 606q15 0 30 -4t27 -12.5t19.5 -21.5t7.5 -30q0 -26 -11.5 -48t-30 -38.5t-42.5 -26t-50 -9.5q-15 0 -30 4t-27 12.5
t-19.5 21.5t-7.5 30q0 26 11.5 48t30 38.5t43 26t49.5 9.5z" />
    <glyph glyph-name="hungarumlautcmb" unicode="&#x30b;" horiz-adv-x="0" 
d="M-94 558q0 -23 -19 -48.5t-44.5 -47.5t-49.5 -36t-35 -14q-6 0 -6 7q0 5 11.5 14.5t26.5 24t29.5 32.5t19.5 40q2 8 5 18.5t7 19.5t10 15.5t13 6.5q15 0 23.5 -9t8.5 -23zM-231 550q0 -23 -19 -48.5t-44.5 -47.5t-49.5 -36t-35 -14q-6 0 -6 7q0 5 11.5 14.5t26.5 24
t29.5 32.5t19.5 40q2 8 5 18.5t7 19.5t10 15.5t13 6.5q15 0 23.5 -9t8.5 -23z" />
    <glyph glyph-name="caroncmb" unicode="&#x30c;" horiz-adv-x="0" 
d="M-287 416q-10 40 -24 69t-27 49t-22 32t-9 16q0 8 9 8q5 0 18.5 -13t29 -30.5t29 -33.5t17.5 -22q14 11 36 27t44.5 31.5t42 26.5t28.5 11q4 0 4 -7q0 -4 -13.5 -14.5t-36 -29.5t-51 -48.5t-57.5 -71.5h-18z" />
    <glyph glyph-name="breveinvertedcmb" unicode="&#x311;" horiz-adv-x="0" 
d="M-199 565q21 0 38.5 -9.5t31 -25.5t21 -35.5t7.5 -38.5q0 -8 -2.5 -13t-9.5 -6q-9 -1 -12.5 11t-10.5 26.5t-22 26.5t-47 12q-30 0 -58 -11.5t-51 -25t-38.5 -24.5t-19.5 -11q-2 0 -4.5 2t-2.5 7q0 7 16.5 25.5t42.5 38.5t58 35.5t63 15.5z" />
    <glyph glyph-name="commaturnedabovecmb" unicode="&#x312;" horiz-adv-x="0" 
d="M-126 598q-30 -5 -60 -14t-55 -24.5t-42.5 -39t-23.5 -58.5q5 1 11 2.5t12 1.5q18 0 29 -11.5t11 -29.5q0 -22 -12.5 -36.5t-36.5 -14.5q-29 0 -45 19t-16 47q0 39 23.5 69t58 50.5t74 32.5t72.5 16v-10z" />
    <glyph glyph-name="commaabovecmb" unicode="&#x313;" horiz-adv-x="0" 
d="M-354 386q30 5 60 14t55 24.5t42.5 39.5t23.5 58q-5 -1 -11 -2.5t-12 -1.5q-18 0 -29 11.5t-11 29.5q0 22 12.5 36.5t36.5 14.5q29 0 45 -19t16 -47q0 -39 -23.5 -69t-58 -50.5t-74 -32.5t-72.5 -16v10z" />
    <glyph glyph-name="gravebelowcmb" unicode="&#x316;" horiz-adv-x="0" 
d="M-317 -2q0 14 8.5 23t23.5 9q8 0 13.5 -6.5t9.5 -15.5t7 -19.5t5 -18.5q5 -22 19.5 -40t29.5 -32.5t26.5 -24t11.5 -14.5q0 -7 -6 -7q-10 0 -34.5 14t-50 36t-44.5 47.5t-19 48.5z" />
    <glyph glyph-name="acutebelowcmb" unicode="&#x317;" horiz-adv-x="0" 
d="M-163 -2q0 -23 -19 -48.5t-44.5 -47.5t-49.5 -36t-35 -14q-6 0 -6 7q0 5 11.5 14.5t26.5 24t29.5 32.5t19.5 40q2 8 5 18.5t7 19.5t10 15.5t13 6.5q15 0 23.5 -9t8.5 -23z" />
    <glyph glyph-name="dotbelowcmb" unicode="&#x323;" horiz-adv-x="0" 
d="M-240 0q19 0 32 -14.5t13 -33.5t-13 -33.5t-32 -14.5t-32 14.5t-13 33.5t13 33.5t32 14.5z" />
    <glyph glyph-name="dieresisbelowcmb" unicode="&#x324;" horiz-adv-x="0" 
d="M-150 -1q19 0 32 -14.5t13 -33.5t-13 -33.5t-32 -14.5t-32 14.5t-13 33.5t13 33.5t32 14.5zM-330 -1q19 0 32 -14.5t13 -33.5t-13 -33.5t-32 -14.5t-32 14.5t-13 33.5t13 33.5t32 14.5z" />
    <glyph glyph-name="ringbelowcmb" unicode="&#x325;" horiz-adv-x="0" 
d="M-207 36q-19 0 -37 -14.5t-31.5 -34.5t-21.5 -42.5t-8 -39.5q0 -16 7 -27.5t25 -11.5q20 0 37.5 14.5t31 34.5t21.5 43t8 39t-7 27.5t-25 11.5zM-215 46q15 0 30 -4t27 -12.5t19.5 -21.5t7.5 -30q0 -26 -11.5 -48t-30 -38.5t-42.5 -26t-50 -9.5q-15 0 -30 4t-27 12.5
t-19.5 21.5t-7.5 30q0 26 11.5 48t30 38.5t43 26t49.5 9.5z" />
    <glyph glyph-name="commaaccent" unicode="&#x326;" horiz-adv-x="0" 
d="M-324 -192q21 0 43 6t40 17.5t30.5 28.5t17.5 40q-5 -3 -9 -4h-12q-13 0 -21 9.5t-8 21.5q0 18 12 27.5t27 9.5q21 0 34.5 -11.5t13.5 -32.5q0 -28 -16 -50t-41 -37t-54.5 -23.5t-56.5 -8.5v7z" />
    <glyph glyph-name="cedillacmb" unicode="&#x327;" horiz-adv-x="0" 
d="M-194 -5l-20 -30t-17 -32q7 2 18 2.5t18 0.5q29 0 49.5 -14t20.5 -47q0 -21 -9.5 -35t-25 -22.5t-35.5 -12t-42 -3.5q-13 0 -33 3t-39 8.5t-32.5 12.5t-13.5 15q0 6 3 7.5t7 1.5q3 0 12.5 -4t23 -8.5t30 -8t34.5 -3.5q12 0 25.5 1.5t24 7t17.5 15t7 24.5q0 23 -14.5 30.5
t-29.5 7.5q-14 0 -25 -2t-19 -2q-7 0 -7 7q0 4 6.5 15t14.5 24t15.5 24.5t10.5 16.5h25z" />
    <glyph glyph-name="ogonekcmb" unicode="&#x328;" horiz-adv-x="0" 
d="M-267 -104q0 -20 11.5 -33.5t35.5 -13.5q12 0 23.5 3.5t20.5 8.5q-2 -9 -5 -19t-5 -15q-3 -5 -17.5 -9.5t-38.5 -4.5t-42.5 17t-18.5 52q0 28 16.5 51.5t36.5 44.5q7 7 14.5 15.5t10.5 8.5q5 0 6 -3q-1 -3 -9 -14t-16 -25q-8 -12 -15.5 -28.5t-7.5 -35.5z" />
    <glyph glyph-name="caronbelowcmb" unicode="&#x32c;" horiz-adv-x="0" 
d="M-287 -144q-10 40 -24 69t-27 49t-22 32t-9 16q0 8 9 8q5 0 18.5 -13t29 -30.5t29 -33.5t17.5 -22q14 11 36 27t44.5 31.5t42 26.5t28.5 11q4 0 4 -7q0 -4 -13.5 -14.5t-36 -29.5t-51 -48.5t-57.5 -71.5h-18z" />
    <glyph glyph-name="circumflexbelowcmb" unicode="&#x32d;" horiz-adv-x="0" 
d="M-193 30q10 -40 24 -69t27 -49t22 -31.5t9 -16.5q0 -8 -9 -8q-5 0 -18.5 13t-29 30.5t-29 33.5t-17.5 22q-13 -10 -35.5 -26.5t-45 -32t-42 -26.5t-28.5 -11q-4 0 -4 7q0 5 13.5 15t36 29t51 48.5t57.5 71.5h18z" />
    <glyph glyph-name="brevebelowcmb" unicode="&#x32e;" horiz-adv-x="0" 
d="M-281 -124q-21 0 -38.5 9.5t-31 25.5t-21 35.5t-7.5 38.5q0 8 2.5 13t9.5 6q9 1 12.5 -11t10.5 -26.5t22 -26.5t47 -12q30 0 58 11.5t51 25t38.5 24.5t19.5 11q2 0 4.5 -2t2.5 -7q0 -7 -16.5 -25.5t-42.5 -38.5t-58 -35.5t-63 -15.5z" />
    <glyph glyph-name="breveinvertedbelowcmb" unicode="&#x32f;" horiz-adv-x="0" 
d="M-199 5q21 0 38.5 -9.5t31 -25.5t21 -35.5t7.5 -38.5q0 -8 -2.5 -13t-9.5 -6q-9 -1 -12.5 11t-10.5 26.5t-22 26.5t-47 12q-30 0 -58 -11.5t-51 -25t-38.5 -24.5t-19.5 -11q-2 0 -4.5 2t-2.5 7q0 7 16.5 25.5t42.5 38.5t58 35.5t63 15.5z" />
    <glyph glyph-name="tildebelowcmb" unicode="&#x330;" horiz-adv-x="0" 
d="M-391 -106q2 16 8 33t16.5 31t25 23t32.5 9q23 0 41.5 -6t35.5 -13t32.5 -13t30.5 -6q26 0 40 12.5t23 35.5h17q-3 -17 -10 -34t-18.5 -31t-26.5 -22.5t-34 -8.5q-20 0 -38 5.5t-35 13.5t-34 13.5t-34 5.5q-23 0 -36.5 -14t-21.5 -34h-14z" />
    <glyph glyph-name="macronbelowcmb" unicode="&#x331;" horiz-adv-x="0" 
d="M-107 -81h-266v46h266v-46z" />
    <glyph glyph-name="soliduslongoverlaycmb" unicode="&#x338;" horiz-adv-x="0" 
d="M-431 -16l331 738h51l-331 -738h-51z" />
    <glyph glyph-name="angstrom" unicode="&#x212b;" horiz-adv-x="870" 
d="M1037 729q-76 -86 -145.5 -175.5t-122 -176.5t-84 -167.5t-31.5 -149.5q0 -26 9 -37t24 -11q29 0 76 32t97 83q16 17 33.5 36.5t34 39t30 36.5t22.5 28l8 -5q-23 -30 -52.5 -67.5t-77.5 -85.5q-51 -51 -101.5 -85t-101.5 -34q-25 0 -41.5 8t-26 21.5t-13.5 30.5t-4 36
q0 61 20 117.5t47 107.5h-140q-41 -48 -91.5 -103t-108.5 -101.5t-122 -77.5t-133 -31q-30 0 -57.5 7t-49.5 21.5t-35 36.5t-13 53q0 29 16 53t48 24q20 0 34 -12.5t14 -30.5q0 -27 -16 -39t-42 -12q0 -21 10 -38t25 -28t34 -17t37 -6q45 0 88.5 15.5t85.5 41.5t81 60t75 70
t68 72.5t59 66.5q55 62 114.5 122.5t124.5 114t136.5 96t150.5 66.5zM643 323q56 99 127 188t155 167l-2 2q-118 -62 -217.5 -154t-197.5 -203h135zM1078 927q-19 0 -37 -14.5t-31.5 -34.5t-21.5 -42.5t-8 -39.5q0 -16 7 -27.5t25 -11.5q20 0 37.5 14.5t31 34.5t21.5 43
t8 39t-7 27.5t-25 11.5zM1070 937q15 0 30 -4t27 -12.5t19.5 -21.5t7.5 -30q0 -26 -11.5 -48t-30 -38.5t-42.5 -26t-50 -9.5q-15 0 -30 4t-27 12.5t-19.5 21.5t-7.5 30q0 26 11.5 48t30 38.5t43 26t49.5 9.5z" />
    <glyph glyph-name="combininggraphemejoiner" unicode="&#x34f;" horiz-adv-x="0" 
 />
    <glyph glyph-name="uni29F5" unicode="&#x29f5;" horiz-adv-x="167" 
d="M273 -12l-447 564h46l449 -564h-48z" />
    <glyph glyph-name="uni115F" unicode="&#x115f;" horiz-adv-x="0" 
 />
    <glyph glyph-name="uni1160" unicode="&#x1160;" horiz-adv-x="0" 
 />
    <glyph glyph-name="hangulfiller" unicode="&#x3164;" horiz-adv-x="0" 
 />
    <glyph glyph-name="clickdental" unicode="&#x1c0;" horiz-adv-x="222" 
d="M429 712h65l-462 -712h-65z" />
    <glyph glyph-name="clicklateral" unicode="&#x1c1;" horiz-adv-x="444" 
d="M429 712h65l-462 -712h-65zM651 712h65l-462 -712h-65z" />
    <glyph glyph-name="centigrade" unicode="&#x2103;" horiz-adv-x="1067" 
d="M267 661q-21 0 -39.5 -8.5t-32 -23t-21.5 -33.5t-8 -40t8 -40t21.5 -33.5t32 -23t39.5 -8.5t39.5 8.5t32 23t21.5 33.5t8 40t-8 40t-21.5 33.5t-32 23t-39.5 8.5zM124 554q0 30 11 56t30.5 45.5t45.5 30.5t56 11t56 -11t45.5 -30.5t30.5 -45.5t11 -56t-11 -56
t-30.5 -45.5t-45.5 -30.5t-56 -11t-56 11t-45.5 30.5t-30.5 45.5t-11 56zM942 578q-5 -9 -7.5 -22t-2.5 -24q0 -32 20 -50.5t51 -18.5q32 0 61.5 16t52 41.5t35.5 57t13 62.5q0 22 -9.5 35.5t-24 21t-30 10.5t-27.5 3q-52 0 -109 -23t-112.5 -62.5t-105.5 -92.5t-88 -114
t-60.5 -126t-22.5 -128q0 -37 8.5 -67.5t25.5 -53t42 -35t58 -12.5q43 0 84 19t73.5 51.5t52 75t19.5 88.5q0 41 -17 69t-61 28q-23 0 -44 -12t-40 -29.5t-34 -37t-26 -35.5l-10 5q17 26 37 49.5t43.5 42.5t51.5 30t62 11q52 0 85 -31.5t33 -82.5q0 -61 -30.5 -108t-79 -79
t-108 -49t-117.5 -17q-100 0 -155 57t-55 156q0 64 27 128t72.5 122.5t106 108.5t127.5 87t136 58t132 21q29 0 56 -6t48 -19.5t33.5 -36.5t12.5 -57q0 -37 -18 -66.5t-46.5 -49.5t-63.5 -31t-68 -11q-21 0 -40.5 5t-34.5 15.5t-24.5 27t-9.5 39.5q0 14 4 28t8 21z" />
    <glyph glyph-name="fahrenheit" unicode="&#x2109;" horiz-adv-x="1196" 
d="M262 666q-21 0 -39.5 -8.5t-32 -23t-21.5 -33.5t-8 -40t8 -40t21.5 -33.5t32 -23t39.5 -8.5t39.5 8.5t32 23t21.5 33.5t8 40t-8 40t-21.5 33.5t-32 23t-39.5 8.5zM119 559q0 30 11 56t30.5 45.5t45.5 30.5t56 11t56 -11t45.5 -30.5t30.5 -45.5t11 -56t-11 -56
t-30.5 -45.5t-45.5 -30.5t-56 -11t-56 11t-45.5 30.5t-30.5 45.5t-11 56zM892 326v12h50q29 57 63.5 105t77.5 85.5t95.5 63.5t117.5 39v2q-66 0 -130.5 2t-130.5 2q-47 0 -103 -3.5t-113 -12.5t-109.5 -24t-93.5 -38t-65.5 -54.5t-24.5 -74.5q0 -29 16 -50t40 -34.5
t52.5 -19.5t53.5 -6q52 0 96 13t75.5 38.5t49 62t17.5 84.5v17t-1 11h12q0 -8 0.5 -15t0.5 -14q0 -51 -20.5 -95.5t-55.5 -77t-80.5 -51.5t-96.5 -19q-31 0 -61.5 9.5t-55 27.5t-39.5 45t-15 61q0 57 27.5 94.5t68.5 65.5q61 42 129.5 67.5t140.5 39t145.5 18t142.5 4.5
q41 0 85 -2t84.5 -4.5t74 -4.5t54.5 -3q27 -1 38.5 -9t11.5 -28q0 -17 -19.5 -27t-62.5 -10q-31 0 -61.5 2.5t-62.5 2.5q-31 0 -59 -14.5t-54 -38.5t-48.5 -54.5t-42 -62t-35.5 -62t-28 -53.5q19 2 40.5 2.5t41 5.5t35.5 16t24 32q27 2 54.5 3t54.5 1q-33 -25 -66.5 -51.5
t-63.5 -56.5t-54.5 -64t-40.5 -73h-8q16 49 38 94.5t49 87.5q-10 -2 -24.5 -3.5t-30 -2.5t-30 -2t-24.5 -1q-40 -65 -82.5 -126t-95 -107.5t-118.5 -74.5t-153 -28q-30 0 -65.5 7.5t-66 23.5t-51 42t-20.5 63q0 28 17 49.5t44 21.5q22 0 37 -12.5t15 -35.5q0 -15 -9 -28.5
t-28 -15.5q2 -28 12.5 -48t28 -32t40.5 -17.5t48 -5.5q67 0 118 32.5t91.5 81t73 105.5t62.5 105h-44z" />
    <glyph glyph-name="kelvin" unicode="&#x212a;" horiz-adv-x="907" 
d="M445 536q5 -11 11 -26.5t6 -36.5q0 -36 -16 -66.5t-43 -52.5t-62 -34t-72 -12q-28 0 -52 9t-42 25.5t-28 40t-10 52.5q0 61 39 105.5t101 75.5t139.5 50.5t154.5 30.5t146.5 15t114.5 4q56 0 95.5 3t55.5 3q8 0 18 -2t10 -9q0 -10 -10 -13.5t-19 -3.5q-24 0 -46.5 2
t-39.5 4q-16 -3 -47 -17.5t-56 -35.5q-51 -44 -87.5 -89.5t-66.5 -95t-59 -104t-65 -115.5q-28 -47 -64.5 -92.5t-84 -81t-107.5 -57.5t-135 -22q-30 0 -61.5 6t-58 21t-43.5 39.5t-17 60.5q0 27 15 49.5t45 22.5q21 0 36 -14.5t15 -35.5q0 -19 -11 -29t-28 -13
q1 -53 27 -74t75 -21q50 0 92.5 20t78 53.5t66 75.5t56 86t47.5 86t42 74q38 62 73 108t77.5 81.5t96 63t127.5 52.5v2q-48 0 -115 -3.5t-139.5 -13.5t-144 -28.5t-128 -49t-91.5 -75t-35 -105.5q0 -42 23.5 -69.5t65.5 -27.5q28 0 53 12.5t44.5 33t31 46t11.5 51.5
q0 15 -4 29t-11 28zM1026 261q-14 -20 -36 -48.5t-48.5 -59.5t-57 -62t-62.5 -55t-64.5 -38.5t-62.5 -13.5q-35 0 -57 22.5t-22 56.5q0 32 13.5 63.5t30.5 63.5q16 31 29.5 59.5t13.5 51.5q0 32 -15.5 45.5t-44.5 13.5q-5 0 -11 -1t-12 -1q-3 0 -7.5 0.5t-4.5 5.5t6.5 7
t11.5 2q11 0 21.5 -1.5t21.5 -1.5q50 0 91.5 25.5t80.5 63.5t78.5 82t84.5 82t99.5 63.5t122.5 25.5q20 0 38.5 -4t32.5 -13t23 -23t9 -33q0 -22 -8 -37t-21.5 -24t-31.5 -12t-37 -3q8 21 15 42.5t7 44.5q0 24 -10.5 37t-35.5 13q-29 0 -57 -25t-59.5 -62.5t-70 -81.5
t-88.5 -81.5t-113.5 -62.5t-145.5 -25v-2q45 -18 66.5 -47t21.5 -75q0 -25 -9.5 -54t-21 -56.5t-21 -52t-9.5 -41.5q0 -32 25 -32q11 0 31 9t47.5 28.5t61.5 50.5t73 76q27 32 45.5 56t35.5 46z" />
    <glyph glyph-name="Oneroman" unicode="&#x2160;" horiz-adv-x="611" 
d="M437 521q6 -12 11 -27t5 -32q0 -39 -16 -70t-42.5 -52.5t-61.5 -32.5t-73 -11q-29 0 -54 9t-43.5 26t-29 41t-10.5 54q0 61 35 106t93 77t132 52t152 31.5t153.5 15.5t135.5 4q68 0 107.5 5t60.5 5q11 0 20.5 -4t9.5 -12q0 -9 -10.5 -12.5t-22.5 -3.5q-3 0 -12.5 0.5
t-22.5 1.5l-26 2t-22 2q-63 -26 -108 -62.5t-80 -80t-62.5 -91.5t-54.5 -98t-56.5 -100t-68.5 -97q-65 -78 -147.5 -127.5t-183.5 -49.5q-29 0 -63.5 6t-64.5 20.5t-50 39t-20 61.5q0 28 16 50t46 22q23 0 37 -13.5t14 -35.5q0 -20 -9 -30.5t-32 -15.5q0 -48 29 -70t79 -22
q69 0 122.5 33.5t97.5 88t83.5 123.5t79.5 140q30 53 61.5 97t73.5 82t100.5 70.5t142.5 61.5v2q-45 0 -113 -2.5t-143.5 -11.5t-151.5 -26.5t-136.5 -48.5t-98.5 -78t-38 -115q0 -45 25.5 -71.5t69.5 -26.5q26 0 51 10.5t44.5 29.5t31.5 45t12 57q0 15 -4 29.5t-10 27.5z
" />
    <glyph glyph-name="Tworoman" unicode="&#x2161;" horiz-adv-x="1222" 
d="M437 521q6 -12 11 -27t5 -32q0 -39 -16 -70t-42.5 -52.5t-61.5 -32.5t-73 -11q-29 0 -54 9t-43.5 26t-29 41t-10.5 54q0 61 35 106t93 77t132 52t152 31.5t153.5 15.5t135.5 4q68 0 107.5 5t60.5 5q11 0 20.5 -4t9.5 -12q0 -9 -10.5 -12.5t-22.5 -3.5q-3 0 -12.5 0.5
t-22.5 1.5l-26 2t-22 2q-63 -26 -108 -62.5t-80 -80t-62.5 -91.5t-54.5 -98t-56.5 -100t-68.5 -97q-65 -78 -147.5 -127.5t-183.5 -49.5q-29 0 -63.5 6t-64.5 20.5t-50 39t-20 61.5q0 28 16 50t46 22q23 0 37 -13.5t14 -35.5q0 -20 -9 -30.5t-32 -15.5q0 -48 29 -70t79 -22
q69 0 122.5 33.5t97.5 88t83.5 123.5t79.5 140q30 53 61.5 97t73.5 82t100.5 70.5t142.5 61.5v2q-45 0 -113 -2.5t-143.5 -11.5t-151.5 -26.5t-136.5 -48.5t-98.5 -78t-38 -115q0 -45 25.5 -71.5t69.5 -26.5q26 0 51 10.5t44.5 29.5t31.5 45t12 57q0 15 -4 29.5t-10 27.5z
M1048 521q6 -12 11 -27t5 -32q0 -39 -16 -70t-42.5 -52.5t-61.5 -32.5t-73 -11q-29 0 -54 9t-43.5 26t-29 41t-10.5 54q0 61 35 106t93 77t132 52t152 31.5t153.5 15.5t135.5 4q68 0 107.5 5t60.5 5q11 0 20.5 -4t9.5 -12q0 -9 -10.5 -12.5t-22.5 -3.5q-3 0 -12.5 0.5
t-22.5 1.5l-26 2t-22 2q-63 -26 -108 -62.5t-80 -80t-62.5 -91.5t-54.5 -98t-56.5 -100t-68.5 -97q-65 -78 -147.5 -127.5t-183.5 -49.5q-29 0 -63.5 6t-64.5 20.5t-50 39t-20 61.5q0 28 16 50t46 22q23 0 37 -13.5t14 -35.5q0 -20 -9 -30.5t-32 -15.5q0 -48 29 -70t79 -22
q69 0 122.5 33.5t97.5 88t83.5 123.5t79.5 140q30 53 61.5 97t73.5 82t100.5 70.5t142.5 61.5v2q-45 0 -113 -2.5t-143.5 -11.5t-151.5 -26.5t-136.5 -48.5t-98.5 -78t-38 -115q0 -45 25.5 -71.5t69.5 -26.5q26 0 51 10.5t44.5 29.5t31.5 45t12 57q0 15 -4 29.5t-10 27.5z
" />
    <glyph glyph-name="Threeroman" unicode="&#x2162;" horiz-adv-x="1833" 
d="M437 521q6 -12 11 -27t5 -32q0 -39 -16 -70t-42.5 -52.5t-61.5 -32.5t-73 -11q-29 0 -54 9t-43.5 26t-29 41t-10.5 54q0 61 35 106t93 77t132 52t152 31.5t153.5 15.5t135.5 4q68 0 107.5 5t60.5 5q11 0 20.5 -4t9.5 -12q0 -9 -10.5 -12.5t-22.5 -3.5q-3 0 -12.5 0.5
t-22.5 1.5l-26 2t-22 2q-63 -26 -108 -62.5t-80 -80t-62.5 -91.5t-54.5 -98t-56.5 -100t-68.5 -97q-65 -78 -147.5 -127.5t-183.5 -49.5q-29 0 -63.5 6t-64.5 20.5t-50 39t-20 61.5q0 28 16 50t46 22q23 0 37 -13.5t14 -35.5q0 -20 -9 -30.5t-32 -15.5q0 -48 29 -70t79 -22
q69 0 122.5 33.5t97.5 88t83.5 123.5t79.5 140q30 53 61.5 97t73.5 82t100.5 70.5t142.5 61.5v2q-45 0 -113 -2.5t-143.5 -11.5t-151.5 -26.5t-136.5 -48.5t-98.5 -78t-38 -115q0 -45 25.5 -71.5t69.5 -26.5q26 0 51 10.5t44.5 29.5t31.5 45t12 57q0 15 -4 29.5t-10 27.5z
M1048 521q6 -12 11 -27t5 -32q0 -39 -16 -70t-42.5 -52.5t-61.5 -32.5t-73 -11q-29 0 -54 9t-43.5 26t-29 41t-10.5 54q0 61 35 106t93 77t132 52t152 31.5t153.5 15.5t135.5 4q68 0 107.5 5t60.5 5q11 0 20.5 -4t9.5 -12q0 -9 -10.5 -12.5t-22.5 -3.5q-3 0 -12.5 0.5
t-22.5 1.5l-26 2t-22 2q-63 -26 -108 -62.5t-80 -80t-62.5 -91.5t-54.5 -98t-56.5 -100t-68.5 -97q-65 -78 -147.5 -127.5t-183.5 -49.5q-29 0 -63.5 6t-64.5 20.5t-50 39t-20 61.5q0 28 16 50t46 22q23 0 37 -13.5t14 -35.5q0 -20 -9 -30.5t-32 -15.5q0 -48 29 -70t79 -22
q69 0 122.5 33.5t97.5 88t83.5 123.5t79.5 140q30 53 61.5 97t73.5 82t100.5 70.5t142.5 61.5v2q-45 0 -113 -2.5t-143.5 -11.5t-151.5 -26.5t-136.5 -48.5t-98.5 -78t-38 -115q0 -45 25.5 -71.5t69.5 -26.5q26 0 51 10.5t44.5 29.5t31.5 45t12 57q0 15 -4 29.5t-10 27.5z
M1659 521q6 -12 11 -27t5 -32q0 -39 -16 -70t-42.5 -52.5t-61.5 -32.5t-73 -11q-29 0 -54 9t-43.5 26t-29 41t-10.5 54q0 61 35 106t93 77t132 52t152 31.5t153.5 15.5t135.5 4q68 0 107.5 5t60.5 5q11 0 20.5 -4t9.5 -12q0 -9 -10.5 -12.5t-22.5 -3.5q-3 0 -12.5 0.5
t-22.5 1.5l-26 2t-22 2q-63 -26 -108 -62.5t-80 -80t-62.5 -91.5t-54.5 -98t-56.5 -100t-68.5 -97q-65 -78 -147.5 -127.5t-183.5 -49.5q-29 0 -63.5 6t-64.5 20.5t-50 39t-20 61.5q0 28 16 50t46 22q23 0 37 -13.5t14 -35.5q0 -20 -9 -30.5t-32 -15.5q0 -48 29 -70t79 -22
q69 0 122.5 33.5t97.5 88t83.5 123.5t79.5 140q30 53 61.5 97t73.5 82t100.5 70.5t142.5 61.5v2q-45 0 -113 -2.5t-143.5 -11.5t-151.5 -26.5t-136.5 -48.5t-98.5 -78t-38 -115q0 -45 25.5 -71.5t69.5 -26.5q26 0 51 10.5t44.5 29.5t31.5 45t12 57q0 15 -4 29.5t-10 27.5z
" />
    <glyph glyph-name="Fourroman" unicode="&#x2163;" horiz-adv-x="1370" 
d="M437 521q6 -12 11 -27t5 -32q0 -39 -16 -70t-42.5 -52.5t-61.5 -32.5t-73 -11q-29 0 -54 9t-43.5 26t-29 41t-10.5 54q0 61 35 106t93 77t132 52t152 31.5t153.5 15.5t135.5 4q68 0 107.5 5t60.5 5q11 0 20.5 -4t9.5 -12q0 -9 -10.5 -12.5t-22.5 -3.5q-3 0 -12.5 0.5
t-22.5 1.5l-26 2t-22 2q-63 -26 -108 -62.5t-80 -80t-62.5 -91.5t-54.5 -98t-56.5 -100t-68.5 -97q-65 -78 -147.5 -127.5t-183.5 -49.5q-29 0 -63.5 6t-64.5 20.5t-50 39t-20 61.5q0 28 16 50t46 22q23 0 37 -13.5t14 -35.5q0 -20 -9 -30.5t-32 -15.5q0 -48 29 -70t79 -22
q69 0 122.5 33.5t97.5 88t83.5 123.5t79.5 140q30 53 61.5 97t73.5 82t100.5 70.5t142.5 61.5v2q-45 0 -113 -2.5t-143.5 -11.5t-151.5 -26.5t-136.5 -48.5t-98.5 -78t-38 -115q0 -45 25.5 -71.5t69.5 -26.5q26 0 51 10.5t44.5 29.5t31.5 45t12 57q0 15 -4 29.5t-10 27.5z
M1277 698q-44 -26 -73 -70.5t-50.5 -100t-39.5 -119.5t-39 -129.5t-49 -129t-69 -118.5l2 -2q50 30 107.5 67.5t115 81t111.5 92.5t97.5 103.5t72.5 114t36 122.5q-17 8 -23.5 19t-6.5 29q0 21 17 34.5t37 13.5q15 0 26 -6.5t18 -17t10.5 -24t3.5 -26.5q0 -50 -23 -100.5
t-63 -100.5t-92 -98t-110.5 -93t-119 -85.5t-116 -75t-103.5 -62.5t-81 -47l-9 7q36 55 59 116t41.5 124.5t36.5 126.5t43.5 122t62.5 111.5t93 93.5v3q-24 -10 -63 -21t-84.5 -25t-91.5 -32.5t-83 -43t-60.5 -56t-23.5 -72.5q0 -32 15.5 -54.5t51.5 -22.5q25 0 43 12t30 31
t17.5 42.5t5.5 47.5h12q0 -30 -7 -57.5t-22.5 -48t-39.5 -33t-57 -12.5q-46 0 -76.5 24.5t-30.5 73.5q0 45 25 77t67.5 56.5t97.5 42.5t114.5 34.5t119.5 32.5t112 36z" />
    <glyph glyph-name="Fiveroman" unicode="&#x2164;" horiz-adv-x="759" 
d="M666 698q-44 -26 -73 -70.5t-50.5 -100t-39.5 -119.5t-39 -129.5t-49 -129t-69 -118.5l2 -2q50 30 107.5 67.5t115 81t111.5 92.5t97.5 103.5t72.5 114t36 122.5q-17 8 -23.5 19t-6.5 29q0 21 17 34.5t37 13.5q15 0 26 -6.5t18 -17t10.5 -24t3.5 -26.5q0 -50 -23 -100.5
t-63 -100.5t-92 -98t-110.5 -93t-119 -85.5t-116 -75t-103.5 -62.5t-81 -47l-9 7q36 55 59 116t41.5 124.5t36.5 126.5t43.5 122t62.5 111.5t93 93.5v3q-24 -10 -63 -21t-84.5 -25t-91.5 -32.5t-83 -43t-60.5 -56t-23.5 -72.5q0 -32 15.5 -54.5t51.5 -22.5q25 0 43 12t30 31
t17.5 42.5t5.5 47.5h12q0 -30 -7 -57.5t-22.5 -48t-39.5 -33t-57 -12.5q-46 0 -76.5 24.5t-30.5 73.5q0 45 25 77t67.5 56.5t97.5 42.5t114.5 34.5t119.5 32.5t112 36z" />
    <glyph glyph-name="Sixroman" unicode="&#x2165;" horiz-adv-x="1370" 
d="M666 698q-44 -26 -73 -70.5t-50.5 -100t-39.5 -119.5t-39 -129.5t-49 -129t-69 -118.5l2 -2q50 30 107.5 67.5t115 81t111.5 92.5t97.5 103.5t72.5 114t36 122.5q-17 8 -23.5 19t-6.5 29q0 21 17 34.5t37 13.5q15 0 26 -6.5t18 -17t10.5 -24t3.5 -26.5q0 -50 -23 -100.5
t-63 -100.5t-92 -98t-110.5 -93t-119 -85.5t-116 -75t-103.5 -62.5t-81 -47l-9 7q36 55 59 116t41.5 124.5t36.5 126.5t43.5 122t62.5 111.5t93 93.5v3q-24 -10 -63 -21t-84.5 -25t-91.5 -32.5t-83 -43t-60.5 -56t-23.5 -72.5q0 -32 15.5 -54.5t51.5 -22.5q25 0 43 12t30 31
t17.5 42.5t5.5 47.5h12q0 -30 -7 -57.5t-22.5 -48t-39.5 -33t-57 -12.5q-46 0 -76.5 24.5t-30.5 73.5q0 45 25 77t67.5 56.5t97.5 42.5t114.5 34.5t119.5 32.5t112 36zM1196 521q6 -12 11 -27t5 -32q0 -39 -16 -70t-42.5 -52.5t-61.5 -32.5t-73 -11q-29 0 -54 9t-43.5 26
t-29 41t-10.5 54q0 61 35 106t93 77t132 52t152 31.5t153.5 15.5t135.5 4q68 0 107.5 5t60.5 5q11 0 20.5 -4t9.5 -12q0 -9 -10.5 -12.5t-22.5 -3.5q-3 0 -12.5 0.5t-22.5 1.5l-26 2t-22 2q-63 -26 -108 -62.5t-80 -80t-62.5 -91.5t-54.5 -98t-56.5 -100t-68.5 -97
q-65 -78 -147.5 -127.5t-183.5 -49.5q-29 0 -63.5 6t-64.5 20.5t-50 39t-20 61.5q0 28 16 50t46 22q23 0 37 -13.5t14 -35.5q0 -20 -9 -30.5t-32 -15.5q0 -48 29 -70t79 -22q69 0 122.5 33.5t97.5 88t83.5 123.5t79.5 140q30 53 61.5 97t73.5 82t100.5 70.5t142.5 61.5v2
q-45 0 -113 -2.5t-143.5 -11.5t-151.5 -26.5t-136.5 -48.5t-98.5 -78t-38 -115q0 -45 25.5 -71.5t69.5 -26.5q26 0 51 10.5t44.5 29.5t31.5 45t12 57q0 15 -4 29.5t-10 27.5z" />
    <glyph glyph-name="Sevenroman" unicode="&#x2166;" horiz-adv-x="1981" 
d="M666 698q-44 -26 -73 -70.5t-50.5 -100t-39.5 -119.5t-39 -129.5t-49 -129t-69 -118.5l2 -2q50 30 107.5 67.5t115 81t111.5 92.5t97.5 103.5t72.5 114t36 122.5q-17 8 -23.5 19t-6.5 29q0 21 17 34.5t37 13.5q15 0 26 -6.5t18 -17t10.5 -24t3.5 -26.5q0 -50 -23 -100.5
t-63 -100.5t-92 -98t-110.5 -93t-119 -85.5t-116 -75t-103.5 -62.5t-81 -47l-9 7q36 55 59 116t41.5 124.5t36.5 126.5t43.5 122t62.5 111.5t93 93.5v3q-24 -10 -63 -21t-84.5 -25t-91.5 -32.5t-83 -43t-60.5 -56t-23.5 -72.5q0 -32 15.5 -54.5t51.5 -22.5q25 0 43 12t30 31
t17.5 42.5t5.5 47.5h12q0 -30 -7 -57.5t-22.5 -48t-39.5 -33t-57 -12.5q-46 0 -76.5 24.5t-30.5 73.5q0 45 25 77t67.5 56.5t97.5 42.5t114.5 34.5t119.5 32.5t112 36zM1196 521q6 -12 11 -27t5 -32q0 -39 -16 -70t-42.5 -52.5t-61.5 -32.5t-73 -11q-29 0 -54 9t-43.5 26
t-29 41t-10.5 54q0 61 35 106t93 77t132 52t152 31.5t153.5 15.5t135.5 4q68 0 107.5 5t60.5 5q11 0 20.5 -4t9.5 -12q0 -9 -10.5 -12.5t-22.5 -3.5q-3 0 -12.5 0.5t-22.5 1.5l-26 2t-22 2q-63 -26 -108 -62.5t-80 -80t-62.5 -91.5t-54.5 -98t-56.5 -100t-68.5 -97
q-65 -78 -147.5 -127.5t-183.5 -49.5q-29 0 -63.5 6t-64.5 20.5t-50 39t-20 61.5q0 28 16 50t46 22q23 0 37 -13.5t14 -35.5q0 -20 -9 -30.5t-32 -15.5q0 -48 29 -70t79 -22q69 0 122.5 33.5t97.5 88t83.5 123.5t79.5 140q30 53 61.5 97t73.5 82t100.5 70.5t142.5 61.5v2
q-45 0 -113 -2.5t-143.5 -11.5t-151.5 -26.5t-136.5 -48.5t-98.5 -78t-38 -115q0 -45 25.5 -71.5t69.5 -26.5q26 0 51 10.5t44.5 29.5t31.5 45t12 57q0 15 -4 29.5t-10 27.5zM1807 521q6 -12 11 -27t5 -32q0 -39 -16 -70t-42.5 -52.5t-61.5 -32.5t-73 -11q-29 0 -54 9
t-43.5 26t-29 41t-10.5 54q0 61 35 106t93 77t132 52t152 31.5t153.5 15.5t135.5 4q68 0 107.5 5t60.5 5q11 0 20.5 -4t9.5 -12q0 -9 -10.5 -12.5t-22.5 -3.5q-3 0 -12.5 0.5t-22.5 1.5l-26 2t-22 2q-63 -26 -108 -62.5t-80 -80t-62.5 -91.5t-54.5 -98t-56.5 -100t-68.5 -97
q-65 -78 -147.5 -127.5t-183.5 -49.5q-29 0 -63.5 6t-64.5 20.5t-50 39t-20 61.5q0 28 16 50t46 22q23 0 37 -13.5t14 -35.5q0 -20 -9 -30.5t-32 -15.5q0 -48 29 -70t79 -22q69 0 122.5 33.5t97.5 88t83.5 123.5t79.5 140q30 53 61.5 97t73.5 82t100.5 70.5t142.5 61.5v2
q-45 0 -113 -2.5t-143.5 -11.5t-151.5 -26.5t-136.5 -48.5t-98.5 -78t-38 -115q0 -45 25.5 -71.5t69.5 -26.5q26 0 51 10.5t44.5 29.5t31.5 45t12 57q0 15 -4 29.5t-10 27.5z" />
    <glyph glyph-name="Eightroman" unicode="&#x2167;" horiz-adv-x="2592" 
d="M666 698q-44 -26 -73 -70.5t-50.5 -100t-39.5 -119.5t-39 -129.5t-49 -129t-69 -118.5l2 -2q50 30 107.5 67.5t115 81t111.5 92.5t97.5 103.5t72.5 114t36 122.5q-17 8 -23.5 19t-6.5 29q0 21 17 34.5t37 13.5q15 0 26 -6.5t18 -17t10.5 -24t3.5 -26.5q0 -50 -23 -100.5
t-63 -100.5t-92 -98t-110.5 -93t-119 -85.5t-116 -75t-103.5 -62.5t-81 -47l-9 7q36 55 59 116t41.5 124.5t36.5 126.5t43.5 122t62.5 111.5t93 93.5v3q-24 -10 -63 -21t-84.5 -25t-91.5 -32.5t-83 -43t-60.5 -56t-23.5 -72.5q0 -32 15.5 -54.5t51.5 -22.5q25 0 43 12t30 31
t17.5 42.5t5.5 47.5h12q0 -30 -7 -57.5t-22.5 -48t-39.5 -33t-57 -12.5q-46 0 -76.5 24.5t-30.5 73.5q0 45 25 77t67.5 56.5t97.5 42.5t114.5 34.5t119.5 32.5t112 36zM1196 521q6 -12 11 -27t5 -32q0 -39 -16 -70t-42.5 -52.5t-61.5 -32.5t-73 -11q-29 0 -54 9t-43.5 26
t-29 41t-10.5 54q0 61 35 106t93 77t132 52t152 31.5t153.5 15.5t135.5 4q68 0 107.5 5t60.5 5q11 0 20.5 -4t9.5 -12q0 -9 -10.5 -12.5t-22.5 -3.5q-3 0 -12.5 0.5t-22.5 1.5l-26 2t-22 2q-63 -26 -108 -62.5t-80 -80t-62.5 -91.5t-54.5 -98t-56.5 -100t-68.5 -97
q-65 -78 -147.5 -127.5t-183.5 -49.5q-29 0 -63.5 6t-64.5 20.5t-50 39t-20 61.5q0 28 16 50t46 22q23 0 37 -13.5t14 -35.5q0 -20 -9 -30.5t-32 -15.5q0 -48 29 -70t79 -22q69 0 122.5 33.5t97.5 88t83.5 123.5t79.5 140q30 53 61.5 97t73.5 82t100.5 70.5t142.5 61.5v2
q-45 0 -113 -2.5t-143.5 -11.5t-151.5 -26.5t-136.5 -48.5t-98.5 -78t-38 -115q0 -45 25.5 -71.5t69.5 -26.5q26 0 51 10.5t44.5 29.5t31.5 45t12 57q0 15 -4 29.5t-10 27.5zM1807 521q6 -12 11 -27t5 -32q0 -39 -16 -70t-42.5 -52.5t-61.5 -32.5t-73 -11q-29 0 -54 9
t-43.5 26t-29 41t-10.5 54q0 61 35 106t93 77t132 52t152 31.5t153.5 15.5t135.5 4q68 0 107.5 5t60.5 5q11 0 20.5 -4t9.5 -12q0 -9 -10.5 -12.5t-22.5 -3.5q-3 0 -12.5 0.5t-22.5 1.5l-26 2t-22 2q-63 -26 -108 -62.5t-80 -80t-62.5 -91.5t-54.5 -98t-56.5 -100t-68.5 -97
q-65 -78 -147.5 -127.5t-183.5 -49.5q-29 0 -63.5 6t-64.5 20.5t-50 39t-20 61.5q0 28 16 50t46 22q23 0 37 -13.5t14 -35.5q0 -20 -9 -30.5t-32 -15.5q0 -48 29 -70t79 -22q69 0 122.5 33.5t97.5 88t83.5 123.5t79.5 140q30 53 61.5 97t73.5 82t100.5 70.5t142.5 61.5v2
q-45 0 -113 -2.5t-143.5 -11.5t-151.5 -26.5t-136.5 -48.5t-98.5 -78t-38 -115q0 -45 25.5 -71.5t69.5 -26.5q26 0 51 10.5t44.5 29.5t31.5 45t12 57q0 15 -4 29.5t-10 27.5zM2418 521q6 -12 11 -27t5 -32q0 -39 -16 -70t-42.5 -52.5t-61.5 -32.5t-73 -11q-29 0 -54 9
t-43.5 26t-29 41t-10.5 54q0 61 35 106t93 77t132 52t152 31.5t153.5 15.5t135.5 4q68 0 107.5 5t60.5 5q11 0 20.5 -4t9.5 -12q0 -9 -10.5 -12.5t-22.5 -3.5q-3 0 -12.5 0.5t-22.5 1.5l-26 2t-22 2q-63 -26 -108 -62.5t-80 -80t-62.5 -91.5t-54.5 -98t-56.5 -100t-68.5 -97
q-65 -78 -147.5 -127.5t-183.5 -49.5q-29 0 -63.5 6t-64.5 20.5t-50 39t-20 61.5q0 28 16 50t46 22q23 0 37 -13.5t14 -35.5q0 -20 -9 -30.5t-32 -15.5q0 -48 29 -70t79 -22q69 0 122.5 33.5t97.5 88t83.5 123.5t79.5 140q30 53 61.5 97t73.5 82t100.5 70.5t142.5 61.5v2
q-45 0 -113 -2.5t-143.5 -11.5t-151.5 -26.5t-136.5 -48.5t-98.5 -78t-38 -115q0 -45 25.5 -71.5t69.5 -26.5q26 0 51 10.5t44.5 29.5t31.5 45t12 57q0 15 -4 29.5t-10 27.5z" />
    <glyph glyph-name="Nineroman" unicode="&#x2168;" horiz-adv-x="1481" 
d="M437 521q6 -12 11 -27t5 -32q0 -39 -16 -70t-42.5 -52.5t-61.5 -32.5t-73 -11q-29 0 -54 9t-43.5 26t-29 41t-10.5 54q0 61 35 106t93 77t132 52t152 31.5t153.5 15.5t135.5 4q68 0 107.5 5t60.5 5q11 0 20.5 -4t9.5 -12q0 -9 -10.5 -12.5t-22.5 -3.5q-3 0 -12.5 0.5
t-22.5 1.5l-26 2t-22 2q-63 -26 -108 -62.5t-80 -80t-62.5 -91.5t-54.5 -98t-56.5 -100t-68.5 -97q-65 -78 -147.5 -127.5t-183.5 -49.5q-29 0 -63.5 6t-64.5 20.5t-50 39t-20 61.5q0 28 16 50t46 22q23 0 37 -13.5t14 -35.5q0 -20 -9 -30.5t-32 -15.5q0 -48 29 -70t79 -22
q69 0 122.5 33.5t97.5 88t83.5 123.5t79.5 140q30 53 61.5 97t73.5 82t100.5 70.5t142.5 61.5v2q-45 0 -113 -2.5t-143.5 -11.5t-151.5 -26.5t-136.5 -48.5t-98.5 -78t-38 -115q0 -45 25.5 -71.5t69.5 -26.5q26 0 51 10.5t44.5 29.5t31.5 45t12 57q0 15 -4 29.5t-10 27.5z
M1126 442q-14 -33 -34 -64t-46 -54t-58.5 -37t-71.5 -14q-29 0 -51.5 11.5t-37.5 31t-23 44t-8 51.5q0 58 28.5 114t74 99.5t103.5 70.5t117 27q84 0 125.5 -45t41.5 -120v-25q0 -11 -2 -19l2 -2q33 40 76.5 78t94 67.5t106.5 47.5t114 18q16 0 33 -4.5t31 -13.5t23 -23.5
t9 -34.5q0 -26 -16 -38t-40 -12q-6 0 -19 3.5t-13 11.5q0 7 2 13t2 14q0 35 -20 47.5t-49 12.5q-34 0 -72.5 -14t-77 -38.5t-75 -58t-66.5 -73.5q-28 -36 -54 -82t-46 -96.5t-32.5 -101t-12.5 -95.5q0 -22 4.5 -44.5t15.5 -40.5t29 -29t45 -11q44 0 89 27t86 66t76.5 82.5
t60.5 76.5l7 -7q-25 -35 -56 -74t-66 -74q-26 -26 -54.5 -49t-59 -40.5t-64 -27.5t-69.5 -10q-66 0 -101 39t-35 104q0 18 1 35.5t3 34.5l-2 2q-33 -45 -78 -84.5t-94.5 -68.5t-101 -45.5t-98.5 -16.5q-60 0 -95.5 20.5t-35.5 62.5q0 26 16 41.5t39 15.5q21 0 34 -13.5
t13 -32.5q0 -12 -4.5 -21.5t-11.5 -14.5q7 -20 21.5 -30t42.5 -10q49 0 102.5 24.5t105 67t97.5 98.5t80.5 119.5t55 130.5t20.5 131q0 26 -6.5 50t-20.5 42t-35.5 28.5t-50.5 10.5q-51 0 -94.5 -27t-74.5 -68.5t-48.5 -90t-17.5 -91.5q0 -22 6 -45.5t18 -42t31.5 -30.5
t46.5 -12q29 0 53.5 14t45 35.5t36.5 47.5t27 50z" />
    <glyph glyph-name="Tenroman" unicode="&#x2169;" horiz-adv-x="870" 
d="M515 442q-14 -33 -34 -64t-46 -54t-58.5 -37t-71.5 -14q-29 0 -51.5 11.5t-37.5 31t-23 44t-8 51.5q0 58 28.5 114t74 99.5t103.5 70.5t117 27q84 0 125.5 -45t41.5 -120v-25q0 -11 -2 -19l2 -2q33 40 76.5 78t94 67.5t106.5 47.5t114 18q16 0 33 -4.5t31 -13.5t23 -23.5
t9 -34.5q0 -26 -16 -38t-40 -12q-6 0 -19 3.5t-13 11.5q0 7 2 13t2 14q0 35 -20 47.5t-49 12.5q-34 0 -72.5 -14t-77 -38.5t-75 -58t-66.5 -73.5q-28 -36 -54 -82t-46 -96.5t-32.5 -101t-12.5 -95.5q0 -22 4.5 -44.5t15.5 -40.5t29 -29t45 -11q44 0 89 27t86 66t76.5 82.5
t60.5 76.5l7 -7q-25 -35 -56 -74t-66 -74q-26 -26 -54.5 -49t-59 -40.5t-64 -27.5t-69.5 -10q-66 0 -101 39t-35 104q0 18 1 35.5t3 34.5l-2 2q-33 -45 -78 -84.5t-94.5 -68.5t-101 -45.5t-98.5 -16.5q-60 0 -95.5 20.5t-35.5 62.5q0 26 16 41.5t39 15.5q21 0 34 -13.5
t13 -32.5q0 -12 -4.5 -21.5t-11.5 -14.5q7 -20 21.5 -30t42.5 -10q49 0 102.5 24.5t105 67t97.5 98.5t80.5 119.5t55 130.5t20.5 131q0 26 -6.5 50t-20.5 42t-35.5 28.5t-50.5 10.5q-51 0 -94.5 -27t-74.5 -68.5t-48.5 -90t-17.5 -91.5q0 -22 6 -45.5t18 -42t31.5 -30.5
t46.5 -12q29 0 53.5 14t45 35.5t36.5 47.5t27 50z" />
    <glyph glyph-name="Elevenroman" unicode="&#x216a;" horiz-adv-x="1481" 
d="M515 442q-14 -33 -34 -64t-46 -54t-58.5 -37t-71.5 -14q-29 0 -51.5 11.5t-37.5 31t-23 44t-8 51.5q0 58 28.5 114t74 99.5t103.5 70.5t117 27q84 0 125.5 -45t41.5 -120v-25q0 -11 -2 -19l2 -2q33 40 76.5 78t94 67.5t106.5 47.5t114 18q16 0 33 -4.5t31 -13.5t23 -23.5
t9 -34.5q0 -26 -16 -38t-40 -12q-6 0 -19 3.5t-13 11.5q0 7 2 13t2 14q0 35 -20 47.5t-49 12.5q-34 0 -72.5 -14t-77 -38.5t-75 -58t-66.5 -73.5q-28 -36 -54 -82t-46 -96.5t-32.5 -101t-12.5 -95.5q0 -22 4.5 -44.5t15.5 -40.5t29 -29t45 -11q44 0 89 27t86 66t76.5 82.5
t60.5 76.5l7 -7q-25 -35 -56 -74t-66 -74q-26 -26 -54.5 -49t-59 -40.5t-64 -27.5t-69.5 -10q-66 0 -101 39t-35 104q0 18 1 35.5t3 34.5l-2 2q-33 -45 -78 -84.5t-94.5 -68.5t-101 -45.5t-98.5 -16.5q-60 0 -95.5 20.5t-35.5 62.5q0 26 16 41.5t39 15.5q21 0 34 -13.5
t13 -32.5q0 -12 -4.5 -21.5t-11.5 -14.5q7 -20 21.5 -30t42.5 -10q49 0 102.5 24.5t105 67t97.5 98.5t80.5 119.5t55 130.5t20.5 131q0 26 -6.5 50t-20.5 42t-35.5 28.5t-50.5 10.5q-51 0 -94.5 -27t-74.5 -68.5t-48.5 -90t-17.5 -91.5q0 -22 6 -45.5t18 -42t31.5 -30.5
t46.5 -12q29 0 53.5 14t45 35.5t36.5 47.5t27 50zM1307 521q6 -12 11 -27t5 -32q0 -39 -16 -70t-42.5 -52.5t-61.5 -32.5t-73 -11q-29 0 -54 9t-43.5 26t-29 41t-10.5 54q0 61 35 106t93 77t132 52t152 31.5t153.5 15.5t135.5 4q68 0 107.5 5t60.5 5q11 0 20.5 -4t9.5 -12
q0 -9 -10.5 -12.5t-22.5 -3.5q-3 0 -12.5 0.5t-22.5 1.5l-26 2t-22 2q-63 -26 -108 -62.5t-80 -80t-62.5 -91.5t-54.5 -98t-56.5 -100t-68.5 -97q-65 -78 -147.5 -127.5t-183.5 -49.5q-29 0 -63.5 6t-64.5 20.5t-50 39t-20 61.5q0 28 16 50t46 22q23 0 37 -13.5t14 -35.5
q0 -20 -9 -30.5t-32 -15.5q0 -48 29 -70t79 -22q69 0 122.5 33.5t97.5 88t83.5 123.5t79.5 140q30 53 61.5 97t73.5 82t100.5 70.5t142.5 61.5v2q-45 0 -113 -2.5t-143.5 -11.5t-151.5 -26.5t-136.5 -48.5t-98.5 -78t-38 -115q0 -45 25.5 -71.5t69.5 -26.5q26 0 51 10.5
t44.5 29.5t31.5 45t12 57q0 15 -4 29.5t-10 27.5z" />
    <glyph glyph-name="Twelveroman" unicode="&#x216b;" horiz-adv-x="2092" 
d="M515 442q-14 -33 -34 -64t-46 -54t-58.5 -37t-71.5 -14q-29 0 -51.5 11.5t-37.5 31t-23 44t-8 51.5q0 58 28.5 114t74 99.5t103.5 70.5t117 27q84 0 125.5 -45t41.5 -120v-25q0 -11 -2 -19l2 -2q33 40 76.5 78t94 67.5t106.5 47.5t114 18q16 0 33 -4.5t31 -13.5t23 -23.5
t9 -34.5q0 -26 -16 -38t-40 -12q-6 0 -19 3.5t-13 11.5q0 7 2 13t2 14q0 35 -20 47.5t-49 12.5q-34 0 -72.5 -14t-77 -38.5t-75 -58t-66.5 -73.5q-28 -36 -54 -82t-46 -96.5t-32.5 -101t-12.5 -95.5q0 -22 4.5 -44.5t15.5 -40.5t29 -29t45 -11q44 0 89 27t86 66t76.5 82.5
t60.5 76.5l7 -7q-25 -35 -56 -74t-66 -74q-26 -26 -54.5 -49t-59 -40.5t-64 -27.5t-69.5 -10q-66 0 -101 39t-35 104q0 18 1 35.5t3 34.5l-2 2q-33 -45 -78 -84.5t-94.5 -68.5t-101 -45.5t-98.5 -16.5q-60 0 -95.5 20.5t-35.5 62.5q0 26 16 41.5t39 15.5q21 0 34 -13.5
t13 -32.5q0 -12 -4.5 -21.5t-11.5 -14.5q7 -20 21.5 -30t42.5 -10q49 0 102.5 24.5t105 67t97.5 98.5t80.5 119.5t55 130.5t20.5 131q0 26 -6.5 50t-20.5 42t-35.5 28.5t-50.5 10.5q-51 0 -94.5 -27t-74.5 -68.5t-48.5 -90t-17.5 -91.5q0 -22 6 -45.5t18 -42t31.5 -30.5
t46.5 -12q29 0 53.5 14t45 35.5t36.5 47.5t27 50zM1307 521q6 -12 11 -27t5 -32q0 -39 -16 -70t-42.5 -52.5t-61.5 -32.5t-73 -11q-29 0 -54 9t-43.5 26t-29 41t-10.5 54q0 61 35 106t93 77t132 52t152 31.5t153.5 15.5t135.5 4q68 0 107.5 5t60.5 5q11 0 20.5 -4t9.5 -12
q0 -9 -10.5 -12.5t-22.5 -3.5q-3 0 -12.5 0.5t-22.5 1.5l-26 2t-22 2q-63 -26 -108 -62.5t-80 -80t-62.5 -91.5t-54.5 -98t-56.5 -100t-68.5 -97q-65 -78 -147.5 -127.5t-183.5 -49.5q-29 0 -63.5 6t-64.5 20.5t-50 39t-20 61.5q0 28 16 50t46 22q23 0 37 -13.5t14 -35.5
q0 -20 -9 -30.5t-32 -15.5q0 -48 29 -70t79 -22q69 0 122.5 33.5t97.5 88t83.5 123.5t79.5 140q30 53 61.5 97t73.5 82t100.5 70.5t142.5 61.5v2q-45 0 -113 -2.5t-143.5 -11.5t-151.5 -26.5t-136.5 -48.5t-98.5 -78t-38 -115q0 -45 25.5 -71.5t69.5 -26.5q26 0 51 10.5
t44.5 29.5t31.5 45t12 57q0 15 -4 29.5t-10 27.5zM1918 521q6 -12 11 -27t5 -32q0 -39 -16 -70t-42.5 -52.5t-61.5 -32.5t-73 -11q-29 0 -54 9t-43.5 26t-29 41t-10.5 54q0 61 35 106t93 77t132 52t152 31.5t153.5 15.5t135.5 4q68 0 107.5 5t60.5 5q11 0 20.5 -4t9.5 -12
q0 -9 -10.5 -12.5t-22.5 -3.5q-3 0 -12.5 0.5t-22.5 1.5l-26 2t-22 2q-63 -26 -108 -62.5t-80 -80t-62.5 -91.5t-54.5 -98t-56.5 -100t-68.5 -97q-65 -78 -147.5 -127.5t-183.5 -49.5q-29 0 -63.5 6t-64.5 20.5t-50 39t-20 61.5q0 28 16 50t46 22q23 0 37 -13.5t14 -35.5
q0 -20 -9 -30.5t-32 -15.5q0 -48 29 -70t79 -22q69 0 122.5 33.5t97.5 88t83.5 123.5t79.5 140q30 53 61.5 97t73.5 82t100.5 70.5t142.5 61.5v2q-45 0 -113 -2.5t-143.5 -11.5t-151.5 -26.5t-136.5 -48.5t-98.5 -78t-38 -115q0 -45 25.5 -71.5t69.5 -26.5q26 0 51 10.5
t44.5 29.5t31.5 45t12 57q0 15 -4 29.5t-10 27.5z" />
    <glyph glyph-name="uni216C" unicode="&#x216c;" horiz-adv-x="574" 
d="M685 252q-39 -35 -88.5 -80t-99.5 -92.5t-96.5 -94.5t-80.5 -85q-4 -18 -12 -34.5t-20 -28.5t-26.5 -19.5t-30.5 -7.5q-5 0 -13.5 1t-8.5 9q0 6 4 9.5t9.5 9.5t9.5 17t4 32q0 40 -16.5 64.5t-41 38t-53 17.5t-53.5 4q-13 0 -35 -6t-47.5 -13t-52 -13t-49.5 -6
q-18 0 -34 2.5t-16 17.5q0 10 7 16t29.5 9.5t64 5t111.5 1.5q47 0 89 33.5t82.5 90.5t81 131.5t84.5 156.5q-27 7 -55 18t-51.5 29t-38.5 44.5t-15 62.5q0 51 30.5 82.5t87.5 31.5q15 0 29 -2.5t24 -8.5l-4 -9q-11 4 -22.5 6t-25.5 2q-28 0 -48.5 -8.5t-33.5 -23t-19 -33
t-6 -38.5q0 -28 12.5 -51.5t34 -41.5t49.5 -30.5t59 -18.5q27 54 69.5 103t95.5 87t114 60.5t125 22.5q21 0 42.5 -4t39 -13.5t29 -26t11.5 -41.5q0 -40 -24 -71t-63 -54.5t-87.5 -39.5t-97.5 -26.5t-93 -15t-75 -4.5q-34 -67 -70 -129t-82 -115t-104 -93.5t-135 -64.5v-2
q30 0 69 -1.5t74 -12t60 -32.5t28 -62q39 42 84.5 88t93 91.5t94 88t87.5 77.5zM844 660q0 20 -13.5 35t-46.5 15q-45 0 -89.5 -28.5t-84.5 -70t-72 -88.5t-53 -85q29 0 67 4t78 13.5t78.5 26t68.5 41t48.5 58.5t18.5 79z" />
    <glyph glyph-name="uni216D" unicode="&#x216d;" horiz-adv-x="667" 
d="M542 578q-5 -9 -7.5 -22t-2.5 -24q0 -32 20 -50.5t51 -18.5q32 0 61.5 16t52 41.5t35.5 57t13 62.5q0 22 -9.5 35.5t-24 21t-30 10.5t-27.5 3q-52 0 -109 -23t-112.5 -62.5t-105.5 -92.5t-88 -114t-60.5 -126t-22.5 -128q0 -37 8.5 -67.5t25.5 -53t42 -35t58 -12.5
q43 0 84 19t73.5 51.5t52 75t19.5 88.5q0 41 -17 69t-61 28q-23 0 -44 -12t-40 -29.5t-34 -37t-26 -35.5l-10 5q17 26 37 49.5t43.5 42.5t51.5 30t62 11q52 0 85 -31.5t33 -82.5q0 -61 -30.5 -108t-79 -79t-108 -49t-117.5 -17q-100 0 -155 57t-55 156q0 64 27 128
t72.5 122.5t106 108.5t127.5 87t136 58t132 21q29 0 56 -6t48 -19.5t33.5 -36.5t12.5 -57q0 -37 -18 -66.5t-46.5 -49.5t-63.5 -31t-68 -11q-21 0 -40.5 5t-34.5 15.5t-24.5 27t-9.5 39.5q0 14 4 28t8 21z" />
    <glyph glyph-name="uni216E" unicode="&#x216e;" horiz-adv-x="944" 
d="M1008 718q-55 -5 -102 -29t-89 -59q100 -93 100 -232q0 -100 -41.5 -176.5t-111 -128t-160 -77.5t-188.5 -26q-46 0 -96.5 7t-90.5 15q-22 -3 -49.5 -7.5t-70.5 -4.5q-42 0 -58.5 9.5t-16.5 19.5q0 11 8.5 15t29.5 4q20 0 61 -8t96 -16q57 10 101.5 49.5t82.5 96
t74 123.5t77 132.5t91 122.5t115 93q-40 35 -96 52t-110 17q-79 0 -151.5 -26t-127 -74t-87 -115.5t-32.5 -150.5q0 -27 7 -53t21 -47t36.5 -33.5t52.5 -12.5q47 0 82.5 26.5t59.5 68.5t36.5 93.5t13.5 101.5h12q-3 -81 -24 -140.5t-55 -99t-77 -59t-90 -19.5
q-36 0 -64.5 14t-48.5 37.5t-31 54t-11 64.5q0 53 19 102.5t52 92t77.5 77t95.5 59t106 38t108 13.5q38 0 69.5 -3.5t60.5 -11.5t57 -21.5t59 -33.5q49 31 105 48.5t113 25.5v-8zM837 472q0 38 -8 75t-33 66q-54 -58 -91.5 -117.5t-68.5 -117.5t-62.5 -112t-73.5 -101
t-101 -84t-147 -61v-2q12 -3 56 -9.5t104 -6.5q91 -1 168.5 40t134.5 108t89.5 151.5t32.5 170.5z" />
    <glyph glyph-name="uni216F" unicode="&#x216f;" horiz-adv-x="1000" 
d="M949 722q-63 -22 -108 -67t-81 -103t-67 -125.5t-66 -135t-78 -130.5t-102 -113l2 -2q71 46 129.5 107.5t112.5 128t105.5 133.5t108.5 124q44 45 92 79t95.5 57t92.5 35t84 12q38 0 53.5 -4t15.5 -15t-13 -12.5t-21 -1.5q-13 0 -24.5 2.5t-22.5 4.5t-18.5 4t-12.5 2
q-58 -26 -100 -78.5t-78 -119t-71 -140.5t-78.5 -141.5t-100.5 -123t-138 -85.5v-2h9q105 0 176 24t120.5 61t82.5 81.5t60 86.5l8 -5q-28 -48 -64 -94.5t-87 -83t-122.5 -59.5t-170.5 -23q-16 0 -32.5 1t-23.5 1q-6 0 -22 -1t-33 -1q-27 0 -27 12q0 14 21 14q16 0 34.5 -4
t41.5 -8q25 5 53 31.5t56.5 66t55 88t48.5 96.5q25 55 57.5 112t75 110.5t95.5 99.5t118 79l-2 2q-75 -19 -136 -57t-114 -87.5t-99.5 -106.5t-92 -115.5t-93 -115t-101.5 -103.5q-40 -35 -85 -67.5t-94 -54.5l-9 8q46 45 77.5 100.5t58.5 116.5t55 124.5t67.5 125.5
t96.5 119t141 105l-2 2q-73 -27 -133 -71.5t-111 -96t-94.5 -106t-81.5 -102.5q-41 -51 -86 -108t-97.5 -106t-112.5 -81t-131 -32q-26 0 -52 7.5t-47.5 22t-35 36t-13.5 49.5q0 31 15.5 53t48.5 22q19 0 32 -12t13 -31q0 -46 -45 -49q1 -44 29 -62t69 -18q54 0 117.5 30.5
t131.5 101.5q51 53 97.5 112t93.5 118.5t96.5 116t107 104.5t125 84.5t149.5 54.5z" />
    <glyph glyph-name="oneroman" unicode="&#x2170;" horiz-adv-x="259" 
d="M243 352q-47 -74 -81 -126.5t-55.5 -89.5t-32 -60.5t-10.5 -38.5q0 -12 4.5 -19.5t13.5 -7.5q20 0 56.5 23t91.5 79q22 23 43 45.5t39.5 43.5t33 38t23.5 27l9 -6q-12 -16 -29.5 -36.5t-37.5 -43t-41 -44.5t-41 -42q-58 -58 -99.5 -81t-76.5 -23q-33 0 -51 18t-18 47
q0 20 7.5 41.5t25.5 53.5t48 79.5t75 117.5zM301 574q19 0 33.5 -14t14.5 -33q0 -20 -16 -36.5t-36 -16.5q-22 0 -38 11.5t-16 34.5t17.5 38.5t40.5 15.5z" />
    <glyph glyph-name="tworoman" unicode="&#x2171;" horiz-adv-x="518" 
d="M243 352q-47 -74 -81 -126.5t-55.5 -89.5t-32 -60.5t-10.5 -38.5q0 -12 4.5 -19.5t13.5 -7.5q20 0 56.5 23t91.5 79q22 23 43 45.5t39.5 43.5t33 38t23.5 27l9 -6q-12 -16 -29.5 -36.5t-37.5 -43t-41 -44.5t-41 -42q-58 -58 -99.5 -81t-76.5 -23q-33 0 -51 18t-18 47
q0 20 7.5 41.5t25.5 53.5t48 79.5t75 117.5zM301 574q19 0 33.5 -14t14.5 -33q0 -20 -16 -36.5t-36 -16.5q-22 0 -38 11.5t-16 34.5t17.5 38.5t40.5 15.5zM502 352q-47 -74 -81 -126.5t-55.5 -89.5t-32 -60.5t-10.5 -38.5q0 -12 4.5 -19.5t13.5 -7.5q20 0 56.5 23t91.5 79
q22 23 43 45.5t39.5 43.5t33 38t23.5 27l9 -6q-12 -16 -29.5 -36.5t-37.5 -43t-41 -44.5t-41 -42q-58 -58 -99.5 -81t-76.5 -23q-33 0 -51 18t-18 47q0 20 7.5 41.5t25.5 53.5t48 79.5t75 117.5zM560 574q19 0 33.5 -14t14.5 -33q0 -20 -16 -36.5t-36 -16.5q-22 0 -38 11.5
t-16 34.5t17.5 38.5t40.5 15.5z" />
    <glyph glyph-name="threeroman" unicode="&#x2172;" horiz-adv-x="777" 
d="M243 352q-47 -74 -81 -126.5t-55.5 -89.5t-32 -60.5t-10.5 -38.5q0 -12 4.5 -19.5t13.5 -7.5q20 0 56.5 23t91.5 79q22 23 43 45.5t39.5 43.5t33 38t23.5 27l9 -6q-12 -16 -29.5 -36.5t-37.5 -43t-41 -44.5t-41 -42q-58 -58 -99.5 -81t-76.5 -23q-33 0 -51 18t-18 47
q0 20 7.5 41.5t25.5 53.5t48 79.5t75 117.5zM301 574q19 0 33.5 -14t14.5 -33q0 -20 -16 -36.5t-36 -16.5q-22 0 -38 11.5t-16 34.5t17.5 38.5t40.5 15.5zM502 352q-47 -74 -81 -126.5t-55.5 -89.5t-32 -60.5t-10.5 -38.5q0 -12 4.5 -19.5t13.5 -7.5q20 0 56.5 23t91.5 79
q22 23 43 45.5t39.5 43.5t33 38t23.5 27l9 -6q-12 -16 -29.5 -36.5t-37.5 -43t-41 -44.5t-41 -42q-58 -58 -99.5 -81t-76.5 -23q-33 0 -51 18t-18 47q0 20 7.5 41.5t25.5 53.5t48 79.5t75 117.5zM560 574q19 0 33.5 -14t14.5 -33q0 -20 -16 -36.5t-36 -16.5q-22 0 -38 11.5
t-16 34.5t17.5 38.5t40.5 15.5zM761 352q-47 -74 -81 -126.5t-55.5 -89.5t-32 -60.5t-10.5 -38.5q0 -12 4.5 -19.5t13.5 -7.5q20 0 56.5 23t91.5 79q22 23 43 45.5t39.5 43.5t33 38t23.5 27l9 -6q-12 -16 -29.5 -36.5t-37.5 -43t-41 -44.5t-41 -42q-58 -58 -99.5 -81
t-76.5 -23q-33 0 -51 18t-18 47q0 20 7.5 41.5t25.5 53.5t48 79.5t75 117.5zM819 574q19 0 33.5 -14t14.5 -33q0 -20 -16 -36.5t-36 -16.5q-22 0 -38 11.5t-16 34.5t17.5 38.5t40.5 15.5z" />
    <glyph glyph-name="fourroman" unicode="&#x2173;" horiz-adv-x="740" 
d="M243 352q-47 -74 -81 -126.5t-55.5 -89.5t-32 -60.5t-10.5 -38.5q0 -12 4.5 -19.5t13.5 -7.5q20 0 56.5 23t91.5 79q22 23 43 45.5t39.5 43.5t33 38t23.5 27l9 -6q-12 -16 -29.5 -36.5t-37.5 -43t-41 -44.5t-41 -42q-58 -58 -99.5 -81t-76.5 -23q-33 0 -51 18t-18 47
q0 20 7.5 41.5t25.5 53.5t48 79.5t75 117.5zM301 574q19 0 33.5 -14t14.5 -33q0 -20 -16 -36.5t-36 -16.5q-22 0 -38 11.5t-16 34.5t17.5 38.5t40.5 15.5zM500 356q-17 -26 -46.5 -66t-57.5 -84t-48.5 -86.5t-20.5 -72.5q0 -22 10 -33.5t35 -11.5q38 0 75.5 29t68 72
t49.5 92t20 89q-8 18 -8 39q0 17 12 31t34 14q25 0 38.5 -21.5t11.5 -65.5q0 -13 -1 -25.5t-3 -21.5q20 -17 39 -23t40 -6q35 0 59 18.5t41 41.5l8 -5q-17 -29 -46.5 -48t-63.5 -19q-21 0 -41.5 7.5t-38.5 20.5q-12 -47 -40.5 -89t-68.5 -73.5t-88 -50t-99 -18.5
q-49 0 -82 22t-33 76q0 26 9 51.5t26 56t42.5 68.5t58.5 88z" />
    <glyph glyph-name="fiveroman" unicode="&#x2174;" 
d="M241 356q-17 -26 -46.5 -66t-57.5 -84t-48.5 -86.5t-20.5 -72.5q0 -22 10 -33.5t35 -11.5q38 0 75.5 29t68 72t49.5 92t20 89q-8 18 -8 39q0 17 12 31t34 14q25 0 38.5 -21.5t11.5 -65.5q0 -13 -1 -25.5t-3 -21.5q20 -17 39 -23t40 -6q35 0 59 18.5t41 41.5l8 -5
q-17 -29 -46.5 -48t-63.5 -19q-21 0 -41.5 7.5t-38.5 20.5q-12 -47 -40.5 -89t-68.5 -73.5t-88 -50t-99 -18.5q-49 0 -82 22t-33 76q0 26 9 51.5t26 56t42.5 68.5t58.5 88z" />
    <glyph glyph-name="sixroman" unicode="&#x2175;" horiz-adv-x="740" 
d="M241 356q-17 -26 -46.5 -66t-57.5 -84t-48.5 -86.5t-20.5 -72.5q0 -22 10 -33.5t35 -11.5q38 0 75.5 29t68 72t49.5 92t20 89q-8 18 -8 39q0 17 12 31t34 14q25 0 38.5 -21.5t11.5 -65.5q0 -13 -1 -25.5t-3 -21.5q20 -17 39 -23t40 -6q35 0 59 18.5t41 41.5l8 -5
q-17 -29 -46.5 -48t-63.5 -19q-21 0 -41.5 7.5t-38.5 20.5q-12 -47 -40.5 -89t-68.5 -73.5t-88 -50t-99 -18.5q-49 0 -82 22t-33 76q0 26 9 51.5t26 56t42.5 68.5t58.5 88zM724 352q-47 -74 -81 -126.5t-55.5 -89.5t-32 -60.5t-10.5 -38.5q0 -12 4.5 -19.5t13.5 -7.5
q20 0 56.5 23t91.5 79q22 23 43 45.5t39.5 43.5t33 38t23.5 27l9 -6q-12 -16 -29.5 -36.5t-37.5 -43t-41 -44.5t-41 -42q-58 -58 -99.5 -81t-76.5 -23q-33 0 -51 18t-18 47q0 20 7.5 41.5t25.5 53.5t48 79.5t75 117.5zM782 574q19 0 33.5 -14t14.5 -33q0 -20 -16 -36.5
t-36 -16.5q-22 0 -38 11.5t-16 34.5t17.5 38.5t40.5 15.5z" />
    <glyph glyph-name="sevenroman" unicode="&#x2176;" horiz-adv-x="999" 
d="M241 356q-17 -26 -46.5 -66t-57.5 -84t-48.5 -86.5t-20.5 -72.5q0 -22 10 -33.5t35 -11.5q38 0 75.5 29t68 72t49.5 92t20 89q-8 18 -8 39q0 17 12 31t34 14q25 0 38.5 -21.5t11.5 -65.5q0 -13 -1 -25.5t-3 -21.5q20 -17 39 -23t40 -6q35 0 59 18.5t41 41.5l8 -5
q-17 -29 -46.5 -48t-63.5 -19q-21 0 -41.5 7.5t-38.5 20.5q-12 -47 -40.5 -89t-68.5 -73.5t-88 -50t-99 -18.5q-49 0 -82 22t-33 76q0 26 9 51.5t26 56t42.5 68.5t58.5 88zM724 352q-47 -74 -81 -126.5t-55.5 -89.5t-32 -60.5t-10.5 -38.5q0 -12 4.5 -19.5t13.5 -7.5
q20 0 56.5 23t91.5 79q22 23 43 45.5t39.5 43.5t33 38t23.5 27l9 -6q-12 -16 -29.5 -36.5t-37.5 -43t-41 -44.5t-41 -42q-58 -58 -99.5 -81t-76.5 -23q-33 0 -51 18t-18 47q0 20 7.5 41.5t25.5 53.5t48 79.5t75 117.5zM782 574q19 0 33.5 -14t14.5 -33q0 -20 -16 -36.5
t-36 -16.5q-22 0 -38 11.5t-16 34.5t17.5 38.5t40.5 15.5zM983 352q-47 -74 -81 -126.5t-55.5 -89.5t-32 -60.5t-10.5 -38.5q0 -12 4.5 -19.5t13.5 -7.5q20 0 56.5 23t91.5 79q22 23 43 45.5t39.5 43.5t33 38t23.5 27l9 -6q-12 -16 -29.5 -36.5t-37.5 -43t-41 -44.5t-41 -42
q-58 -58 -99.5 -81t-76.5 -23q-33 0 -51 18t-18 47q0 20 7.5 41.5t25.5 53.5t48 79.5t75 117.5zM1041 574q19 0 33.5 -14t14.5 -33q0 -20 -16 -36.5t-36 -16.5q-22 0 -38 11.5t-16 34.5t17.5 38.5t40.5 15.5z" />
    <glyph glyph-name="eightroman" unicode="&#x2177;" horiz-adv-x="1258" 
d="M241 356q-17 -26 -46.5 -66t-57.5 -84t-48.5 -86.5t-20.5 -72.5q0 -22 10 -33.5t35 -11.5q38 0 75.5 29t68 72t49.5 92t20 89q-8 18 -8 39q0 17 12 31t34 14q25 0 38.5 -21.5t11.5 -65.5q0 -13 -1 -25.5t-3 -21.5q20 -17 39 -23t40 -6q35 0 59 18.5t41 41.5l8 -5
q-17 -29 -46.5 -48t-63.5 -19q-21 0 -41.5 7.5t-38.5 20.5q-12 -47 -40.5 -89t-68.5 -73.5t-88 -50t-99 -18.5q-49 0 -82 22t-33 76q0 26 9 51.5t26 56t42.5 68.5t58.5 88zM724 352q-47 -74 -81 -126.5t-55.5 -89.5t-32 -60.5t-10.5 -38.5q0 -12 4.5 -19.5t13.5 -7.5
q20 0 56.5 23t91.5 79q22 23 43 45.5t39.5 43.5t33 38t23.5 27l9 -6q-12 -16 -29.5 -36.5t-37.5 -43t-41 -44.5t-41 -42q-58 -58 -99.5 -81t-76.5 -23q-33 0 -51 18t-18 47q0 20 7.5 41.5t25.5 53.5t48 79.5t75 117.5zM782 574q19 0 33.5 -14t14.5 -33q0 -20 -16 -36.5
t-36 -16.5q-22 0 -38 11.5t-16 34.5t17.5 38.5t40.5 15.5zM983 352q-47 -74 -81 -126.5t-55.5 -89.5t-32 -60.5t-10.5 -38.5q0 -12 4.5 -19.5t13.5 -7.5q20 0 56.5 23t91.5 79q22 23 43 45.5t39.5 43.5t33 38t23.5 27l9 -6q-12 -16 -29.5 -36.5t-37.5 -43t-41 -44.5t-41 -42
q-58 -58 -99.5 -81t-76.5 -23q-33 0 -51 18t-18 47q0 20 7.5 41.5t25.5 53.5t48 79.5t75 117.5zM1041 574q19 0 33.5 -14t14.5 -33q0 -20 -16 -36.5t-36 -16.5q-22 0 -38 11.5t-16 34.5t17.5 38.5t40.5 15.5zM1242 352q-47 -74 -81 -126.5t-55.5 -89.5t-32 -60.5
t-10.5 -38.5q0 -12 4.5 -19.5t13.5 -7.5q20 0 56.5 23t91.5 79q22 23 43 45.5t39.5 43.5t33 38t23.5 27l9 -6q-12 -16 -29.5 -36.5t-37.5 -43t-41 -44.5t-41 -42q-58 -58 -99.5 -81t-76.5 -23q-33 0 -51 18t-18 47q0 20 7.5 41.5t25.5 53.5t48 79.5t75 117.5zM1300 574
q19 0 33.5 -14t14.5 -33q0 -20 -16 -36.5t-36 -16.5q-22 0 -38 11.5t-16 34.5t17.5 38.5t40.5 15.5z" />
    <glyph glyph-name="nineroman" unicode="&#x2178;" horiz-adv-x="852" 
d="M243 352q-47 -74 -81 -126.5t-55.5 -89.5t-32 -60.5t-10.5 -38.5q0 -12 4.5 -19.5t13.5 -7.5q20 0 56.5 23t91.5 79q22 23 43 45.5t39.5 43.5t33 38t23.5 27l9 -6q-12 -16 -29.5 -36.5t-37.5 -43t-41 -44.5t-41 -42q-58 -58 -99.5 -81t-76.5 -23q-33 0 -51 18t-18 47
q0 20 7.5 41.5t25.5 53.5t48 79.5t75 117.5zM301 574q19 0 33.5 -14t14.5 -33q0 -20 -16 -36.5t-36 -16.5q-22 0 -38 11.5t-16 34.5t17.5 38.5t40.5 15.5zM964 258q-32 -42 -73.5 -90.5t-90 -89t-103 -67.5t-111.5 -27q-46 0 -72.5 24.5t-30.5 63.5q-19 -16 -41 -31
t-46.5 -26t-51 -18t-54.5 -7q-54 0 -82.5 23t-28.5 63q0 24 15 44.5t45 20.5q20 0 33 -12t13 -32t-13.5 -33t-30.5 -13q0 -23 14 -36t37 -13q42 0 84.5 29.5t76.5 72t55 91t21 87.5q0 25 -11 41.5t-38 16.5q-16 0 -32 -8t-30 -20t-26 -26.5t-21 -27.5l-7 5q13 18 28.5 36.5
t34 34t41 25t48.5 9.5q42 0 67 -24t33 -62q34 33 77 57.5t92 24.5q16 0 33 -3t31 -11t23 -20.5t9 -32.5q0 -31 -24.5 -46.5t-51.5 -15.5q-11 0 -20 3q5 17 8.5 32.5t3.5 36.5t-8.5 33t-25.5 12q-26 0 -59 -23t-62 -59t-49 -81.5t-20 -90.5q0 -39 22 -57.5t58 -18.5
q40 0 84.5 26.5t86 64.5t77 79.5t57.5 70.5z" />
    <glyph glyph-name="tenroman" unicode="&#x2179;" horiz-adv-x="593" 
d="M705 258q-32 -42 -73.5 -90.5t-90 -89t-103 -67.5t-111.5 -27q-46 0 -72.5 24.5t-30.5 63.5q-19 -16 -41 -31t-46.5 -26t-51 -18t-54.5 -7q-54 0 -82.5 23t-28.5 63q0 24 15 44.5t45 20.5q20 0 33 -12t13 -32t-13.5 -33t-30.5 -13q0 -23 14 -36t37 -13q42 0 84.5 29.5
t76.5 72t55 91t21 87.5q0 25 -11 41.5t-38 16.5q-16 0 -32 -8t-30 -20t-26 -26.5t-21 -27.5l-7 5q13 18 28.5 36.5t34 34t41 25t48.5 9.5q42 0 67 -24t33 -62q34 33 77 57.5t92 24.5q16 0 33 -3t31 -11t23 -20.5t9 -32.5q0 -31 -24.5 -46.5t-51.5 -15.5q-11 0 -20 3
q5 17 8.5 32.5t3.5 36.5t-8.5 33t-25.5 12q-26 0 -59 -23t-62 -59t-49 -81.5t-20 -90.5q0 -39 22 -57.5t58 -18.5q40 0 84.5 26.5t86 64.5t77 79.5t57.5 70.5z" />
    <glyph glyph-name="elevenroman" unicode="&#x217a;" horiz-adv-x="852" 
d="M705 258q-32 -42 -73.5 -90.5t-90 -89t-103 -67.5t-111.5 -27q-46 0 -72.5 24.5t-30.5 63.5q-19 -16 -41 -31t-46.5 -26t-51 -18t-54.5 -7q-54 0 -82.5 23t-28.5 63q0 24 15 44.5t45 20.5q20 0 33 -12t13 -32t-13.5 -33t-30.5 -13q0 -23 14 -36t37 -13q42 0 84.5 29.5
t76.5 72t55 91t21 87.5q0 25 -11 41.5t-38 16.5q-16 0 -32 -8t-30 -20t-26 -26.5t-21 -27.5l-7 5q13 18 28.5 36.5t34 34t41 25t48.5 9.5q42 0 67 -24t33 -62q34 33 77 57.5t92 24.5q16 0 33 -3t31 -11t23 -20.5t9 -32.5q0 -31 -24.5 -46.5t-51.5 -15.5q-11 0 -20 3
q5 17 8.5 32.5t3.5 36.5t-8.5 33t-25.5 12q-26 0 -59 -23t-62 -59t-49 -81.5t-20 -90.5q0 -39 22 -57.5t58 -18.5q40 0 84.5 26.5t86 64.5t77 79.5t57.5 70.5zM836 352q-47 -74 -81 -126.5t-55.5 -89.5t-32 -60.5t-10.5 -38.5q0 -12 4.5 -19.5t13.5 -7.5q20 0 56.5 23
t91.5 79q22 23 43 45.5t39.5 43.5t33 38t23.5 27l9 -6q-12 -16 -29.5 -36.5t-37.5 -43t-41 -44.5t-41 -42q-58 -58 -99.5 -81t-76.5 -23q-33 0 -51 18t-18 47q0 20 7.5 41.5t25.5 53.5t48 79.5t75 117.5zM894 574q19 0 33.5 -14t14.5 -33q0 -20 -16 -36.5t-36 -16.5
q-22 0 -38 11.5t-16 34.5t17.5 38.5t40.5 15.5z" />
    <glyph glyph-name="twelveroman" unicode="&#x217b;" horiz-adv-x="1111" 
d="M705 258q-32 -42 -73.5 -90.5t-90 -89t-103 -67.5t-111.5 -27q-46 0 -72.5 24.5t-30.5 63.5q-19 -16 -41 -31t-46.5 -26t-51 -18t-54.5 -7q-54 0 -82.5 23t-28.5 63q0 24 15 44.5t45 20.5q20 0 33 -12t13 -32t-13.5 -33t-30.5 -13q0 -23 14 -36t37 -13q42 0 84.5 29.5
t76.5 72t55 91t21 87.5q0 25 -11 41.5t-38 16.5q-16 0 -32 -8t-30 -20t-26 -26.5t-21 -27.5l-7 5q13 18 28.5 36.5t34 34t41 25t48.5 9.5q42 0 67 -24t33 -62q34 33 77 57.5t92 24.5q16 0 33 -3t31 -11t23 -20.5t9 -32.5q0 -31 -24.5 -46.5t-51.5 -15.5q-11 0 -20 3
q5 17 8.5 32.5t3.5 36.5t-8.5 33t-25.5 12q-26 0 -59 -23t-62 -59t-49 -81.5t-20 -90.5q0 -39 22 -57.5t58 -18.5q40 0 84.5 26.5t86 64.5t77 79.5t57.5 70.5zM836 352q-47 -74 -81 -126.5t-55.5 -89.5t-32 -60.5t-10.5 -38.5q0 -12 4.5 -19.5t13.5 -7.5q20 0 56.5 23
t91.5 79q22 23 43 45.5t39.5 43.5t33 38t23.5 27l9 -6q-12 -16 -29.5 -36.5t-37.5 -43t-41 -44.5t-41 -42q-58 -58 -99.5 -81t-76.5 -23q-33 0 -51 18t-18 47q0 20 7.5 41.5t25.5 53.5t48 79.5t75 117.5zM894 574q19 0 33.5 -14t14.5 -33q0 -20 -16 -36.5t-36 -16.5
q-22 0 -38 11.5t-16 34.5t17.5 38.5t40.5 15.5zM1095 352q-47 -74 -81 -126.5t-55.5 -89.5t-32 -60.5t-10.5 -38.5q0 -12 4.5 -19.5t13.5 -7.5q20 0 56.5 23t91.5 79q22 23 43 45.5t39.5 43.5t33 38t23.5 27l9 -6q-12 -16 -29.5 -36.5t-37.5 -43t-41 -44.5t-41 -42
q-58 -58 -99.5 -81t-76.5 -23q-33 0 -51 18t-18 47q0 20 7.5 41.5t25.5 53.5t48 79.5t75 117.5zM1153 574q19 0 33.5 -14t14.5 -33q0 -20 -16 -36.5t-36 -16.5q-22 0 -38 11.5t-16 34.5t17.5 38.5t40.5 15.5z" />
    <glyph glyph-name="uni217C" unicode="&#x217c;" horiz-adv-x="259" 
d="M456 699l-309 -492q-39 -63 -62 -104.5t-23 -67.5q0 -27 22 -27q21 0 57 23t77 64q38 38 75 81t72 89l9 -3q-12 -16 -27.5 -36t-32.5 -40.5t-34.5 -41t-34.5 -37.5q-58 -59 -102.5 -88t-92.5 -29q-68 0 -68 60q0 28 20.5 70.5t63.5 114.5l279 458z" />
    </font>
</defs>
</svg>
